IbarraRealNova-Regular.ufo
<glyph name="exclam" format="2">
  <advance width="214"/>
  <unicode hex="0021"/>
  <outline>
    <contour>
      <point x="93" y="199" type="line"/>
      <point x="120" y="199" type="line"/>
      <point x="152" y="658" type="line"/>
      <point x="62" y="658" type="line"/>
    </contour>
    <contour>
      <point x="106" y="-6" type="curve" smooth="yes"/>
      <point x="138" y="-6"/>
      <point x="164" y="20"/>
      <point x="164" y="50" type="curve" smooth="yes"/>
      <point x="164" y="82"/>
      <point x="138" y="108"/>
      <point x="106" y="108" type="curve" smooth="yes"/>
      <point x="76" y="108"/>
      <point x="50" y="82"/>
      <point x="50" y="50" type="curve" smooth="yes"/>
      <point x="50" y="20"/>
      <point x="76" y="-6"/>
    </contour>
  </outline>
</glyph>
<glyph name="dollar" format="2">
  <advance width="567"/>
  <unicode hex="0024"/>
  <outline>
    <contour>
      <point x="271" y="-89" type="line"/>
      <point x="302" y="-89" type="line"/>
      <point x="302" y="766" type="line"/>
      <point x="271" y="766" type="line"/>
    </contour>
    <component base="S"/>
  </outline>
</glyph>
<glyph name="percent" format="2">
  <advance width="628"/>
  <unicode hex="0025"/>
  <guideline x="598" y="561" angle="90"/>
  <guideline x="35" y="316" angle="90"/>
  <outline>
    <contour>
      <point x="165" y="345" type="curve" smooth="yes"/>
      <point x="257" y="345"/>
      <point x="297" y="422"/>
      <point x="297" y="515" type="curve" smooth="yes"/>
      <point x="297" y="609"/>
      <point x="257" y="682"/>
      <point x="165" y="682" type="curve" smooth="yes"/>
      <point x="74" y="682"/>
      <point x="35" y="609"/>
      <point x="35" y="515" type="curve" smooth="yes"/>
      <point x="35" y="422"/>
      <point x="74" y="345"/>
    </contour>
    <contour>
      <point x="165" y="365" type="curve" smooth="yes"/>
      <point x="118" y="365"/>
      <point x="110" y="436"/>
      <point x="110" y="515" type="curve" smooth="yes"/>
      <point x="110" y="593"/>
      <point x="118" y="660"/>
      <point x="165" y="660" type="curve" smooth="yes"/>
      <point x="214" y="660"/>
      <point x="222" y="593"/>
      <point x="222" y="515" type="curve" smooth="yes"/>
      <point x="222" y="436"/>
      <point x="214" y="365"/>
    </contour>
    <contour>
      <point x="461" y="-8" type="curve" smooth="yes"/>
      <point x="553" y="-8"/>
      <point x="593" y="69"/>
      <point x="593" y="162" type="curve" smooth="yes"/>
      <point x="593" y="256"/>
      <point x="553" y="329"/>
      <point x="461" y="329" type="curve" smooth="yes"/>
      <point x="370" y="329"/>
      <point x="331" y="256"/>
      <point x="331" y="162" type="curve" smooth="yes"/>
      <point x="331" y="69"/>
      <point x="370" y="-8"/>
    </contour>
    <contour>
      <point x="461" y="12" type="curve" smooth="yes"/>
      <point x="414" y="12"/>
      <point x="406" y="83"/>
      <point x="406" y="162" type="curve" smooth="yes"/>
      <point x="406" y="240"/>
      <point x="414" y="307"/>
      <point x="461" y="307" type="curve" smooth="yes"/>
      <point x="510" y="307"/>
      <point x="518" y="240"/>
      <point x="518" y="162" type="curve" smooth="yes"/>
      <point x="518" y="83"/>
      <point x="510" y="12"/>
    </contour>
    <component base="fraction" xOffset="116"/>
  </outline>
</glyph>
<glyph name="quotesingle" format="2">
  <advance width="265"/>
  <unicode hex="0027"/>
  <outline>
    <contour>
      <point x="119" y="454" type="line"/>
      <point x="146" y="454" type="line"/>
      <point x="183" y="710" type="line"/>
      <point x="82" y="710" type="line"/>
    </contour>
  </outline>
</glyph>
<glyph name="parenright" format="2">
  <advance width="301"/>
  <unicode hex="0029"/>
  <outline>
    <contour>
      <point x="63" y="-238" type="line"/>
      <point x="182" y="-90"/>
      <point x="241" y="91"/>
      <point x="241" y="257" type="curve" smooth="yes"/>
      <point x="241" y="423"/>
      <point x="182" y="604"/>
      <point x="63" y="752" type="curve"/>
      <point x="40" y="737" type="line"/>
      <point x="122" y="592"/>
      <point x="169" y="430"/>
      <point x="169" y="257" type="curve" smooth="yes"/>
      <point x="169" y="84"/>
      <point x="122" y="-78"/>
      <point x="40" y="-223" type="curve"/>
    </contour>
  </outline>
</glyph>
<glyph name="comma" format="2">
  <advance width="265"/>
  <unicode hex="002C"/>
  <outline>
    <contour>
      <point x="53" y="-150" type="line"/>
      <point x="150" y="-143"/>
      <point x="213" y="-63"/>
      <point x="213" y="24" type="curve" smooth="yes"/>
      <point x="213" y="88"/>
      <point x="176" y="128"/>
      <point x="117" y="149" type="curve"/>
      <point x="102" y="116"/>
      <point x="87" y="99"/>
      <point x="61" y="82" type="curve"/>
      <point x="61" y="59" type="line"/>
      <point x="116" y="51"/>
      <point x="153" y="19"/>
      <point x="153" y="-22" type="curve" smooth="yes"/>
      <point x="153" y="-80"/>
      <point x="113" y="-124"/>
      <point x="53" y="-133" type="curve"/>
    </contour>
  </outline>
</glyph>
<glyph name="hyphen" format="2">
  <advance width="265"/>
  <unicode hex="002D"/>
  <outline>
    <contour>
      <point x="20" y="315" type="line"/>
      <point x="20" y="255" type="line"/>
      <point x="245" y="255" type="line"/>
      <point x="245" y="315" type="line"/>
    </contour>
  </outline>
</glyph>
<glyph name="slash" format="2">
  <advance width="448"/>
  <unicode hex="002F"/>
  <outline>
    <contour>
      <point x="20" y="-7" type="line"/>
      <point x="58" y="-7" type="line"/>
      <point x="428" y="710" type="line"/>
      <point x="390" y="710" type="line"/>
    </contour>
  </outline>
</glyph>
<glyph name="zero" format="2">
  <advance width="582"/>
  <unicode hex="0030"/>
  <outline>
    <contour>
      <point x="291" y="-8" type="curve" smooth="yes"/>
      <point x="451" y="-8"/>
      <point x="522" y="151"/>
      <point x="522" y="342" type="curve" smooth="yes"/>
      <point x="522" y="533"/>
      <point x="451" y="683"/>
      <point x="291" y="683" type="curve" smooth="yes"/>
      <point x="131" y="683"/>
      <point x="60" y="533"/>
      <point x="60" y="342" type="curve" smooth="yes"/>
      <point x="60" y="151"/>
      <point x="131" y="-8"/>
    </contour>
    <contour>
      <point x="291" y="15" type="curve" smooth="yes"/>
      <point x="169" y="15"/>
      <point x="152" y="166"/>
      <point x="152" y="342" type="curve" smooth="yes"/>
      <point x="152" y="517"/>
      <point x="170" y="659"/>
      <point x="291" y="659" type="curve" smooth="yes"/>
      <point x="412" y="659"/>
      <point x="430" y="517"/>
      <point x="430" y="342" type="curve" smooth="yes"/>
      <point x="430" y="166"/>
      <point x="413" y="15"/>
    </contour>
  </outline>
</glyph>
<glyph name="one" format="2">
  <advance width="410"/>
  <unicode hex="0031"/>
  <outline>
    <contour>
      <point x="40" y="0" type="line"/>
      <point x="375" y="0" type="line"/>
      <point x="375" y="18" type="line"/>
      <point x="332" y="26" type="line" smooth="yes"/>
      <point x="250" y="41"/>
      <point x="250" y="42"/>
      <point x="250" y="101" type="curve" smooth="yes"/>
      <point x="250" y="685" type="line"/>
      <point x="55" y="649" type="line"/>
      <point x="55" y="632" type="line"/>
      <point x="139" y="635" type="line" smooth="yes"/>
      <point x="159" y="636"/>
      <point x="165" y="629"/>
      <point x="165" y="612" type="curve" smooth="yes"/>
      <point x="165" y="101" type="line" smooth="yes"/>
      <point x="165" y="42"/>
      <point x="165" y="41"/>
      <point x="83" y="26" type="curve" smooth="yes"/>
      <point x="40" y="18" type="line"/>
    </contour>
  </outline>
</glyph>
<glyph name="two" format="2">
  <advance width="497"/>
  <unicode hex="0032"/>
  <outline>
    <contour>
      <point x="40" y="0" type="line"/>
      <point x="409" y="0" type="line"/>
      <point x="437" y="170" type="line"/>
      <point x="419" y="170" type="line"/>
      <point x="408" y="136" type="line" smooth="yes"/>
      <point x="392" y="88"/>
      <point x="385" y="80"/>
      <point x="348" y="80" type="curve" smooth="yes"/>
      <point x="155" y="80" type="line"/>
      <point x="219" y="152" type="line" smooth="yes"/>
      <point x="339" y="287"/>
      <point x="429" y="371"/>
      <point x="429" y="502" type="curve" smooth="yes"/>
      <point x="429" y="626"/>
      <point x="330" y="682"/>
      <point x="230" y="682" type="curve" smooth="yes"/>
      <point x="136" y="682"/>
      <point x="41" y="633"/>
      <point x="41" y="544" type="curve" smooth="yes"/>
      <point x="41" y="508"/>
      <point x="64" y="492"/>
      <point x="87" y="492" type="curve" smooth="yes"/>
      <point x="116" y="492"/>
      <point x="137" y="509"/>
      <point x="137" y="536" type="curve" smooth="yes"/>
      <point x="137" y="557"/>
      <point x="127" y="568"/>
      <point x="120" y="576" type="curve"/>
      <point x="115" y="581"/>
      <point x="111" y="586"/>
      <point x="111" y="592" type="curve" smooth="yes"/>
      <point x="111" y="630"/>
      <point x="160" y="653"/>
      <point x="202" y="653" type="curve" smooth="yes"/>
      <point x="292" y="653"/>
      <point x="335" y="594"/>
      <point x="335" y="496" type="curve" smooth="yes"/>
      <point x="335" y="404"/>
      <point x="320" y="324"/>
      <point x="177" y="165" type="curve" smooth="yes"/>
      <point x="40" y="12" type="line"/>
    </contour>
  </outline>
</glyph>
<glyph name="five" format="2">
  <advance width="475"/>
  <unicode hex="0035"/>
  <outline>
    <contour>
      <point x="175" y="-11" type="curve" smooth="yes"/>
      <point x="322" y="-11"/>
      <point x="425" y="78"/>
      <point x="425" y="214" type="curve" smooth="yes"/>
      <point x="425" y="354"/>
      <point x="321" y="426"/>
      <point x="184" y="426" type="curve" smooth="yes"/>
      <point x="164" y="426"/>
      <point x="144" y="424"/>
      <point x="123" y="421" type="curve"/>
      <point x="141" y="581" type="line"/>
      <point x="381" y="581" type="line"/>
      <point x="402" y="699" type="line"/>
      <point x="386" y="699" type="line"/>
      <point x="384" y="694" type="line" smooth="yes"/>
      <point x="376" y="672"/>
      <point x="366" y="661"/>
      <point x="341" y="661" type="curve" smooth="yes"/>
      <point x="117" y="661" type="line"/>
      <point x="82" y="351" type="line"/>
      <point x="86" y="348" type="line"/>
      <point x="106" y="351"/>
      <point x="125" y="352"/>
      <point x="144" y="352" type="curve" smooth="yes"/>
      <point x="259" y="352"/>
      <point x="335" y="297"/>
      <point x="335" y="186" type="curve" smooth="yes"/>
      <point x="335" y="83"/>
      <point x="280" y="25"/>
      <point x="162" y="25" type="curve" smooth="yes"/>
      <point x="123" y="25"/>
      <point x="80" y="37"/>
      <point x="80" y="66" type="curve" smooth="yes"/>
      <point x="80" y="71"/>
      <point x="84" y="75"/>
      <point x="89" y="79" type="curve" smooth="yes"/>
      <point x="95" y="87"/>
      <point x="104" y="97"/>
      <point x="104" y="120" type="curve" smooth="yes"/>
      <point x="104" y="140"/>
      <point x="86" y="166"/>
      <point x="56" y="166" type="curve" smooth="yes"/>
      <point x="33" y="166"/>
      <point x="10" y="150"/>
      <point x="10" y="114" type="curve" smooth="yes"/>
      <point x="10" y="35"/>
      <point x="87" y="-11"/>
    </contour>
  </outline>
</glyph>
<glyph name="nine" format="2">
  <advance width="500"/>
  <unicode hex="0039"/>
  <outline>
    <contour>
      <point x="239" y="684" type="curve" smooth="yes"/>
      <point x="138" y="684"/>
      <point x="35" y="611"/>
      <point x="35" y="472" type="curve" smooth="yes"/>
      <point x="35" y="362"/>
      <point x="96" y="265"/>
      <point x="221" y="265" type="curve" smooth="yes"/>
      <point x="303" y="265"/>
      <point x="365" y="317"/>
      <point x="374" y="378" type="curve"/>
      <point x="359" y="451" type="line"/>
      <point x="355" y="371"/>
      <point x="317" y="297"/>
      <point x="235" y="297" type="curve" smooth="yes"/>
      <point x="159" y="297"/>
      <point x="127" y="377"/>
      <point x="127" y="472" type="curve" smooth="yes"/>
      <point x="127" y="599"/>
      <point x="165" y="662"/>
      <point x="239" y="662" type="curve" smooth="yes"/>
      <point x="302" y="662"/>
      <point x="358" y="590"/>
      <point x="358" y="420" type="curve" smooth="yes"/>
      <point x="358" y="205"/>
      <point x="290" y="52"/>
      <point x="97" y="2" type="curve"/>
      <point x="97" y="-8" type="line"/>
      <point x="307" y="-8"/>
      <point x="450" y="166"/>
      <point x="450" y="411" type="curve" smooth="yes"/>
      <point x="450" y="619"/>
      <point x="345" y="684"/>
    </contour>
  </outline>
</glyph>
<glyph name="less" format="2">
  <advance width="530"/>
  <unicode hex="003C"/>
  <outline>
    <contour>
      <point x="455" y="183" type="line"/>
      <point x="121" y="334" type="line"/>
      <point x="455" y="484" type="line"/>
      <point x="455" y="529" type="line"/>
      <point x="81" y="353" type="line"/>
      <point x="80" y="315" type="line"/>
      <point x="455" y="137" type="line"/>
    </contour>
  </outline>
</glyph>
<glyph name="greater" format="2">
  <advance width="530"/>
  <unicode hex="003E"/>
  <outline>
    <contour>
      <point x="75" y="183" type="line"/>
      <point x="75" y="137" type="line"/>
      <point x="450" y="315" type="line"/>
      <point x="449" y="353" type="line"/>
      <point x="75" y="529" type="line"/>
      <point x="75" y="484" type="line"/>
      <point x="409" y="334" type="line"/>
    </contour>
  </outline>
</glyph>
<glyph name="question" format="2">
  <advance width="364"/>
  <unicode hex="003F"/>
  <outline>
    <contour>
      <point x="88" y="199" type="curve"/>
      <point x="115" y="199" type="line"/>
      <point x="115" y="248"/>
      <point x="129" y="272"/>
      <point x="200" y="282" type="curve" smooth="yes"/>
      <point x="294" y="295"/>
      <point x="319" y="353"/>
      <point x="319" y="444" type="curve" smooth="yes"/>
      <point x="319" y="534"/>
      <point x="290" y="576"/>
      <point x="216" y="589" type="curve" smooth="yes"/>
      <point x="120" y="606" type="line" smooth="yes"/>
      <point x="100" y="610"/>
      <point x="89" y="621"/>
      <point x="85" y="647" type="curve" smooth="yes"/>
      <point x="81" y="673" type="line"/>
      <point x="63" y="673" type="line"/>
      <point x="63" y="545" type="line"/>
      <point x="231" y="513" type="line" smooth="yes"/>
      <point x="272" y="505"/>
      <point x="290" y="489"/>
      <point x="290" y="443" type="curve" smooth="yes"/>
      <point x="290" y="396"/>
      <point x="279" y="379"/>
      <point x="206" y="366" type="curve" smooth="yes"/>
      <point x="113" y="350"/>
      <point x="88" y="320"/>
    </contour>
    <contour>
      <point x="101" y="-6" type="curve" smooth="yes"/>
      <point x="133" y="-6"/>
      <point x="159" y="20"/>
      <point x="159" y="50" type="curve" smooth="yes"/>
      <point x="159" y="82"/>
      <point x="133" y="108"/>
      <point x="101" y="108" type="curve" smooth="yes"/>
      <point x="71" y="108"/>
      <point x="45" y="82"/>
      <point x="45" y="50" type="curve" smooth="yes"/>
      <point x="45" y="20"/>
      <point x="71" y="-6"/>
    </contour>
  </outline>
</glyph>
<glyph name="at" format="2">
  <advance width="972"/>
  <unicode hex="0040"/>
  <outline>
    <contour>
      <point x="497" y="-206" type="curve" smooth="yes"/>
      <point x="619" y="-206"/>
      <point x="745" y="-167"/>
      <point x="844" y="-88" type="curve"/>
      <point x="828" y="-67" type="line"/>
      <point x="730" y="-133"/>
      <point x="612" y="-170"/>
      <point x="500" y="-170" type="curve" smooth="yes"/>
      <point x="294" y="-170"/>
      <point x="110" y="-49"/>
      <point x="110" y="229" type="curve" smooth="yes"/>
      <point x="110" y="481"/>
      <point x="293" y="648"/>
      <point x="505" y="648" type="curve" smooth="yes"/>
      <point x="749" y="648"/>
      <point x="870" y="473"/>
      <point x="870" y="307" type="curve" smooth="yes"/>
      <point x="870" y="141"/>
      <point x="800" y="41"/>
      <point x="713" y="41" type="curve" smooth="yes"/>
      <point x="652" y="41"/>
      <point x="635" y="61"/>
      <point x="635" y="142" type="curve" smooth="yes"/>
      <point x="635" y="305" type="line" smooth="yes"/>
      <point x="635" y="376"/>
      <point x="589" y="439"/>
      <point x="495" y="439" type="curve" smooth="yes"/>
      <point x="419" y="439"/>
      <point x="343" y="385"/>
      <point x="343" y="319" type="curve" smooth="yes"/>
      <point x="343" y="284"/>
      <point x="365" y="268"/>
      <point x="389" y="268" type="curve" smooth="yes"/>
      <point x="411" y="268"/>
      <point x="435" y="283"/>
      <point x="435" y="309" type="curve" smooth="yes"/>
      <point x="435" y="321"/>
      <point x="429" y="334"/>
      <point x="421" y="345" type="curve" smooth="yes"/>
      <point x="416" y="352"/>
      <point x="411" y="360"/>
      <point x="411" y="366" type="curve" smooth="yes"/>
      <point x="411" y="397"/>
      <point x="441" y="414"/>
      <point x="480" y="414" type="curve" smooth="yes"/>
      <point x="540" y="414"/>
      <point x="567" y="365"/>
      <point x="567" y="305" type="curve" smooth="yes"/>
      <point x="567" y="287" type="line" smooth="yes"/>
      <point x="567" y="261"/>
      <point x="557" y="248"/>
      <point x="526" y="236" type="curve" smooth="yes"/>
      <point x="351" y="169" type="line" smooth="yes"/>
      <point x="341" y="165"/>
      <point x="337" y="157"/>
      <point x="337" y="135" type="curve" smooth="yes"/>
      <point x="337" y="72"/>
      <point x="391" y="7"/>
      <point x="447" y="7" type="curve" smooth="yes"/>
      <point x="490" y="7"/>
      <point x="540" y="48"/>
      <point x="578" y="79" type="curve"/>
      <point x="572" y="121" type="line"/>
      <point x="572" y="109" type="line" smooth="yes"/>
      <point x="572" y="41"/>
      <point x="625" y="4"/>
      <point x="691" y="4" type="curve" smooth="yes"/>
      <point x="799" y="4"/>
      <point x="940" y="99"/>
      <point x="940" y="307" type="curve" smooth="yes"/>
      <point x="940" y="491"/>
      <point x="786" y="681"/>
      <point x="509" y="681" type="curve" smooth="yes"/>
      <point x="260" y="681"/>
      <point x="45" y="479"/>
      <point x="45" y="228" type="curve" smooth="yes"/>
      <point x="45" y="-62"/>
      <point x="264" y="-206"/>
    </contour>
    <contour>
      <point x="476" y="60" type="curve" smooth="yes"/>
      <point x="449" y="60"/>
      <point x="414" y="97"/>
      <point x="414" y="132" type="curve" smooth="yes"/>
      <point x="414" y="152"/>
      <point x="416" y="159"/>
      <point x="423" y="162" type="curve" smooth="yes"/>
      <point x="560" y="219" type="line"/>
      <point x="564" y="221"/>
      <point x="568" y="218"/>
      <point x="568" y="214" type="curve" smooth="yes"/>
      <point x="568" y="127" type="line" smooth="yes"/>
      <point x="568" y="113"/>
      <point x="561" y="99"/>
      <point x="552" y="93" type="curve"/>
      <point x="526" y="73"/>
      <point x="501" y="60"/>
    </contour>
  </outline>
</glyph>
<glyph name="C" format="2">
  <advance width="735"/>
  <unicode hex="0043"/>
  <anchor x="410" y="-50" name="bottom"/>
  <anchor x="412" y="690" name="topcase"/>
  <outline>
    <contour>
      <point x="400" y="-12" type="curve" smooth="yes"/>
      <point x="438" y="-12"/>
      <point x="489" y="-2"/>
      <point x="535" y="8" type="curve" smooth="yes"/>
      <point x="579" y="17"/>
      <point x="616" y="25"/>
      <point x="644" y="25" type="curve" smooth="yes"/>
      <point x="654" y="25" type="line"/>
      <point x="654" y="78"/>
      <point x="667" y="141"/>
      <point x="680" y="205" type="curve"/>
      <point x="660" y="205" type="line"/>
      <point x="598" y="33"/>
      <point x="458" y="12"/>
      <point x="401" y="12" type="curve" smooth="yes"/>
      <point x="252" y="12"/>
      <point x="143" y="152"/>
      <point x="143" y="339" type="curve" smooth="yes"/>
      <point x="143" y="525"/>
      <point x="262" y="656"/>
      <point x="400" y="656" type="curve" smooth="yes"/>
      <point x="532" y="656"/>
      <point x="624" y="552"/>
      <point x="657" y="468" type="curve"/>
      <point x="677" y="468" type="line"/>
      <point x="655" y="556"/>
      <point x="659" y="608"/>
      <point x="664" y="640" type="curve"/>
      <point x="662" y="642" type="line"/>
      <point x="649" y="640"/>
      <point x="639" y="637"/>
      <point x="625" y="637" type="curve" smooth="yes"/>
      <point x="600" y="637"/>
      <point x="578" y="645"/>
      <point x="550" y="655" type="curve" smooth="yes"/>
      <point x="514" y="667"/>
      <point x="469" y="681"/>
      <point x="396" y="681" type="curve" smooth="yes"/>
      <point x="213" y="681"/>
      <point x="45" y="543"/>
      <point x="45" y="337" type="curve" smooth="yes"/>
      <point x="45" y="141"/>
      <point x="189" y="-12"/>
    </contour>
  </outline>
</glyph>
<glyph name="E" format="2">
  <advance width="685"/>
  <unicode hex="0045"/>
  <anchor x="538" y="-51" name="ogonek"/>
  <anchor x="368" y="690" name="topcase"/>
  <outline>
    <contour>
      <point x="40" y="0" type="line"/>
      <point x="619" y="0" type="line"/>
      <point x="620" y="52"/>
      <point x="628" y="118"/>
      <point x="645" y="180" type="curve"/>
      <point x="626" y="180" type="line"/>
      <point x="600" y="129" type="line" smooth="yes"/>
      <point x="576" y="82"/>
      <point x="508" y="25"/>
      <point x="426" y="25" type="curve" smooth="yes"/>
      <point x="334" y="25" type="line" smooth="yes"/>
      <point x="270" y="25"/>
      <point x="256" y="41"/>
      <point x="256" y="90" type="curve" smooth="yes"/>
      <point x="256" y="341" type="line"/>
      <point x="415" y="341" type="line" smooth="yes"/>
      <point x="484" y="341"/>
      <point x="499" y="319"/>
      <point x="510" y="263" type="curve" smooth="yes"/>
      <point x="519" y="216" type="line"/>
      <point x="537" y="216" type="line"/>
      <point x="537" y="494" type="line"/>
      <point x="519" y="494" type="line"/>
      <point x="510" y="447" type="line" smooth="yes"/>
      <point x="499" y="391"/>
      <point x="484" y="369"/>
      <point x="415" y="369" type="curve" smooth="yes"/>
      <point x="256" y="369" type="line"/>
      <point x="256" y="649" type="line"/>
      <point x="430" y="649" type="line" smooth="yes"/>
      <point x="532" y="649"/>
      <point x="569" y="583"/>
      <point x="599" y="496" type="curve"/>
      <point x="619" y="496" type="line"/>
      <point x="615" y="524"/>
      <point x="603" y="568"/>
      <point x="603" y="617" type="curve" smooth="yes"/>
      <point x="603" y="635"/>
      <point x="605" y="654"/>
      <point x="609" y="673" type="curve"/>
      <point x="40" y="673" type="line"/>
      <point x="40" y="655" type="line"/>
      <point x="101" y="644" type="line" smooth="yes"/>
      <point x="156" y="634"/>
      <point x="165" y="627"/>
      <point x="165" y="585" type="curve" smooth="yes"/>
      <point x="165" y="88" type="line" smooth="yes"/>
      <point x="165" y="46"/>
      <point x="156" y="39"/>
      <point x="101" y="29" type="curve" smooth="yes"/>
      <point x="40" y="18" type="line"/>
    </contour>
  </outline>
</glyph>
<glyph name="F" format="2">
  <advance width="644"/>
  <unicode hex="0046"/>
  <guideline x="239" y="369" angle="0"/>
  <outline>
    <contour>
      <point x="40" y="0" type="line"/>
      <point x="385" y="0" type="line"/>
      <point x="385" y="18" type="line"/>
      <point x="319" y="29" type="line" smooth="yes"/>
      <point x="264" y="38"/>
      <point x="255" y="46"/>
      <point x="255" y="88" type="curve" smooth="yes"/>
      <point x="255" y="321" type="line"/>
      <point x="389" y="321" type="line" smooth="yes"/>
      <point x="447" y="321"/>
      <point x="495" y="321"/>
      <point x="510" y="241" type="curve" smooth="yes"/>
      <point x="518" y="197" type="line"/>
      <point x="536" y="198" type="line"/>
      <point x="536" y="474" type="line"/>
      <point x="518" y="474" type="line"/>
      <point x="510" y="427" type="line" smooth="yes"/>
      <point x="497" y="349"/>
      <point x="451" y="349"/>
      <point x="390" y="349" type="curve" smooth="yes"/>
      <point x="256" y="349" type="line"/>
      <point x="256" y="649" type="line"/>
      <point x="443" y="649" type="line" smooth="yes"/>
      <point x="534" y="649"/>
      <point x="583" y="554"/>
      <point x="599" y="496" type="curve"/>
      <point x="619" y="496" type="line"/>
      <point x="615" y="524"/>
      <point x="603" y="568"/>
      <point x="603" y="617" type="curve" smooth="yes"/>
      <point x="603" y="635"/>
      <point x="605" y="654"/>
      <point x="609" y="673" type="curve"/>
      <point x="40" y="673" type="line"/>
      <point x="40" y="655" type="line"/>
      <point x="101" y="644" type="line" smooth="yes"/>
      <point x="156" y="634"/>
      <point x="165" y="627"/>
      <point x="165" y="585" type="curve" smooth="yes"/>
      <point x="165" y="88" type="line" smooth="yes"/>
      <point x="165" y="46"/>
      <point x="156" y="39"/>
      <point x="101" y="29" type="curve" smooth="yes"/>
      <point x="40" y="18" type="line"/>
    </contour>
  </outline>
</glyph>
<glyph name="G" format="2">
  <advance width="807"/>
  <unicode hex="0047"/>
  <anchor x="410" y="690" name="topcase"/>
  <outline>
    <contour>
      <point x="400" y="-12" type="curve" smooth="yes"/>
      <point x="447" y="-12"/>
      <point x="493" y="-2"/>
      <point x="534" y="8" type="curve" smooth="yes"/>
      <point x="571" y="17"/>
      <point x="604" y="26"/>
      <point x="625" y="26" type="curve" smooth="yes"/>
      <point x="640" y="26"/>
      <point x="656" y="25"/>
      <point x="666" y="22" type="curve"/>
      <point x="671" y="25" type="line"/>
      <point x="671" y="216" type="line" smooth="yes"/>
      <point x="671" y="258"/>
      <point x="680" y="265"/>
      <point x="735" y="275" type="curve" smooth="yes"/>
      <point x="787" y="284" type="line"/>
      <point x="787" y="302" type="line"/>
      <point x="451" y="302" type="line"/>
      <point x="451" y="284" type="line"/>
      <point x="512" y="273" type="line" smooth="yes"/>
      <point x="567" y="263"/>
      <point x="576" y="256"/>
      <point x="576" y="214" type="curve" smooth="yes"/>
      <point x="576" y="78" type="line"/>
      <point x="535" y="38"/>
      <point x="461" y="12"/>
      <point x="400" y="12" type="curve" smooth="yes"/>
      <point x="221" y="12"/>
      <point x="143" y="194"/>
      <point x="143" y="339" type="curve" smooth="yes"/>
      <point x="143" y="504"/>
      <point x="257" y="656"/>
      <point x="403" y="656" type="curve" smooth="yes"/>
      <point x="538" y="656"/>
      <point x="640" y="553"/>
      <point x="672" y="468" type="curve"/>
      <point x="692" y="468" type="line"/>
      <point x="685" y="482"/>
      <point x="675" y="547"/>
      <point x="675" y="594" type="curve" smooth="yes"/>
      <point x="675" y="608"/>
      <point x="677" y="632"/>
      <point x="680" y="641" type="curve"/>
      <point x="678" y="643" type="line"/>
      <point x="673" y="641"/>
      <point x="656" y="637"/>
      <point x="640" y="637" type="curve" smooth="yes"/>
      <point x="581" y="637"/>
      <point x="532" y="681"/>
      <point x="403" y="681" type="curve" smooth="yes"/>
      <point x="220" y="681"/>
      <point x="45" y="540"/>
      <point x="45" y="337" type="curve" smooth="yes"/>
      <point x="45" y="139"/>
      <point x="192" y="-12"/>
    </contour>
  </outline>
</glyph>
<glyph name="I" format="2">
  <advance width="420"/>
  <unicode hex="0049"/>
  <anchor x="202" y="-51" name="ogonek"/>
  <anchor x="210" y="690" name="topcase"/>
  <outline>
    <contour>
      <point x="40" y="0" type="line"/>
      <point x="380" y="0" type="line"/>
      <point x="380" y="18" type="line"/>
      <point x="319" y="29" type="line" smooth="yes"/>
      <point x="264" y="39"/>
      <point x="255" y="46"/>
      <point x="255" y="88" type="curve" smooth="yes"/>
      <point x="255" y="585" type="line" smooth="yes"/>
      <point x="255" y="627"/>
      <point x="264" y="634"/>
      <point x="319" y="644" type="curve" smooth="yes"/>
      <point x="380" y="655" type="line"/>
      <point x="380" y="673" type="line"/>
      <point x="40" y="673" type="line"/>
      <point x="40" y="655" type="line"/>
      <point x="101" y="644" type="line" smooth="yes"/>
      <point x="156" y="634"/>
      <point x="165" y="627"/>
      <point x="165" y="585" type="curve" smooth="yes"/>
      <point x="165" y="88" type="line" smooth="yes"/>
      <point x="165" y="46"/>
      <point x="156" y="39"/>
      <point x="101" y="29" type="curve" smooth="yes"/>
      <point x="40" y="18" type="line"/>
    </contour>
  </outline>
</glyph>
<glyph name="K" format="2">
  <advance width="799"/>
  <unicode hex="004B"/>
  <outline>
    <contour>
      <point x="40" y="0" type="line"/>
      <point x="380" y="0" type="line"/>
      <point x="380" y="18" type="line"/>
      <point x="319" y="29" type="line" smooth="yes"/>
      <point x="264" y="39"/>
      <point x="255" y="46"/>
      <point x="255" y="88" type="curve" smooth="yes"/>
      <point x="255" y="272" type="line"/>
      <point x="322" y="333" type="line"/>
      <point x="582" y="51" type="line" smooth="yes"/>
      <point x="617" y="13"/>
      <point x="650" y="0"/>
      <point x="706" y="0" type="curve" smooth="yes"/>
      <point x="784" y="0" type="line"/>
      <point x="784" y="18" type="line"/>
      <point x="751" y="24"/>
      <point x="733" y="30"/>
      <point x="710" y="55" type="curve" smooth="yes"/>
      <point x="399" y="404" type="line"/>
      <point x="584" y="564" type="line" smooth="yes"/>
      <point x="644" y="616"/>
      <point x="671" y="634"/>
      <point x="722" y="645" type="curve" smooth="yes"/>
      <point x="768" y="655" type="line"/>
      <point x="768" y="673" type="line"/>
      <point x="507" y="673" type="line"/>
      <point x="507" y="655" type="line"/>
      <point x="548" y="647" type="line" smooth="yes"/>
      <point x="602" y="636"/>
      <point x="608" y="623"/>
      <point x="567" y="588" type="curve" smooth="yes"/>
      <point x="255" y="311" type="line"/>
      <point x="255" y="585" type="line" smooth="yes"/>
      <point x="255" y="627"/>
      <point x="264" y="634"/>
      <point x="319" y="644" type="curve" smooth="yes"/>
      <point x="380" y="655" type="line"/>
      <point x="380" y="673" type="line"/>
      <point x="40" y="673" type="line"/>
      <point x="40" y="655" type="line"/>
      <point x="101" y="644" type="line" smooth="yes"/>
      <point x="156" y="634"/>
      <point x="165" y="627"/>
      <point x="165" y="585" type="curve" smooth="yes"/>
      <point x="165" y="88" type="line" smooth="yes"/>
      <point x="165" y="46"/>
      <point x="156" y="39"/>
      <point x="101" y="29" type="curve" smooth="yes"/>
      <point x="40" y="18" type="line"/>
    </contour>
  </outline>
</glyph>
<glyph name="L" format="2">
  <advance width="704"/>
  <unicode hex="004C"/>
  <anchor x="216" y="690" name="topcase"/>
  <outline>
    <contour>
      <point x="40" y="0" type="line"/>
      <point x="668" y="0" type="line"/>
      <point x="669" y="52"/>
      <point x="677" y="118"/>
      <point x="694" y="180" type="curve"/>
      <point x="675" y="180" type="line"/>
      <point x="649" y="129" type="line" smooth="yes"/>
      <point x="625" y="82"/>
      <point x="557" y="25"/>
      <point x="475" y="25" type="curve" smooth="yes"/>
      <point x="334" y="25" type="line" smooth="yes"/>
      <point x="270" y="25"/>
      <point x="255" y="41"/>
      <point x="255" y="90" type="curve" smooth="yes"/>
      <point x="255" y="585" type="line" smooth="yes"/>
      <point x="255" y="627"/>
      <point x="264" y="634"/>
      <point x="319" y="644" type="curve" smooth="yes"/>
      <point x="380" y="655" type="line"/>
      <point x="380" y="673" type="line"/>
      <point x="40" y="673" type="line"/>
      <point x="40" y="655" type="line"/>
      <point x="101" y="644" type="line" smooth="yes"/>
      <point x="156" y="634"/>
      <point x="165" y="627"/>
      <point x="165" y="585" type="curve" smooth="yes"/>
      <point x="165" y="88" type="line" smooth="yes"/>
      <point x="165" y="46"/>
      <point x="156" y="39"/>
      <point x="101" y="29" type="curve" smooth="yes"/>
      <point x="40" y="18" type="line"/>
    </contour>
  </outline>
</glyph>
<glyph name="O" format="2">
  <advance width="804"/>
  <unicode hex="004F"/>
  <anchor x="401" y="690" name="topcase"/>
  <outline>
    <contour>
      <point x="401" y="-12" type="curve" smooth="yes"/>
      <point x="609" y="-12"/>
      <point x="759" y="139"/>
      <point x="759" y="340" type="curve" smooth="yes"/>
      <point x="759" y="529"/>
      <point x="609" y="683"/>
      <point x="401" y="683" type="curve" smooth="yes"/>
      <point x="195" y="683"/>
      <point x="45" y="531"/>
      <point x="45" y="327" type="curve" smooth="yes"/>
      <point x="45" y="140"/>
      <point x="195" y="-12"/>
    </contour>
    <contour>
      <point x="401" y="15" type="curve" smooth="yes"/>
      <point x="253" y="15"/>
      <point x="145" y="156"/>
      <point x="145" y="327" type="curve" smooth="yes"/>
      <point x="145" y="515"/>
      <point x="253" y="654"/>
      <point x="401" y="654" type="curve" smooth="yes"/>
      <point x="552" y="654"/>
      <point x="659" y="513"/>
      <point x="659" y="339" type="curve" smooth="yes"/>
      <point x="659" y="155"/>
      <point x="552" y="15"/>
    </contour>
  </outline>
</glyph>
<glyph name="S" format="2">
  <advance width="567"/>
  <unicode hex="0053"/>
  <anchor x="286" y="690" name="topcase"/>
  <outline>
    <contour>
      <point x="288" y="-8" type="curve" smooth="yes"/>
      <point x="424" y="-8"/>
      <point x="517" y="78"/>
      <point x="517" y="188" type="curve" smooth="yes"/>
      <point x="517" y="287"/>
      <point x="468" y="337"/>
      <point x="320" y="388" type="curve" smooth="yes"/>
      <point x="178" y="437"/>
      <point x="150" y="462"/>
      <point x="150" y="539" type="curve" smooth="yes"/>
      <point x="150" y="616"/>
      <point x="211" y="660"/>
      <point x="277" y="660" type="curve" smooth="yes"/>
      <point x="381" y="660"/>
      <point x="421" y="576"/>
      <point x="462" y="472" type="curve"/>
      <point x="484" y="472" type="line"/>
      <point x="474" y="511"/>
      <point x="467" y="552"/>
      <point x="467" y="594" type="curve" smooth="yes"/>
      <point x="467" y="610"/>
      <point x="468" y="626"/>
      <point x="470" y="643" type="curve"/>
      <point x="466" y="646" type="line"/>
      <point x="441" y="641" type="line"/>
      <point x="422" y="641"/>
      <point x="404" y="650"/>
      <point x="384" y="660" type="curve" smooth="yes"/>
      <point x="359" y="672"/>
      <point x="331" y="685"/>
      <point x="290" y="685" type="curve" smooth="yes"/>
      <point x="147" y="685"/>
      <point x="75" y="595"/>
      <point x="75" y="494" type="curve" smooth="yes"/>
      <point x="75" y="391"/>
      <point x="142" y="344"/>
      <point x="261" y="303" type="curve" smooth="yes"/>
      <point x="406" y="252"/>
      <point x="443" y="222"/>
      <point x="443" y="145" type="curve" smooth="yes"/>
      <point x="443" y="69"/>
      <point x="380" y="16"/>
      <point x="294" y="16" type="curve" smooth="yes"/>
      <point x="166" y="16"/>
      <point x="95" y="111"/>
      <point x="79" y="235" type="curve"/>
      <point x="50" y="235" type="line"/>
      <point x="66" y="172"/>
      <point x="65" y="111"/>
      <point x="55" y="53" type="curve"/>
      <point x="100" y="29"/>
      <point x="179" y="-8"/>
    </contour>
  </outline>
</glyph>
<glyph name="T" format="2">
  <advance width="694"/>
  <unicode hex="0054"/>
  <anchor x="347" y="690" name="topcase"/>
  <outline>
    <contour>
      <point x="177" y="0" type="line"/>
      <point x="517" y="0" type="line"/>
      <point x="517" y="18" type="line"/>
      <point x="456" y="29" type="line" smooth="yes"/>
      <point x="401" y="39"/>
      <point x="392" y="46"/>
      <point x="392" y="88" type="curve" smooth="yes"/>
      <point x="392" y="649" type="line"/>
      <point x="487" y="649" type="line"/>
      <point x="585" y="649"/>
      <point x="633" y="581"/>
      <point x="658" y="496" type="curve"/>
      <point x="679" y="496" type="line"/>
      <point x="665" y="573"/>
      <point x="660" y="617"/>
      <point x="668" y="673" type="curve"/>
      <point x="25" y="673" type="line"/>
      <point x="33" y="617"/>
      <point x="29" y="573"/>
      <point x="15" y="496" type="curve"/>
      <point x="36" y="496" type="line"/>
      <point x="61" y="581"/>
      <point x="109" y="649"/>
      <point x="207" y="649" type="curve" smooth="yes"/>
      <point x="302" y="649" type="line"/>
      <point x="302" y="88" type="line" smooth="yes"/>
      <point x="302" y="46"/>
      <point x="293" y="39"/>
      <point x="238" y="29" type="curve" smooth="yes"/>
      <point x="177" y="18" type="line"/>
    </contour>
  </outline>
</glyph>
<glyph name="U" format="2">
  <advance width="792"/>
  <unicode hex="0055"/>
  <anchor x="436" y="-52" name="ogonek"/>
  <anchor x="425" y="690" name="topcase"/>
  <outline>
    <contour>
      <point x="396" y="-12" type="curve" smooth="yes"/>
      <point x="494" y="-12"/>
      <point x="540" y="28"/>
      <point x="573" y="63" type="curve" smooth="yes"/>
      <point x="598" y="88"/>
      <point x="615" y="110"/>
      <point x="642" y="110" type="curve"/>
      <point x="642" y="581" type="line" smooth="yes"/>
      <point x="642" y="623"/>
      <point x="651" y="634"/>
      <point x="706" y="644" type="curve" smooth="yes"/>
      <point x="767" y="655" type="line"/>
      <point x="767" y="673" type="line"/>
      <point x="488" y="673" type="line"/>
      <point x="488" y="655" type="line"/>
      <point x="549" y="644" type="line" smooth="yes"/>
      <point x="604" y="634"/>
      <point x="613" y="620"/>
      <point x="613" y="578" type="curve" smooth="yes"/>
      <point x="613" y="236" type="line" smooth="yes"/>
      <point x="613" y="112"/>
      <point x="546" y="37"/>
      <point x="425" y="37" type="curve" smooth="yes"/>
      <point x="313" y="37"/>
      <point x="240" y="107"/>
      <point x="240" y="232" type="curve" smooth="yes"/>
      <point x="240" y="585" type="line" smooth="yes"/>
      <point x="240" y="627"/>
      <point x="249" y="634"/>
      <point x="304" y="644" type="curve" smooth="yes"/>
      <point x="365" y="655" type="line"/>
      <point x="365" y="673" type="line"/>
      <point x="25" y="673" type="line"/>
      <point x="25" y="655" type="line"/>
      <point x="86" y="644" type="line" smooth="yes"/>
      <point x="141" y="634"/>
      <point x="150" y="627"/>
      <point x="150" y="585" type="curve" smooth="yes"/>
      <point x="150" y="231" type="line" smooth="yes"/>
      <point x="150" y="80"/>
      <point x="256" y="-12"/>
    </contour>
  </outline>
</glyph>
<glyph name="V" format="2">
  <advance width="760"/>
  <unicode hex="0056"/>
  <outline>
    <contour>
      <point x="387" y="-15" type="line"/>
      <point x="395" y="-15" type="line"/>
      <point x="631" y="576" type="line" smooth="yes"/>
      <point x="652" y="628"/>
      <point x="673" y="635"/>
      <point x="713" y="645" type="curve" smooth="yes"/>
      <point x="755" y="655" type="line"/>
      <point x="755" y="673" type="line"/>
      <point x="505" y="673" type="line"/>
      <point x="505" y="655" type="line"/>
      <point x="551" y="646" type="line" smooth="yes"/>
      <point x="593" y="638"/>
      <point x="606" y="631"/>
      <point x="606" y="613" type="curve" smooth="yes"/>
      <point x="606" y="603"/>
      <point x="600" y="591"/>
      <point x="594" y="575" type="curve" smooth="yes"/>
      <point x="412" y="121" type="line"/>
      <point x="424" y="121" type="line"/>
      <point x="223" y="571" type="line" smooth="yes"/>
      <point x="217" y="585"/>
      <point x="210" y="605"/>
      <point x="210" y="616" type="curve" smooth="yes"/>
      <point x="210" y="636"/>
      <point x="240" y="641"/>
      <point x="273" y="647" type="curve" smooth="yes"/>
      <point x="320" y="655" type="line"/>
      <point x="320" y="673" type="line"/>
      <point x="5" y="673" type="line"/>
      <point x="5" y="655" type="line"/>
      <point x="47" y="647" type="line" smooth="yes"/>
      <point x="97" y="637"/>
      <point x="111" y="623"/>
      <point x="131" y="577" type="curve" smooth="yes"/>
    </contour>
  </outline>
</glyph>
<glyph name="bracketleft" format="2">
  <advance width="295"/>
  <unicode hex="005B"/>
  <outline>
    <contour>
      <point x="75" y="-215" type="line"/>
      <point x="265" y="-215" type="line"/>
      <point x="265" y="-185" type="line"/>
      <point x="135" y="-185" type="line"/>
      <point x="135" y="714" type="line"/>
      <point x="265" y="714" type="line"/>
      <point x="265" y="744" type="line"/>
      <point x="75" y="744" type="line"/>
    </contour>
  </outline>
</glyph>
<glyph name="bracketright" format="2">
  <advance width="295"/>
  <unicode hex="005D"/>
  <outline>
    <contour>
      <point x="220" y="-215" type="line"/>
      <point x="220" y="744" type="line"/>
      <point x="30" y="744" type="line"/>
      <point x="30" y="714" type="line"/>
      <point x="160" y="714" type="line"/>
      <point x="160" y="-185" type="line"/>
      <point x="30" y="-185" type="line"/>
      <point x="30" y="-215" type="line"/>
    </contour>
  </outline>
</glyph>
<glyph name="asciicircum" format="2">
  <advance width="516"/>
  <unicode hex="005E"/>
  <guideline x="288" y="457" angle="90"/>
  <outline>
    <contour>
      <point x="40" y="325" type="line"/>
      <point x="98" y="325" type="line"/>
      <point x="269" y="604" type="line"/>
      <point x="247" y="604" type="line"/>
      <point x="418" y="325" type="line"/>
      <point x="476" y="325" type="line"/>
      <point x="282" y="651" type="line"/>
      <point x="234" y="651" type="line"/>
    </contour>
  </outline>
</glyph>
<glyph name="b" format="2">
  <advance width="544"/>
  <unicode hex="0062"/>
  <outline>
    <contour>
      <point x="104" y="-12" type="line"/>
      <point x="118" y="12"/>
      <point x="132" y="30"/>
      <point x="151" y="46" type="curve"/>
      <point x="182" y="15"/>
      <point x="235" y="-8"/>
      <point x="286" y="-8" type="curve" smooth="yes"/>
      <point x="431" y="-8"/>
      <point x="499" y="109"/>
      <point x="499" y="222" type="curve" smooth="yes"/>
      <point x="499" y="333"/>
      <point x="432" y="434"/>
      <point x="289" y="434" type="curve" smooth="yes"/>
      <point x="276" y="434"/>
      <point x="261" y="427"/>
      <point x="252" y="423" type="curve" smooth="yes"/>
      <point x="161" y="377" type="line"/>
      <point x="161" y="602" type="line" smooth="yes"/>
      <point x="161" y="648"/>
      <point x="162" y="676"/>
      <point x="173" y="706" type="curve"/>
      <point x="164" y="712" type="line"/>
      <point x="120" y="689"/>
      <point x="73" y="678"/>
      <point x="25" y="668" type="curve"/>
      <point x="25" y="658" type="line"/>
      <point x="71" y="646" type="line" smooth="yes"/>
      <point x="89" y="641"/>
      <point x="95" y="632"/>
      <point x="95" y="606" type="curve" smooth="yes"/>
      <point x="95" y="-10" type="line"/>
    </contour>
    <contour>
      <point x="288" y="18" type="curve" smooth="yes"/>
      <point x="221" y="18"/>
      <point x="161" y="78"/>
      <point x="161" y="153" type="curve" smooth="yes"/>
      <point x="161" y="294" type="line" smooth="yes"/>
      <point x="161" y="342"/>
      <point x="201" y="383"/>
      <point x="270" y="383" type="curve" smooth="yes"/>
      <point x="380" y="383"/>
      <point x="429" y="290"/>
      <point x="429" y="190" type="curve" smooth="yes"/>
      <point x="429" y="100"/>
      <point x="385" y="18"/>
    </contour>
  </outline>
</glyph>
<glyph name="c" format="2">
  <advance width="446"/>
  <unicode hex="0063"/>
  <anchor x="242" y="-50" name="bottom"/>
  <anchor x="254" y="470" name="top"/>
  <outline>
    <contour>
      <point x="242" y="-8" type="curve" smooth="yes"/>
      <point x="294" y="-8"/>
      <point x="362" y="22"/>
      <point x="411" y="93" type="curve"/>
      <point x="399" y="103" type="line"/>
      <point x="357" y="68"/>
      <point x="311" y="50"/>
      <point x="268" y="50" type="curve" smooth="yes"/>
      <point x="184" y="50"/>
      <point x="116" y="112"/>
      <point x="116" y="229" type="curve" smooth="yes"/>
      <point x="116" y="362"/>
      <point x="184" y="408"/>
      <point x="247" y="408" type="curve" smooth="yes"/>
      <point x="291" y="408"/>
      <point x="324" y="390"/>
      <point x="324" y="361" type="curve" smooth="yes"/>
      <point x="324" y="353"/>
      <point x="320" y="347"/>
      <point x="317" y="340" type="curve" smooth="yes"/>
      <point x="313" y="332"/>
      <point x="310" y="322"/>
      <point x="310" y="312" type="curve" smooth="yes"/>
      <point x="310" y="284"/>
      <point x="335" y="267"/>
      <point x="360" y="267" type="curve" smooth="yes"/>
      <point x="384" y="267"/>
      <point x="409" y="284"/>
      <point x="409" y="322" type="curve" smooth="yes"/>
      <point x="409" y="383"/>
      <point x="355" y="434"/>
      <point x="254" y="434" type="curve" smooth="yes"/>
      <point x="151" y="434"/>
      <point x="45" y="342"/>
      <point x="45" y="203" type="curve" smooth="yes"/>
      <point x="45" y="83"/>
      <point x="126" y="-8"/>
    </contour>
  </outline>
</glyph>
<glyph name="e" format="2">
  <advance width="449"/>
  <unicode hex="0065"/>
  <anchor x="253" y="-51" name="bottom"/>
  <anchor x="250" y="-51" name="ogonek"/>
  <anchor x="251" y="470" name="top"/>
  <outline>
    <contour>
      <point x="244" y="-8" type="curve" smooth="yes"/>
      <point x="296" y="-8"/>
      <point x="360" y="22"/>
      <point x="409" y="93" type="curve"/>
      <point x="397" y="103" type="line"/>
      <point x="355" y="68"/>
      <point x="313" y="50"/>
      <point x="270" y="50" type="curve" smooth="yes"/>
      <point x="186" y="50"/>
      <point x="116" y="112"/>
      <point x="116" y="229" type="curve" smooth="yes"/>
      <point x="116" y="336"/>
      <point x="166" y="408"/>
      <point x="239" y="408" type="curve" smooth="yes"/>
      <point x="298" y="408"/>
      <point x="324" y="358"/>
      <point x="324" y="295" type="curve" smooth="yes"/>
      <point x="324" y="284"/>
      <point x="319" y="277"/>
      <point x="305" y="277" type="curve" smooth="yes"/>
      <point x="100" y="271" type="line"/>
      <point x="100" y="248" type="line"/>
      <point x="389" y="248" type="line" smooth="yes"/>
      <point x="401" y="248"/>
      <point x="405" y="256"/>
      <point x="405" y="264" type="curve" smooth="yes"/>
      <point x="405" y="359"/>
      <point x="343" y="434"/>
      <point x="250" y="434" type="curve" smooth="yes"/>
      <point x="133" y="434"/>
      <point x="45" y="340"/>
      <point x="45" y="207" type="curve" smooth="yes"/>
      <point x="45" y="87"/>
      <point x="128" y="-8"/>
    </contour>
  </outline>
</glyph>
<glyph name="f" format="2">
  <advance width="320"/>
  <unicode hex="0066"/>
  <outline>
    <contour>
      <point x="35" y="0" type="line"/>
      <point x="249" y="0" type="line"/>
      <point x="249" y="15" type="line"/>
      <point x="196" y="26" type="line"/>
      <point x="176" y="31"/>
      <point x="170" y="39"/>
      <point x="170" y="58" type="curve" smooth="yes"/>
      <point x="170" y="398" type="line"/>
      <point x="294" y="398" type="line"/>
      <point x="304" y="426" type="line"/>
      <point x="170" y="426" type="line"/>
      <point x="170" y="492" type="line" smooth="yes"/>
      <point x="170" y="597"/>
      <point x="192" y="685"/>
      <point x="279" y="685" type="curve" smooth="yes"/>
      <point x="298" y="685"/>
      <point x="312" y="676"/>
      <point x="312" y="661" type="curve" smooth="yes"/>
      <point x="312" y="656"/>
      <point x="310" y="652"/>
      <point x="309" y="648" type="curve" smooth="yes"/>
      <point x="307" y="644"/>
      <point x="306" y="640"/>
      <point x="306" y="635" type="curve" smooth="yes"/>
      <point x="306" y="614"/>
      <point x="322" y="597"/>
      <point x="352" y="597" type="curve" smooth="yes"/>
      <point x="379" y="597"/>
      <point x="395" y="616"/>
      <point x="395" y="641" type="curve" smooth="yes"/>
      <point x="395" y="681"/>
      <point x="348" y="711"/>
      <point x="285" y="711" type="curve" smooth="yes"/>
      <point x="166" y="711"/>
      <point x="103" y="617"/>
      <point x="103" y="498" type="curve" smooth="yes"/>
      <point x="103" y="426" type="line"/>
      <point x="36" y="426" type="line"/>
      <point x="36" y="398" type="line"/>
      <point x="103" y="398" type="line"/>
      <point x="103" y="58" type="line" smooth="yes"/>
      <point x="103" y="39"/>
      <point x="97" y="31"/>
      <point x="77" y="26" type="curve" smooth="yes"/>
      <point x="35" y="15" type="line"/>
    </contour>
  </outline>
</glyph>
<glyph name="h" format="2">
  <advance width="534"/>
  <unicode hex="0068"/>
  <guideline x="35" y="549" angle="90"/>
  <outline>
    <contour>
      <point x="316" y="0" type="line"/>
      <point x="519" y="0" type="line"/>
      <point x="519" y="15" type="line"/>
      <point x="477" y="26" type="line" smooth="yes"/>
      <point x="457" y="31"/>
      <point x="451" y="39"/>
      <point x="451" y="58" type="curve" smooth="yes"/>
      <point x="451" y="295" type="line" smooth="yes"/>
      <point x="451" y="385"/>
      <point x="396" y="434"/>
      <point x="302" y="434" type="curve" smooth="yes"/>
      <point x="298" y="434"/>
      <point x="292" y="432"/>
      <point x="286" y="429" type="curve" smooth="yes"/>
      <point x="253" y="412"/>
      <point x="201" y="384"/>
      <point x="169" y="371" type="curve"/>
      <point x="144" y="371" type="line"/>
      <point x="171" y="272" type="line"/>
      <point x="171" y="331"/>
      <point x="216" y="381"/>
      <point x="281" y="381" type="curve" smooth="yes"/>
      <point x="347" y="381"/>
      <point x="384" y="346"/>
      <point x="384" y="282" type="curve" smooth="yes"/>
      <point x="384" y="58" type="line" smooth="yes"/>
      <point x="384" y="39"/>
      <point x="378" y="31"/>
      <point x="358" y="26" type="curve" smooth="yes"/>
      <point x="316" y="15" type="line"/>
    </contour>
    <contour>
      <point x="35" y="0" type="line"/>
      <point x="238" y="0" type="line"/>
      <point x="238" y="15" type="line"/>
      <point x="196" y="26" type="line" smooth="yes"/>
      <point x="176" y="31"/>
      <point x="170" y="39"/>
      <point x="170" y="58" type="curve" smooth="yes"/>
      <point x="172" y="602" type="line" smooth="yes"/>
      <point x="172" y="648"/>
      <point x="173" y="676"/>
      <point x="184" y="706" type="curve"/>
      <point x="175" y="712" type="line"/>
      <point x="131" y="689"/>
      <point x="83" y="678"/>
      <point x="35" y="668" type="curve"/>
      <point x="35" y="658" type="line"/>
      <point x="81" y="646" type="line" smooth="yes"/>
      <point x="99" y="641"/>
      <point x="105" y="632"/>
      <point x="105" y="606" type="curve" smooth="yes"/>
      <point x="103" y="58" type="line" smooth="yes"/>
      <point x="103" y="39"/>
      <point x="97" y="31"/>
      <point x="77" y="26" type="curve" smooth="yes"/>
      <point x="35" y="15" type="line"/>
    </contour>
  </outline>
</glyph>
<glyph name="l" format="2">
  <advance width="271"/>
  <unicode hex="006C"/>
  <outline>
    <contour>
      <point x="35" y="0" type="line"/>
      <point x="238" y="0" type="line"/>
      <point x="238" y="15" type="line"/>
      <point x="196" y="26" type="line" smooth="yes"/>
      <point x="176" y="31"/>
      <point x="170" y="39"/>
      <point x="170" y="58" type="curve" smooth="yes"/>
      <point x="172" y="602" type="line" smooth="yes"/>
      <point x="172" y="648"/>
      <point x="173" y="676"/>
      <point x="184" y="706" type="curve"/>
      <point x="175" y="712" type="line"/>
      <point x="131" y="689"/>
      <point x="83" y="678"/>
      <point x="35" y="668" type="curve"/>
      <point x="35" y="658" type="line"/>
      <point x="81" y="646" type="line" smooth="yes"/>
      <point x="99" y="641"/>
      <point x="105" y="632"/>
      <point x="105" y="606" type="curve" smooth="yes"/>
      <point x="103" y="58" type="line" smooth="yes"/>
      <point x="103" y="39"/>
      <point x="97" y="31"/>
      <point x="77" y="26" type="curve" smooth="yes"/>
      <point x="35" y="15" type="line"/>
    </contour>
  </outline>
</glyph>
<glyph name="m" format="2">
  <advance width="789"/>
  <unicode hex="006D"/>
  <outline>
    <contour>
      <point x="571" y="0" type="line"/>
      <point x="774" y="0" type="line"/>
      <point x="774" y="15" type="line"/>
      <point x="732" y="26" type="line" smooth="yes"/>
      <point x="712" y="31"/>
      <point x="706" y="39"/>
      <point x="706" y="58" type="curve" smooth="yes"/>
      <point x="706" y="295" type="line" smooth="yes"/>
      <point x="706" y="385"/>
      <point x="654" y="434"/>
      <point x="564" y="434" type="curve" smooth="yes"/>
      <point x="560" y="434"/>
      <point x="555" y="433"/>
      <point x="549" y="429" type="curve" smooth="yes"/>
      <point x="519" y="410"/>
      <point x="467" y="384"/>
      <point x="436" y="371" type="curve"/>
      <point x="411" y="371" type="line"/>
      <point x="438" y="272" type="line"/>
      <point x="438" y="331"/>
      <point x="480" y="381"/>
      <point x="542" y="381" type="curve" smooth="yes"/>
      <point x="604" y="381"/>
      <point x="639" y="346"/>
      <point x="639" y="282" type="curve" smooth="yes"/>
      <point x="639" y="58" type="line" smooth="yes"/>
      <point x="639" y="39"/>
      <point x="633" y="31"/>
      <point x="613" y="26" type="curve" smooth="yes"/>
      <point x="571" y="15" type="line"/>
    </contour>
    <contour>
      <point x="35" y="0" type="line"/>
      <point x="238" y="0" type="line"/>
      <point x="238" y="15" type="line"/>
      <point x="196" y="26" type="line" smooth="yes"/>
      <point x="176" y="31"/>
      <point x="170" y="39"/>
      <point x="170" y="58" type="curve" smooth="yes"/>
      <point x="170" y="348" type="line"/>
      <point x="164" y="363" type="line"/>
      <point x="164" y="373" type="line" smooth="yes"/>
      <point x="164" y="392"/>
      <point x="169" y="414"/>
      <point x="176" y="431" type="curve"/>
      <point x="167" y="437" type="line"/>
      <point x="126" y="414"/>
      <point x="82" y="403"/>
      <point x="36" y="393" type="curve"/>
      <point x="36" y="383" type="line"/>
      <point x="79" y="371" type="line" smooth="yes"/>
      <point x="97" y="366"/>
      <point x="103" y="357"/>
      <point x="103" y="331" type="curve" smooth="yes"/>
      <point x="103" y="58" type="line" smooth="yes"/>
      <point x="103" y="39"/>
      <point x="97" y="31"/>
      <point x="77" y="26" type="curve" smooth="yes"/>
      <point x="35" y="15" type="line"/>
    </contour>
    <contour>
      <point x="303" y="0" type="line"/>
      <point x="506" y="0" type="line"/>
      <point x="506" y="15" type="line"/>
      <point x="464" y="26" type="line" smooth="yes"/>
      <point x="444" y="31"/>
      <point x="438" y="39"/>
      <point x="438" y="58" type="curve" smooth="yes"/>
      <point x="438" y="295" type="line" smooth="yes"/>
      <point x="438" y="385"/>
      <point x="386" y="434"/>
      <point x="296" y="434" type="curve" smooth="yes"/>
      <point x="292" y="434"/>
      <point x="287" y="433"/>
      <point x="281" y="429" type="curve" smooth="yes"/>
      <point x="251" y="410"/>
      <point x="199" y="384"/>
      <point x="168" y="371" type="curve"/>
      <point x="143" y="371" type="line"/>
      <point x="170" y="272" type="line"/>
      <point x="170" y="331"/>
      <point x="212" y="381"/>
      <point x="274" y="381" type="curve" smooth="yes"/>
      <point x="336" y="381"/>
      <point x="371" y="346"/>
      <point x="371" y="282" type="curve" smooth="yes"/>
      <point x="371" y="58" type="line" smooth="yes"/>
      <point x="371" y="39"/>
      <point x="365" y="31"/>
      <point x="345" y="26" type="curve" smooth="yes"/>
      <point x="303" y="15" type="line"/>
    </contour>
  </outline>
</glyph>
<glyph name="p" format="2">
  <advance width="541"/>
  <unicode hex="0070"/>
  <outline>
    <contour>
      <point x="25" y="-250" type="line"/>
      <point x="234" y="-250" type="line"/>
      <point x="234" y="-235" type="line"/>
      <point x="186" y="-224" type="line" smooth="yes"/>
      <point x="166" y="-219"/>
      <point x="160" y="-211"/>
      <point x="160" y="-192" type="curve" smooth="yes"/>
      <point x="160" y="25" type="line"/>
      <point x="185" y="7"/>
      <point x="232" y="-8"/>
      <point x="283" y="-8" type="curve" smooth="yes"/>
      <point x="428" y="-8"/>
      <point x="496" y="109"/>
      <point x="496" y="222" type="curve" smooth="yes"/>
      <point x="496" y="333"/>
      <point x="430" y="434"/>
      <point x="287" y="434" type="curve" smooth="yes"/>
      <point x="274" y="434"/>
      <point x="259" y="428"/>
      <point x="250" y="423" type="curve"/>
      <point x="156" y="376" type="line"/>
      <point x="154" y="376" type="line"/>
      <point x="154" y="395"/>
      <point x="159" y="415"/>
      <point x="166" y="431" type="curve"/>
      <point x="157" y="437" type="line"/>
      <point x="116" y="415"/>
      <point x="72" y="404"/>
      <point x="26" y="394" type="curve"/>
      <point x="26" y="384" type="line"/>
      <point x="69" y="372" type="line" smooth="yes"/>
      <point x="87" y="367"/>
      <point x="93" y="358"/>
      <point x="93" y="332" type="curve" smooth="yes"/>
      <point x="93" y="-192" type="line" smooth="yes"/>
      <point x="93" y="-211"/>
      <point x="87" y="-219"/>
      <point x="67" y="-224" type="curve" smooth="yes"/>
      <point x="25" y="-235" type="line"/>
    </contour>
    <contour>
      <point x="285" y="18" type="curve" smooth="yes"/>
      <point x="218" y="18"/>
      <point x="158" y="78"/>
      <point x="158" y="153" type="curve" smooth="yes"/>
      <point x="158" y="294" type="line" smooth="yes"/>
      <point x="158" y="342"/>
      <point x="199" y="383"/>
      <point x="268" y="383" type="curve" smooth="yes"/>
      <point x="378" y="383"/>
      <point x="426" y="290"/>
      <point x="426" y="190" type="curve" smooth="yes"/>
      <point x="426" y="100"/>
      <point x="382" y="18"/>
    </contour>
  </outline>
</glyph>
<glyph name="q" format="2">
  <advance width="542"/>
  <unicode hex="0071"/>
  <outline>
    <contour>
      <point x="308" y="-250" type="line"/>
      <point x="517" y="-250" type="line"/>
      <point x="517" y="-235" type="line"/>
      <point x="475" y="-224" type="line" smooth="yes"/>
      <point x="455" y="-219"/>
      <point x="449" y="-211"/>
      <point x="449" y="-192" type="curve" smooth="yes"/>
      <point x="449" y="437" type="line"/>
      <point x="440" y="439" type="line"/>
      <point x="426" y="415"/>
      <point x="412" y="396"/>
      <point x="393" y="380" type="curve"/>
      <point x="362" y="411"/>
      <point x="309" y="434"/>
      <point x="258" y="434" type="curve" smooth="yes"/>
      <point x="113" y="434"/>
      <point x="45" y="317"/>
      <point x="45" y="204" type="curve" smooth="yes"/>
      <point x="45" y="93"/>
      <point x="112" y="-8"/>
      <point x="255" y="-8" type="curve" smooth="yes"/>
      <point x="268" y="-8"/>
      <point x="283" y="-1"/>
      <point x="292" y="3" type="curve" smooth="yes"/>
      <point x="382" y="49" type="line"/>
      <point x="382" y="-192" type="line" smooth="yes"/>
      <point x="382" y="-211"/>
      <point x="376" y="-219"/>
      <point x="356" y="-224" type="curve" smooth="yes"/>
      <point x="308" y="-235" type="line"/>
    </contour>
    <contour>
      <point x="274" y="43" type="curve" smooth="yes"/>
      <point x="164" y="43"/>
      <point x="115" y="136"/>
      <point x="115" y="236" type="curve" smooth="yes"/>
      <point x="115" y="326"/>
      <point x="159" y="408"/>
      <point x="256" y="408" type="curve" smooth="yes"/>
      <point x="323" y="408"/>
      <point x="383" y="348"/>
      <point x="383" y="273" type="curve" smooth="yes"/>
      <point x="383" y="132" type="line" smooth="yes"/>
      <point x="383" y="84"/>
      <point x="343" y="43"/>
    </contour>
  </outline>
</glyph>
<glyph name="r" format="2">
  <advance width="349"/>
  <unicode hex="0072"/>
  <anchor x="187" y="470" name="top"/>
  <outline>
    <contour>
      <point x="35" y="0" type="line"/>
      <point x="244" y="0" type="line"/>
      <point x="244" y="15" type="line"/>
      <point x="196" y="26" type="line" smooth="yes"/>
      <point x="176" y="31"/>
      <point x="170" y="39"/>
      <point x="170" y="58" type="curve" smooth="yes"/>
      <point x="170" y="348" type="line"/>
      <point x="164" y="363" type="line"/>
      <point x="164" y="373" type="line"/>
      <point x="164" y="392"/>
      <point x="169" y="414"/>
      <point x="176" y="431" type="curve"/>
      <point x="167" y="437" type="line"/>
      <point x="126" y="414"/>
      <point x="82" y="403"/>
      <point x="36" y="393" type="curve"/>
      <point x="36" y="383" type="line"/>
      <point x="79" y="371" type="line" smooth="yes"/>
      <point x="97" y="366"/>
      <point x="103" y="357"/>
      <point x="103" y="331" type="curve" smooth="yes"/>
      <point x="103" y="58" type="line" smooth="yes"/>
      <point x="103" y="39"/>
      <point x="97" y="31"/>
      <point x="77" y="26" type="curve" smooth="yes"/>
      <point x="35" y="15" type="line"/>
    </contour>
    <contour>
      <point x="170" y="282" type="line"/>
      <point x="170" y="354"/>
      <point x="213" y="377"/>
      <point x="228" y="377" type="curve" smooth="yes"/>
      <point x="237" y="377"/>
      <point x="244" y="369"/>
      <point x="251" y="361" type="curve" smooth="yes"/>
      <point x="260" y="352"/>
      <point x="271" y="342"/>
      <point x="290" y="342" type="curve" smooth="yes"/>
      <point x="320" y="342"/>
      <point x="339" y="364"/>
      <point x="339" y="388" type="curve" smooth="yes"/>
      <point x="339" y="418"/>
      <point x="317" y="435"/>
      <point x="293" y="435" type="curve" smooth="yes"/>
      <point x="285" y="435"/>
      <point x="276" y="433"/>
      <point x="268" y="429" type="curve" smooth="yes"/>
      <point x="152" y="363" type="line"/>
    </contour>
  </outline>
</glyph>
<glyph name="t" format="2">
  <advance width="328"/>
  <unicode hex="0074"/>
  <outline>
    <contour>
      <point x="177" y="-8" type="curve" smooth="yes"/>
      <point x="208" y="-8"/>
      <point x="253" y="13"/>
      <point x="298" y="50" type="curve"/>
      <point x="286" y="66" type="line"/>
      <point x="257" y="50"/>
      <point x="230" y="40"/>
      <point x="208" y="40" type="curve" smooth="yes"/>
      <point x="179" y="40"/>
      <point x="160" y="59"/>
      <point x="160" y="111" type="curve" smooth="yes"/>
      <point x="160" y="398" type="line"/>
      <point x="285" y="398" type="line"/>
      <point x="295" y="426" type="line"/>
      <point x="160" y="426" type="line"/>
      <point x="160" y="555" type="line"/>
      <point x="138" y="555" type="line"/>
      <point x="132" y="475"/>
      <point x="105" y="437"/>
      <point x="25" y="418" type="curve"/>
      <point x="25" y="398" type="line"/>
      <point x="93" y="398" type="line"/>
      <point x="93" y="102" type="line" smooth="yes"/>
      <point x="93" y="27"/>
      <point x="119" y="-8"/>
    </contour>
  </outline>
</glyph>
<glyph name="v" format="2">
  <advance width="471"/>
  <unicode hex="0076"/>
  <outline>
    <contour>
      <point x="237" y="-12" type="line"/>
      <point x="247" y="-12" type="line"/>
      <point x="403" y="378" type="line" smooth="yes"/>
      <point x="409" y="394"/>
      <point x="416" y="399"/>
      <point x="434" y="403" type="curve" smooth="yes"/>
      <point x="466" y="411" type="line"/>
      <point x="466" y="426" type="line"/>
      <point x="310" y="426" type="line"/>
      <point x="310" y="411" type="line"/>
      <point x="357" y="399" type="line" smooth="yes"/>
      <point x="377" y="394"/>
      <point x="378" y="389"/>
      <point x="375" y="382" type="curve" smooth="yes"/>
      <point x="254" y="90" type="line"/>
      <point x="265" y="90" type="line"/>
      <point x="142" y="376" type="line" smooth="yes"/>
      <point x="138" y="386"/>
      <point x="143" y="394"/>
      <point x="161" y="398" type="curve" smooth="yes"/>
      <point x="217" y="411" type="line"/>
      <point x="217" y="426" type="line"/>
      <point x="5" y="426" type="line"/>
      <point x="5" y="411" type="line"/>
      <point x="36" y="404" type="line" smooth="yes"/>
      <point x="54" y="400"/>
      <point x="60" y="395"/>
      <point x="67" y="379" type="curve" smooth="yes"/>
    </contour>
  </outline>
</glyph>
<glyph name="w" format="2">
  <advance width="712"/>
  <unicode hex="0077"/>
  <anchor x="388" y="470" name="top"/>
  <outline>
    <contour>
      <point x="230" y="-11" type="line"/>
      <point x="237" y="-11" type="line"/>
      <point x="357" y="316" type="line"/>
      <point x="493" y="-10" type="line"/>
      <point x="500" y="-10" type="line"/>
      <point x="641" y="378" type="line" smooth="yes"/>
      <point x="647" y="394"/>
      <point x="654" y="399"/>
      <point x="672" y="403" type="curve" smooth="yes"/>
      <point x="704" y="411" type="line"/>
      <point x="704" y="426" type="line"/>
      <point x="548" y="426" type="line"/>
      <point x="548" y="411" type="line"/>
      <point x="600" y="398" type="line" smooth="yes"/>
      <point x="613" y="395"/>
      <point x="615" y="389"/>
      <point x="610" y="374" type="curve" smooth="yes"/>
      <point x="515" y="123" type="line"/>
      <point x="406" y="375" type="line" smooth="yes"/>
      <point x="401" y="386"/>
      <point x="409" y="394"/>
      <point x="425" y="398" type="curve" smooth="yes"/>
      <point x="480" y="412" type="line"/>
      <point x="480" y="426" type="line"/>
      <point x="285" y="426" type="line"/>
      <point x="285" y="412" type="line"/>
      <point x="333" y="399" type="line" smooth="yes"/>
      <point x="349" y="394"/>
      <point x="352" y="389"/>
      <point x="348" y="377" type="curve" smooth="yes"/>
      <point x="253" y="125" type="line"/>
      <point x="145" y="376" type="line" smooth="yes"/>
      <point x="141" y="386"/>
      <point x="146" y="394"/>
      <point x="164" y="398" type="curve" smooth="yes"/>
      <point x="220" y="411" type="line"/>
      <point x="220" y="426" type="line"/>
      <point x="8" y="426" type="line"/>
      <point x="8" y="411" type="line"/>
      <point x="39" y="404" type="line" smooth="yes"/>
      <point x="57" y="400"/>
      <point x="63" y="395"/>
      <point x="70" y="379" type="curve" smooth="yes"/>
    </contour>
  </outline>
</glyph>
<glyph name="x" format="2">
  <advance width="489"/>
  <unicode hex="0078"/>
  <guideline x="465" y="55" angle="90"/>
  <guideline x="16" y="15" angle="90"/>
  <outline>
    <contour>
      <point x="10" y="0" type="line"/>
      <point x="182" y="0" type="line"/>
      <point x="182" y="15" type="line"/>
      <point x="146" y="22" type="line" smooth="yes"/>
      <point x="128" y="26"/>
      <point x="128" y="42"/>
      <point x="141" y="57" type="curve" smooth="yes"/>
      <point x="249" y="197" type="line"/>
      <point x="222" y="196" type="line"/>
      <point x="322" y="53" type="line" smooth="yes"/>
      <point x="330" y="41"/>
      <point x="323" y="34"/>
      <point x="305" y="28" type="curve" smooth="yes"/>
      <point x="265" y="15" type="line"/>
      <point x="265" y="0" type="line"/>
      <point x="479" y="0" type="line"/>
      <point x="479" y="15" type="line"/>
      <point x="448" y="22" type="line" smooth="yes"/>
      <point x="429" y="26"/>
      <point x="414" y="35"/>
      <point x="406" y="47" type="curve" smooth="yes"/>
      <point x="270" y="241" type="line"/>
      <point x="263" y="215" type="line"/>
      <point x="367" y="363" type="line" smooth="yes"/>
      <point x="386" y="390"/>
      <point x="396" y="394"/>
      <point x="425" y="401" type="curve" smooth="yes"/>
      <point x="469" y="412" type="line"/>
      <point x="469" y="426" type="line"/>
      <point x="295" y="426" type="line"/>
      <point x="295" y="412" type="line"/>
      <point x="333" y="403" type="line"/>
      <point x="346" y="402"/>
      <point x="354" y="386"/>
      <point x="342" y="371" type="curve"/>
      <point x="241" y="227" type="line"/>
      <point x="275" y="227" type="line"/>
      <point x="174" y="376" type="line" smooth="yes"/>
      <point x="168" y="385"/>
      <point x="175" y="392"/>
      <point x="193" y="398" type="curve" smooth="yes"/>
      <point x="233" y="411" type="line"/>
      <point x="233" y="426" type="line"/>
      <point x="20" y="426" type="line"/>
      <point x="20" y="411" type="line"/>
      <point x="51" y="404" type="line" smooth="yes"/>
      <point x="69" y="400"/>
      <point x="85" y="392"/>
      <point x="93" y="379" type="curve" smooth="yes"/>
      <point x="224" y="182" type="line"/>
      <point x="225" y="209" type="line"/>
      <point x="118" y="69" type="line" smooth="yes"/>
      <point x="97" y="41"/>
      <point x="81" y="31"/>
      <point x="57" y="26" type="curve" smooth="yes"/>
      <point x="10" y="15" type="line"/>
    </contour>
  </outline>
</glyph>
<glyph name="y" format="2">
  <advance width="462"/>
  <unicode hex="0079"/>
  <anchor x="261" y="470" name="top"/>
  <outline>
    <contour>
      <point x="78" y="-259" type="curve" smooth="yes"/>
      <point x="141" y="-259"/>
      <point x="168" y="-205"/>
      <point x="186" y="-159" type="curve" smooth="yes"/>
      <point x="394" y="378" type="line" smooth="yes"/>
      <point x="400" y="394"/>
      <point x="407" y="399"/>
      <point x="425" y="403" type="curve" smooth="yes"/>
      <point x="457" y="411" type="line"/>
      <point x="457" y="426" type="line"/>
      <point x="301" y="426" type="line"/>
      <point x="301" y="411" type="line"/>
      <point x="348" y="399" type="line" smooth="yes"/>
      <point x="368" y="394"/>
      <point x="369" y="389"/>
      <point x="366" y="382" type="curve" smooth="yes"/>
      <point x="249" y="86" type="line"/>
      <point x="272" y="86" type="line"/>
      <point x="144" y="376" type="line"/>
      <point x="140" y="386"/>
      <point x="145" y="394"/>
      <point x="163" y="398" type="curve" smooth="yes"/>
      <point x="219" y="411" type="line"/>
      <point x="219" y="426" type="line"/>
      <point x="7" y="426" type="line"/>
      <point x="7" y="411" type="line"/>
      <point x="38" y="404" type="line" smooth="yes"/>
      <point x="56" y="400"/>
      <point x="62" y="395"/>
      <point x="69" y="379" type="curve" smooth="yes"/>
      <point x="226" y="27" type="line"/>
      <point x="153" y="-158" type="line" smooth="yes"/>
      <point x="147" y="-174"/>
      <point x="139" y="-180"/>
      <point x="128" y="-180" type="curve" smooth="yes"/>
      <point x="121" y="-180"/>
      <point x="115" y="-176"/>
      <point x="108" y="-172" type="curve"/>
      <point x="100" y="-166"/>
      <point x="90" y="-159"/>
      <point x="76" y="-159" type="curve" smooth="yes"/>
      <point x="47" y="-159"/>
      <point x="25" y="-180"/>
      <point x="25" y="-212" type="curve" smooth="yes"/>
      <point x="25" y="-242"/>
      <point x="50" y="-259"/>
    </contour>
  </outline>
</glyph>
<glyph name="z" format="2">
  <advance width="405"/>
  <unicode hex="007A"/>
  <guideline x="34" y="64" angle="90"/>
  <guideline x="389" y="160" angle="90"/>
  <anchor x="213" y="470" name="top"/>
  <outline>
    <contour>
      <point x="25" y="0" type="line"/>
      <point x="364" y="0" type="line"/>
      <point x="364" y="6" type="line" smooth="yes"/>
      <point x="364" y="46"/>
      <point x="366" y="91"/>
      <point x="380" y="139" type="curve"/>
      <point x="361" y="139" type="line"/>
      <point x="343" y="71"/>
      <point x="295" y="25"/>
      <point x="222" y="25" type="curve" smooth="yes"/>
      <point x="116" y="25" type="line"/>
      <point x="373" y="423" type="line"/>
      <point x="373" y="426" type="line"/>
      <point x="48" y="426" type="line"/>
      <point x="51" y="412"/>
      <point x="52" y="397"/>
      <point x="52" y="380" type="curve" smooth="yes"/>
      <point x="52" y="354"/>
      <point x="48" y="324"/>
      <point x="38" y="289" type="curve"/>
      <point x="60" y="289" type="line"/>
      <point x="61" y="316"/>
      <point x="89" y="402"/>
      <point x="195" y="402" type="curve" smooth="yes"/>
      <point x="282" y="402" type="line"/>
      <point x="25" y="6" type="line"/>
    </contour>
  </outline>
</glyph>
<glyph name="braceleft" format="2">
  <advance width="357"/>
  <unicode hex="007B"/>
  <outline>
    <contour>
      <point x="322" y="-215" type="curve"/>
      <point x="322" y="-190" type="line"/>
      <point x="229" y="-187"/>
      <point x="170" y="-166"/>
      <point x="170" y="-69" type="curve" smooth="yes"/>
      <point x="170" y="-32"/>
      <point x="175" y="7"/>
      <point x="179" y="44" type="curve" smooth="yes"/>
      <point x="184" y="82"/>
      <point x="189" y="118"/>
      <point x="189" y="146" type="curve" smooth="yes"/>
      <point x="189" y="226"/>
      <point x="146" y="253"/>
      <point x="114" y="264" type="curve"/>
      <point x="114" y="265" type="line"/>
      <point x="146" y="276"/>
      <point x="189" y="303"/>
      <point x="189" y="383" type="curve" smooth="yes"/>
      <point x="189" y="409"/>
      <point x="185" y="441"/>
      <point x="181" y="475" type="curve" smooth="yes"/>
      <point x="176" y="515"/>
      <point x="170" y="558"/>
      <point x="170" y="598" type="curve" smooth="yes"/>
      <point x="170" y="695"/>
      <point x="229" y="716"/>
      <point x="322" y="719" type="curve"/>
      <point x="322" y="744" type="line"/>
      <point x="225" y="744"/>
      <point x="100" y="725"/>
      <point x="100" y="591" type="curve" smooth="yes"/>
      <point x="100" y="522"/>
      <point x="137" y="428"/>
      <point x="137" y="359" type="curve" smooth="yes"/>
      <point x="137" y="295"/>
      <point x="89" y="279"/>
      <point x="40" y="279" type="curve"/>
      <point x="40" y="250" type="line"/>
      <point x="89" y="250"/>
      <point x="137" y="234"/>
      <point x="137" y="170" type="curve" smooth="yes"/>
      <point x="137" y="101"/>
      <point x="100" y="7"/>
      <point x="100" y="-62" type="curve" smooth="yes"/>
      <point x="100" y="-196"/>
      <point x="225" y="-215"/>
    </contour>
  </outline>
</glyph>
<glyph name="braceright" format="2">
  <advance width="357"/>
  <unicode hex="007D"/>
  <outline>
    <contour>
      <point x="35" y="-215" type="line"/>
      <point x="132" y="-215"/>
      <point x="257" y="-196"/>
      <point x="257" y="-62" type="curve" smooth="yes"/>
      <point x="257" y="7"/>
      <point x="220" y="101"/>
      <point x="220" y="170" type="curve" smooth="yes"/>
      <point x="220" y="234"/>
      <point x="268" y="250"/>
      <point x="317" y="250" type="curve"/>
      <point x="317" y="279" type="line"/>
      <point x="268" y="279"/>
      <point x="220" y="295"/>
      <point x="220" y="359" type="curve" smooth="yes"/>
      <point x="220" y="428"/>
      <point x="257" y="522"/>
      <point x="257" y="591" type="curve" smooth="yes"/>
      <point x="257" y="725"/>
      <point x="132" y="744"/>
      <point x="35" y="744" type="curve"/>
      <point x="35" y="719" type="line"/>
      <point x="128" y="716"/>
      <point x="187" y="695"/>
      <point x="187" y="598" type="curve" smooth="yes"/>
      <point x="187" y="558"/>
      <point x="181" y="515"/>
      <point x="176" y="475" type="curve" smooth="yes"/>
      <point x="172" y="441"/>
      <point x="168" y="409"/>
      <point x="168" y="383" type="curve" smooth="yes"/>
      <point x="168" y="303"/>
      <point x="211" y="276"/>
      <point x="243" y="265" type="curve"/>
      <point x="243" y="264" type="line"/>
      <point x="211" y="253"/>
      <point x="168" y="226"/>
      <point x="168" y="146" type="curve" smooth="yes"/>
      <point x="168" y="118"/>
      <point x="173" y="82"/>
      <point x="178" y="44" type="curve" smooth="yes"/>
      <point x="182" y="7"/>
      <point x="187" y="-32"/>
      <point x="187" y="-69" type="curve" smooth="yes"/>
      <point x="187" y="-166"/>
      <point x="128" y="-187"/>
      <point x="35" y="-190" type="curve"/>
    </contour>
  </outline>
</glyph>
<glyph name="exclamdown" format="2">
  <advance width="214"/>
  <unicode hex="00A1"/>
  <guideline x="118" y="411" angle="0"/>
  <outline>
    <contour>
      <point x="93" y="289" type="line"/>
      <point x="62" y="-170" type="line"/>
      <point x="152" y="-170" type="line"/>
      <point x="120" y="289" type="line"/>
    </contour>
    <contour>
      <point x="106" y="494" type="curve" smooth="yes"/>
      <point x="76" y="494"/>
      <point x="50" y="468"/>
      <point x="50" y="438" type="curve" smooth="yes"/>
      <point x="50" y="406"/>
      <point x="76" y="380"/>
      <point x="106" y="380" type="curve" smooth="yes"/>
      <point x="138" y="380"/>
      <point x="164" y="406"/>
      <point x="164" y="438" type="curve" smooth="yes"/>
      <point x="164" y="468"/>
      <point x="138" y="494"/>
    </contour>
  </outline>
</glyph>
<glyph name="cent" format="2">
  <advance width="446"/>
  <unicode hex="00A2"/>
  <outline>
    <contour>
      <point x="85" y="-81" type="line"/>
      <point x="359" y="515" type="line"/>
      <point x="333" y="526" type="line"/>
      <point x="59" y="-70" type="line"/>
    </contour>
    <component base="c"/>
  </outline>
</glyph>
<glyph name="currency" format="2">
  <advance width="555"/>
  <unicode hex="00A4"/>
  <outline>
    <contour>
      <point x="278" y="181" type="curve" smooth="yes"/>
      <point x="391" y="181"/>
      <point x="461" y="261"/>
      <point x="461" y="359" type="curve" smooth="yes"/>
      <point x="461" y="457"/>
      <point x="391" y="537"/>
      <point x="278" y="537" type="curve" smooth="yes"/>
      <point x="164" y="537"/>
      <point x="94" y="457"/>
      <point x="94" y="359" type="curve" smooth="yes"/>
      <point x="94" y="261"/>
      <point x="164" y="181"/>
    </contour>
    <contour>
      <point x="84" y="136" type="line"/>
      <point x="178" y="230" type="line"/>
      <point x="147" y="255" type="line"/>
      <point x="55" y="163" type="line"/>
    </contour>
    <contour>
      <point x="148" y="459" type="line"/>
      <point x="175" y="488" type="line"/>
      <point x="82" y="581" type="line"/>
      <point x="55" y="552" type="line"/>
    </contour>
    <contour>
      <point x="278" y="214" type="curve" smooth="yes"/>
      <point x="206" y="214"/>
      <point x="154" y="269"/>
      <point x="154" y="359" type="curve" smooth="yes"/>
      <point x="154" y="449"/>
      <point x="206" y="504"/>
      <point x="278" y="504" type="curve" smooth="yes"/>
      <point x="349" y="504"/>
      <point x="401" y="449"/>
      <point x="401" y="359" type="curve" smooth="yes"/>
      <point x="401" y="269"/>
      <point x="349" y="214"/>
    </contour>
    <contour>
      <point x="473" y="136" type="line"/>
      <point x="500" y="165" type="line"/>
      <point x="408" y="257" type="line"/>
      <point x="380" y="228" type="line"/>
    </contour>
    <contour>
      <point x="410" y="464" type="line"/>
      <point x="500" y="554" type="line"/>
      <point x="471" y="581" type="line"/>
      <point x="379" y="488" type="line"/>
    </contour>
  </outline>
</glyph>
<glyph name="yen" format="2">
  <advance width="710"/>
  <unicode hex="00A5"/>
  <outline>
    <contour>
      <point x="142" y="325" type="line"/>
      <point x="572" y="325" type="line"/>
      <point x="572" y="355" type="line"/>
      <point x="142" y="355" type="line"/>
    </contour>
    <contour>
      <point x="142" y="192" type="line"/>
      <point x="572" y="192" type="line"/>
      <point x="572" y="222" type="line"/>
      <point x="142" y="222" type="line"/>
    </contour>
    <component base="Y"/>
  </outline>
</glyph>
<glyph name="brokenbar" format="2">
  <advance width="261"/>
  <unicode hex="00A6"/>
  <outline>
    <contour>
      <point x="110" y="340" type="line"/>
      <point x="151" y="340" type="line"/>
      <point x="151" y="691" type="line"/>
      <point x="110" y="691" type="line"/>
    </contour>
    <contour>
      <point x="151" y="-141" type="line"/>
      <point x="151" y="210" type="line"/>
      <point x="110" y="210" type="line"/>
      <point x="110" y="-141" type="line"/>
    </contour>
  </outline>
</glyph>
<glyph name="section" format="2">
  <advance width="428"/>
  <unicode hex="00A7"/>
  <outline>
    <contour>
      <point x="239" y="88" type="line"/>
      <point x="337" y="88"/>
      <point x="383" y="158"/>
      <point x="383" y="229" type="curve" smooth="yes"/>
      <point x="383" y="312"/>
      <point x="321" y="363"/>
      <point x="259" y="413" type="curve" smooth="yes"/>
      <point x="196" y="463"/>
      <point x="134" y="511"/>
      <point x="134" y="591" type="curve" smooth="yes"/>
      <point x="134" y="636"/>
      <point x="166" y="669"/>
      <point x="211" y="669" type="curve" smooth="yes"/>
      <point x="251" y="669"/>
      <point x="279" y="659"/>
      <point x="279" y="642" type="curve" smooth="yes"/>
      <point x="279" y="637"/>
      <point x="276" y="630"/>
      <point x="273" y="623" type="curve" smooth="yes"/>
      <point x="270" y="616"/>
      <point x="267" y="607"/>
      <point x="267" y="598" type="curve" smooth="yes"/>
      <point x="267" y="577"/>
      <point x="283" y="558"/>
      <point x="312" y="558" type="curve" smooth="yes"/>
      <point x="332" y="558"/>
      <point x="356" y="570"/>
      <point x="356" y="602" type="curve" smooth="yes"/>
      <point x="356" y="649"/>
      <point x="310" y="695"/>
      <point x="216" y="695" type="curve" smooth="yes"/>
      <point x="129" y="695"/>
      <point x="74" y="633"/>
      <point x="74" y="560" type="curve" smooth="yes"/>
      <point x="74" y="473"/>
      <point x="139" y="421"/>
      <point x="204" y="370" type="curve" smooth="yes"/>
      <point x="266" y="321"/>
      <point x="326" y="273"/>
      <point x="326" y="194" type="curve" smooth="yes"/>
      <point x="326" y="150"/>
      <point x="286" y="113"/>
      <point x="249" y="113" type="curve"/>
    </contour>
    <contour>
      <point x="210" y="-199" type="curve" smooth="yes"/>
      <point x="316" y="-199"/>
      <point x="359" y="-129"/>
      <point x="359" y="-58" type="curve" smooth="yes"/>
      <point x="359" y="25"/>
      <point x="296" y="76"/>
      <point x="233" y="126" type="curve" smooth="yes"/>
      <point x="169" y="177"/>
      <point x="108" y="224"/>
      <point x="108" y="304" type="curve" smooth="yes"/>
      <point x="108" y="349"/>
      <point x="144" y="383"/>
      <point x="189" y="383" type="curve"/>
      <point x="190" y="408" type="line"/>
      <point x="103" y="408"/>
      <point x="45" y="344"/>
      <point x="45" y="273" type="curve" smooth="yes"/>
      <point x="45" y="186"/>
      <point x="113" y="134"/>
      <point x="178" y="83" type="curve" smooth="yes"/>
      <point x="240" y="34"/>
      <point x="302" y="-13"/>
      <point x="302" y="-87" type="curve" smooth="yes"/>
      <point x="302" y="-135"/>
      <point x="270" y="-175"/>
      <point x="216" y="-175" type="curve" smooth="yes"/>
      <point x="169" y="-175"/>
      <point x="128" y="-152"/>
      <point x="128" y="-125" type="curve" smooth="yes"/>
      <point x="128" y="-120"/>
      <point x="131" y="-113"/>
      <point x="134" y="-106" type="curve" smooth="yes"/>
      <point x="137" y="-99"/>
      <point x="140" y="-90"/>
      <point x="140" y="-81" type="curve" smooth="yes"/>
      <point x="140" y="-59"/>
      <point x="123" y="-35"/>
      <point x="91" y="-35" type="curve" smooth="yes"/>
      <point x="64" y="-35"/>
      <point x="46" y="-55"/>
      <point x="46" y="-87" type="curve" smooth="yes"/>
      <point x="46" y="-145"/>
      <point x="101" y="-199"/>
    </contour>
  </outline>
</glyph>
<glyph name="guillemetleft" format="2">
  <advance width="365"/>
  <unicode hex="00AB"/>
  <outline>
    <contour>
      <point x="163" y="66" type="line"/>
      <point x="176" y="75" type="line"/>
      <point x="101" y="204" type="line"/>
      <point x="177" y="331" type="line"/>
      <point x="164" y="340" type="line"/>
      <point x="25" y="206" type="line"/>
      <point x="25" y="200" type="line"/>
    </contour>
    <contour>
      <point x="316" y="66" type="line"/>
      <point x="329" y="75" type="line"/>
      <point x="254" y="204" type="line"/>
      <point x="330" y="331" type="line"/>
      <point x="317" y="340" type="line"/>
      <point x="178" y="206" type="line"/>
      <point x="178" y="200" type="line"/>
    </contour>
  </outline>
</glyph>
<glyph name="logicalnot" format="2">
  <advance width="530"/>
  <unicode hex="00AC"/>
  <outline>
    <contour>
      <point x="420" y="228" type="line"/>
      <point x="458" y="228" type="line"/>
      <point x="458" y="429" type="line"/>
      <point x="42" y="429" type="line"/>
      <point x="42" y="391" type="line"/>
      <point x="420" y="391" type="line"/>
    </contour>
  </outline>
</glyph>
<glyph name="registered" format="2">
  <advance width="494"/>
  <unicode hex="00AE"/>
  <outline>
    <contour>
      <point x="247" y="231" type="curve" smooth="yes"/>
      <point x="389" y="231"/>
      <point x="474" y="344"/>
      <point x="474" y="463" type="curve" smooth="yes"/>
      <point x="474" y="581"/>
      <point x="386" y="680"/>
      <point x="247" y="680" type="curve" smooth="yes"/>
      <point x="107" y="680"/>
      <point x="20" y="567"/>
      <point x="20" y="449" type="curve" smooth="yes"/>
      <point x="20" y="331"/>
      <point x="102" y="231"/>
    </contour>
    <contour>
      <point x="249" y="257" type="curve" smooth="yes"/>
      <point x="121" y="257"/>
      <point x="55" y="356"/>
      <point x="55" y="456" type="curve" smooth="yes"/>
      <point x="55" y="556"/>
      <point x="121" y="655"/>
      <point x="247" y="655" type="curve" smooth="yes"/>
      <point x="357" y="655"/>
      <point x="442" y="571"/>
      <point x="442" y="461" type="curve" smooth="yes"/>
      <point x="442" y="343"/>
      <point x="358" y="257"/>
    </contour>
    <contour>
      <point x="364" y="350" type="curve" smooth="yes"/>
      <point x="371" y="350"/>
      <point x="384" y="350"/>
      <point x="389" y="353" type="curve"/>
      <point x="389" y="358" type="line"/>
      <point x="369" y="358"/>
      <point x="351" y="383"/>
      <point x="334" y="408" type="curve" smooth="yes"/>
      <point x="315" y="436"/>
      <point x="293" y="463"/>
      <point x="262" y="463" type="curve"/>
      <point x="262" y="464" type="line"/>
      <point x="302" y="468"/>
      <point x="331" y="489"/>
      <point x="331" y="521" type="curve" smooth="yes"/>
      <point x="331" y="560"/>
      <point x="296" y="585"/>
      <point x="228" y="585" type="curve" smooth="yes"/>
      <point x="132" y="585" type="line"/>
      <point x="132" y="574" type="line"/>
      <point x="147" y="570" type="line" smooth="yes"/>
      <point x="166" y="565"/>
      <point x="169" y="564"/>
      <point x="169" y="550" type="curve" smooth="yes"/>
      <point x="169" y="389" type="line" smooth="yes"/>
      <point x="169" y="375"/>
      <point x="166" y="374"/>
      <point x="147" y="369" type="curve" smooth="yes"/>
      <point x="132" y="365" type="line"/>
      <point x="132" y="354" type="line"/>
      <point x="249" y="354" type="line"/>
      <point x="249" y="365" type="line"/>
      <point x="234" y="369" type="line" smooth="yes"/>
      <point x="215" y="374"/>
      <point x="211" y="375"/>
      <point x="211" y="389" type="curve" smooth="yes"/>
      <point x="211" y="453" type="line"/>
      <point x="218" y="453" type="line" smooth="yes"/>
      <point x="257" y="453"/>
      <point x="272" y="429"/>
      <point x="293" y="402" type="curve" smooth="yes"/>
      <point x="313" y="376"/>
      <point x="333" y="350"/>
    </contour>
    <contour>
      <point x="211" y="470" type="line"/>
      <point x="211" y="572" type="line"/>
      <point x="224" y="572" type="line" smooth="yes"/>
      <point x="257" y="572"/>
      <point x="283" y="553"/>
      <point x="283" y="520" type="curve" smooth="yes"/>
      <point x="283" y="490"/>
      <point x="260" y="470"/>
      <point x="228" y="470" type="curve" smooth="yes"/>
    </contour>
  </outline>
</glyph>
<glyph name="plusminus" format="2">
  <advance width="530"/>
  <unicode hex="00B1"/>
  <outline>
    <contour>
      <point x="246" y="227" type="line"/>
      <point x="284" y="227" type="line"/>
      <point x="284" y="365" type="line"/>
      <point x="457" y="365" type="line"/>
      <point x="457" y="403" type="line"/>
      <point x="284" y="403" type="line"/>
      <point x="284" y="540" type="line"/>
      <point x="246" y="540" type="line"/>
      <point x="246" y="403" type="line"/>
      <point x="73" y="403" type="line"/>
      <point x="73" y="365" type="line"/>
      <point x="246" y="365" type="line"/>
    </contour>
    <component base="minus" yOffset="-185"/>
  </outline>
</glyph>
<glyph name="paragraph" format="2">
  <advance width="641"/>
  <unicode hex="00B6"/>
  <outline>
    <contour>
      <point x="260" y="-229" type="curve" smooth="yes"/>
      <point x="378" y="-229"/>
      <point x="471" y="-155"/>
      <point x="471" y="27" type="curve" smooth="yes"/>
      <point x="471" y="588" type="line" smooth="yes"/>
      <point x="471" y="630"/>
      <point x="480" y="637"/>
      <point x="535" y="647" type="curve" smooth="yes"/>
      <point x="596" y="658" type="line"/>
      <point x="596" y="673" type="line"/>
      <point x="340" y="673" type="line" smooth="yes"/>
      <point x="159" y="673"/>
      <point x="73" y="580"/>
      <point x="73" y="454" type="curve" smooth="yes"/>
      <point x="73" y="333"/>
      <point x="183" y="235"/>
      <point x="317" y="235" type="curve" smooth="yes"/>
      <point x="430" y="235" type="line"/>
      <point x="430" y="28" type="line" smooth="yes"/>
      <point x="430" y="-144"/>
      <point x="354" y="-196"/>
      <point x="259" y="-196" type="curve" smooth="yes"/>
      <point x="165" y="-196"/>
      <point x="89" y="-120"/>
      <point x="89" y="-26" type="curve" smooth="yes"/>
      <point x="89" y="40"/>
      <point x="127" y="69"/>
      <point x="146" y="69" type="curve" smooth="yes"/>
      <point x="152" y="69"/>
      <point x="157" y="66"/>
      <point x="157" y="60" type="curve" smooth="yes"/>
      <point x="157" y="58" type="line" smooth="yes"/>
      <point x="157" y="21"/>
      <point x="181" y="4"/>
      <point x="206" y="4" type="curve" smooth="yes"/>
      <point x="241" y="4"/>
      <point x="256" y="34"/>
      <point x="256" y="60" type="curve" smooth="yes"/>
      <point x="256" y="89"/>
      <point x="232" y="121"/>
      <point x="185" y="121" type="curve" smooth="yes"/>
      <point x="104" y="121"/>
      <point x="50" y="58"/>
      <point x="50" y="-26" type="curve" smooth="yes"/>
      <point x="50" y="-138"/>
      <point x="144" y="-229"/>
    </contour>
  </outline>
</glyph>
<glyph name="guillemetright" format="2">
  <advance width="365"/>
  <unicode hex="00BB"/>
  <outline>
    <contour>
      <point x="48" y="66" type="line"/>
      <point x="187" y="200" type="line"/>
      <point x="187" y="206" type="line"/>
      <point x="49" y="340" type="line"/>
      <point x="36" y="331" type="line"/>
      <point x="111" y="202" type="line"/>
      <point x="35" y="75" type="line"/>
    </contour>
    <contour>
      <point x="201" y="66" type="line"/>
      <point x="339" y="200" type="line"/>
      <point x="339" y="206" type="line"/>
      <point x="200" y="340" type="line"/>
      <point x="187" y="331" type="line"/>
      <point x="263" y="204" type="line"/>
      <point x="188" y="75" type="line"/>
    </contour>
  </outline>
</glyph>
<glyph name="questiondown" format="2">
  <advance width="364"/>
  <unicode hex="00BF"/>
  <outline>
    <contour>
      <point x="276" y="286" type="curve"/>
      <point x="249" y="286" type="line"/>
      <point x="249" y="237"/>
      <point x="235" y="213"/>
      <point x="164" y="203" type="curve" smooth="yes"/>
      <point x="70" y="190"/>
      <point x="45" y="132"/>
      <point x="45" y="41" type="curve" smooth="yes"/>
      <point x="45" y="-49"/>
      <point x="74" y="-91"/>
      <point x="148" y="-104" type="curve" smooth="yes"/>
      <point x="244" y="-121" type="line" smooth="yes"/>
      <point x="264" y="-125"/>
      <point x="275" y="-136"/>
      <point x="279" y="-162" type="curve" smooth="yes"/>
      <point x="283" y="-188" type="line"/>
      <point x="301" y="-188" type="line"/>
      <point x="301" y="-60" type="line"/>
      <point x="133" y="-28" type="line" smooth="yes"/>
      <point x="92" y="-20"/>
      <point x="74" y="-4"/>
      <point x="74" y="42" type="curve" smooth="yes"/>
      <point x="74" y="89"/>
      <point x="85" y="106"/>
      <point x="158" y="119" type="curve" smooth="yes"/>
      <point x="251" y="135"/>
      <point x="276" y="165"/>
    </contour>
    <contour>
      <point x="263" y="491" type="curve" smooth="yes"/>
      <point x="231" y="491"/>
      <point x="205" y="465"/>
      <point x="205" y="435" type="curve" smooth="yes"/>
      <point x="205" y="403"/>
      <point x="231" y="377"/>
      <point x="263" y="377" type="curve" smooth="yes"/>
      <point x="293" y="377"/>
      <point x="319" y="403"/>
      <point x="319" y="435" type="curve" smooth="yes"/>
      <point x="319" y="465"/>
      <point x="293" y="491"/>
    </contour>
  </outline>
</glyph>
<glyph name="AE" format="2">
  <advance width="1019"/>
  <unicode hex="00C6"/>
  <outline>
    <contour>
      <point x="5" y="0" type="line"/>
      <point x="262" y="0" type="line"/>
      <point x="262" y="18" type="line"/>
      <point x="199" y="30" type="line" smooth="yes"/>
      <point x="157" y="39"/>
      <point x="153" y="56"/>
      <point x="173" y="82" type="curve" smooth="yes"/>
      <point x="519" y="570" type="line"/>
      <point x="514" y="615" type="line"/>
      <point x="137" y="86" type="line" smooth="yes"/>
      <point x="115" y="55"/>
      <point x="85" y="32"/>
      <point x="40" y="24" type="curve" smooth="yes"/>
      <point x="5" y="18" type="line"/>
    </contour>
    <contour>
      <point x="270" y="229" type="line"/>
      <point x="524" y="229" type="line"/>
      <point x="524" y="260" type="line"/>
      <point x="270" y="260" type="line"/>
    </contour>
    <component base="E" xOffset="334"/>
  </outline>
</glyph>
<glyph name="Eth" format="2">
  <advance width="805"/>
  <unicode hex="00D0"/>
  <guideline x="40" y="549" angle="90"/>
  <outline>
    <contour>
      <point x="40" y="321" type="line"/>
      <point x="383" y="321" type="line"/>
      <point x="383" y="356" type="line"/>
      <point x="40" y="356" type="line"/>
    </contour>
    <component base="D"/>
  </outline>
</glyph>
<glyph name="multiply" format="2">
  <advance width="530"/>
  <unicode hex="00D7"/>
  <outline>
    <contour>
      <point x="135" y="177" type="line"/>
      <point x="265" y="308" type="line"/>
      <point x="394" y="177" type="line"/>
      <point x="421" y="204" type="line"/>
      <point x="292" y="335" type="line"/>
      <point x="422" y="464" type="line"/>
      <point x="395" y="491" type="line"/>
      <point x="265" y="362" type="line"/>
      <point x="135" y="491" type="line"/>
      <point x="108" y="464" type="line"/>
      <point x="238" y="335" type="line"/>
      <point x="108" y="204" type="line"/>
    </contour>
  </outline>
</glyph>
<glyph name="Oslash" format="2">
  <advance width="804"/>
  <unicode hex="00D8"/>
  <guideline x="758" y="271" angle="90"/>
  <guideline x="45" y="513" angle="90"/>
  <outline>
    <contour>
      <point x="71" y="-16" type="line"/>
      <point x="758" y="654" type="line"/>
      <point x="731" y="681" type="line"/>
      <point x="44" y="11" type="line"/>
    </contour>
    <component base="O"/>
  </outline>
</glyph>
<glyph name="germandbls" format="2">
  <advance width="570"/>
  <unicode hex="00DF"/>
  <outline>
    <contour>
      <point x="404" y="-8" type="curve" smooth="yes"/>
      <point x="503" y="-8"/>
      <point x="550" y="56"/>
      <point x="550" y="120" type="curve" smooth="yes"/>
      <point x="550" y="202"/>
      <point x="490" y="233"/>
      <point x="434" y="262" type="curve" smooth="yes"/>
      <point x="383" y="288"/>
      <point x="334" y="312"/>
      <point x="334" y="370" type="curve" smooth="yes"/>
      <point x="334" y="414"/>
      <point x="366" y="441"/>
      <point x="399" y="469" type="curve" smooth="yes"/>
      <point x="436" y="499"/>
      <point x="475" y="530"/>
      <point x="475" y="583" type="curve" smooth="yes"/>
      <point x="475" y="644"/>
      <point x="424" y="711"/>
      <point x="300" y="711" type="curve" smooth="yes"/>
      <point x="181" y="711"/>
      <point x="103" y="617"/>
      <point x="103" y="498" type="curve" smooth="yes"/>
      <point x="103" y="426" type="line"/>
      <point x="36" y="426" type="line"/>
      <point x="36" y="398" type="line"/>
      <point x="103" y="398" type="line"/>
      <point x="103" y="58" type="line" smooth="yes"/>
      <point x="103" y="39"/>
      <point x="97" y="31"/>
      <point x="77" y="26" type="curve" smooth="yes"/>
      <point x="35" y="15" type="line"/>
      <point x="35" y="0" type="line"/>
      <point x="170" y="0" type="line"/>
      <point x="170" y="492" type="line" smooth="yes"/>
      <point x="170" y="597"/>
      <point x="199" y="685"/>
      <point x="294" y="685" type="curve" smooth="yes"/>
      <point x="376" y="685"/>
      <point x="409" y="645"/>
      <point x="409" y="572" type="curve" smooth="yes"/>
      <point x="409" y="513"/>
      <point x="374" y="479"/>
      <point x="340" y="448" type="curve" smooth="yes"/>
      <point x="307" y="418"/>
      <point x="274" y="390"/>
      <point x="274" y="342" type="curve" smooth="yes"/>
      <point x="274" y="266"/>
      <point x="332" y="234"/>
      <point x="388" y="204" type="curve" smooth="yes"/>
      <point x="441" y="175"/>
      <point x="492" y="148"/>
      <point x="492" y="88" type="curve" smooth="yes"/>
      <point x="492" y="48"/>
      <point x="456" y="15"/>
      <point x="418" y="15" type="curve" smooth="yes"/>
      <point x="340" y="15"/>
      <point x="300" y="70"/>
      <point x="289" y="150" type="curve"/>
      <point x="262" y="150" type="line"/>
      <point x="269" y="109"/>
      <point x="268" y="70"/>
      <point x="266" y="32" type="curve"/>
      <point x="293" y="16"/>
      <point x="346" y="-8"/>
    </contour>
  </outline>
</glyph>
<glyph name="eth" format="2">
  <advance width="518"/>
  <unicode hex="00F0"/>
  <outline>
    <contour>
      <point x="243" y="472" type="line"/>
      <point x="513" y="592" type="line"/>
      <point x="501" y="618" type="line"/>
      <point x="231" y="499" type="line"/>
    </contour>
    <component base="partialdiff" xOffset="-10"/>
  </outline>
</glyph>
<glyph name="divide" format="2">
  <advance width="530"/>
  <unicode hex="00F7"/>
  <outline>
    <contour>
      <point x="206" y="182" type="curve" smooth="yes"/>
      <point x="206" y="155"/>
      <point x="228" y="133"/>
      <point x="255" y="133" type="curve" smooth="yes"/>
      <point x="282" y="133"/>
      <point x="304" y="155"/>
      <point x="304" y="182" type="curve" smooth="yes"/>
      <point x="304" y="209"/>
      <point x="282" y="231"/>
      <point x="255" y="231" type="curve" smooth="yes"/>
      <point x="228" y="231"/>
      <point x="206" y="209"/>
    </contour>
    <contour>
      <point x="206" y="488" type="curve" smooth="yes"/>
      <point x="206" y="461"/>
      <point x="228" y="439"/>
      <point x="255" y="439" type="curve" smooth="yes"/>
      <point x="282" y="439"/>
      <point x="304" y="461"/>
      <point x="304" y="488" type="curve" smooth="yes"/>
      <point x="304" y="515"/>
      <point x="282" y="537"/>
      <point x="255" y="537" type="curve" smooth="yes"/>
      <point x="228" y="537"/>
      <point x="206" y="515"/>
    </contour>
    <component base="minus"/>
  </outline>
</glyph>
<glyph name="oslash" format="2">
  <advance width="512"/>
  <unicode hex="00F8"/>
  <guideline x="462" y="323" angle="90"/>
  <guideline x="44" y="458" angle="90"/>
  <outline>
    <contour>
      <point x="66" y="-5" type="line"/>
      <point x="462" y="418" type="line"/>
      <point x="439" y="438" type="line"/>
      <point x="45" y="15" type="line"/>
    </contour>
    <component base="o" xOffset="4"/>
  </outline>
</glyph>
<glyph name="Hbar" format="2">
  <advance width="836"/>
  <unicode hex="0126"/>
  <guideline x="40" y="526" angle="90"/>
  <guideline x="795" y="591" angle="90"/>
  <outline>
    <contour>
      <point x="75" y="490" type="line"/>
      <point x="760" y="490" type="line"/>
      <point x="760" y="528" type="line"/>
      <point x="75" y="528" type="line"/>
    </contour>
    <component base="H"/>
  </outline>
</glyph>
<glyph name="idotless" format="2">
  <advance width="261"/>
  <unicode hex="0131"/>
  <anchor x="146" y="-51" name="bottom"/>
  <anchor x="146" y="-51" name="ogonek"/>
  <anchor x="135" y="470" name="top"/>
  <outline>
    <contour>
      <point x="35" y="0" type="line"/>
      <point x="236" y="0" type="line"/>
      <point x="236" y="15" type="line"/>
      <point x="194" y="26" type="line" smooth="yes"/>
      <point x="178" y="30"/>
      <point x="170" y="41"/>
      <point x="170" y="58" type="curve" smooth="yes"/>
      <point x="170" y="328" type="line" smooth="yes"/>
      <point x="170" y="374"/>
      <point x="171" y="402"/>
      <point x="182" y="432" type="curve"/>
      <point x="173" y="438" type="line"/>
      <point x="129" y="415"/>
      <point x="84" y="404"/>
      <point x="36" y="394" type="curve"/>
      <point x="36" y="384" type="line"/>
      <point x="79" y="372" type="line" smooth="yes"/>
      <point x="97" y="367"/>
      <point x="103" y="358"/>
      <point x="103" y="332" type="curve" smooth="yes"/>
      <point x="103" y="58" type="line" smooth="yes"/>
      <point x="103" y="42"/>
      <point x="95" y="31"/>
      <point x="77" y="26" type="curve" smooth="yes"/>
      <point x="35" y="15" type="line"/>
    </contour>
  </outline>
</glyph>
<glyph name="Lslash" format="2">
  <advance width="704"/>
  <unicode hex="0141"/>
  <guideline x="40" y="338" angle="90"/>
  <outline>
    <contour>
      <point x="40" y="208" type="line"/>
      <point x="535" y="365" type="line"/>
      <point x="535" y="409" type="line"/>
      <point x="40" y="252" type="line"/>
    </contour>
    <component base="L"/>
  </outline>
</glyph>
<glyph name="lslash" format="2">
  <advance width="269"/>
  <unicode hex="0142"/>
  <guideline x="33" y="269" angle="90"/>
  <guideline x="235" y="301" angle="90"/>
  <outline>
    <contour>
      <point x="33" y="256" type="line"/>
      <point x="235" y="330" type="line"/>
      <point x="235" y="372" type="line"/>
      <point x="33" y="298" type="line"/>
    </contour>
    <component base="l"/>
  </outline>
</glyph>
<glyph name="eng" format="2">
  <advance width="508"/>
  <unicode hex="014B"/>
  <outline>
    <contour>
      <point x="302" y="-259" type="curve" smooth="yes"/>
      <point x="362" y="-259"/>
      <point x="405" y="-213"/>
      <point x="434" y="-139" type="curve" smooth="yes"/>
      <point x="437" y="-131"/>
      <point x="442" y="-128"/>
      <point x="450" y="-128" type="curve"/>
      <point x="450" y="295" type="line" smooth="yes"/>
      <point x="450" y="385"/>
      <point x="395" y="434"/>
      <point x="301" y="434" type="curve" smooth="yes"/>
      <point x="297" y="434"/>
      <point x="291" y="432"/>
      <point x="285" y="429" type="curve" smooth="yes"/>
      <point x="252" y="412"/>
      <point x="200" y="384"/>
      <point x="168" y="371" type="curve"/>
      <point x="143" y="371" type="line"/>
      <point x="170" y="272" type="line"/>
      <point x="170" y="331"/>
      <point x="215" y="381"/>
      <point x="280" y="381" type="curve" smooth="yes"/>
      <point x="346" y="381"/>
      <point x="383" y="346"/>
      <point x="383" y="282" type="curve" smooth="yes"/>
      <point x="383" y="-137" type="line"/>
      <point x="383" y="-188"/>
      <point x="362" y="-220"/>
      <point x="341" y="-220" type="curve" smooth="yes"/>
      <point x="333" y="-220"/>
      <point x="331" y="-219"/>
      <point x="331" y="-215" type="curve" smooth="yes"/>
      <point x="331" y="-213"/>
      <point x="332" y="-210"/>
      <point x="332" y="-206" type="curve" smooth="yes"/>
      <point x="332" y="-182"/>
      <point x="316" y="-164"/>
      <point x="288" y="-164" type="curve" smooth="yes"/>
      <point x="258" y="-164"/>
      <point x="243" y="-186"/>
      <point x="243" y="-210" type="curve" smooth="yes"/>
      <point x="243" y="-237"/>
      <point x="263" y="-259"/>
    </contour>
    <contour>
      <point x="35" y="0" type="line"/>
      <point x="238" y="0" type="line"/>
      <point x="238" y="15" type="line"/>
      <point x="196" y="26" type="line" smooth="yes"/>
      <point x="176" y="31"/>
      <point x="170" y="39"/>
      <point x="170" y="58" type="curve" smooth="yes"/>
      <point x="170" y="348" type="line"/>
      <point x="164" y="363" type="line"/>
      <point x="164" y="373" type="line" smooth="yes"/>
      <point x="164" y="392"/>
      <point x="169" y="414"/>
      <point x="176" y="431" type="curve"/>
      <point x="167" y="437" type="line"/>
      <point x="126" y="414"/>
      <point x="82" y="403"/>
      <point x="36" y="393" type="curve"/>
      <point x="36" y="383" type="line"/>
      <point x="79" y="371" type="line" smooth="yes"/>
      <point x="97" y="366"/>
      <point x="103" y="357"/>
      <point x="103" y="331" type="curve" smooth="yes"/>
      <point x="103" y="58" type="line" smooth="yes"/>
      <point x="103" y="39"/>
      <point x="97" y="31"/>
      <point x="77" y="26" type="curve" smooth="yes"/>
      <point x="35" y="15" type="line"/>
    </contour>
  </outline>
</glyph>
<glyph name="OE" format="2">
  <advance width="1067"/>
  <unicode hex="0152"/>
  <anchor x="750" y="690" name="topcase"/>
  <outline>
    <contour>
      <point x="401" y="-13" type="curve" smooth="yes"/>
      <point x="471" y="-13"/>
      <point x="535" y="4"/>
      <point x="589" y="35" type="curve"/>
      <point x="576" y="94" type="line"/>
      <point x="531" y="44"/>
      <point x="471" y="14"/>
      <point x="401" y="14" type="curve" smooth="yes"/>
      <point x="253" y="14"/>
      <point x="145" y="155"/>
      <point x="145" y="327" type="curve" smooth="yes"/>
      <point x="145" y="515"/>
      <point x="253" y="654"/>
      <point x="401" y="654" type="curve" smooth="yes"/>
      <point x="477" y="654"/>
      <point x="541" y="619"/>
      <point x="587" y="561" type="curve"/>
      <point x="598" y="628" type="line"/>
      <point x="542" y="661"/>
      <point x="475" y="681"/>
      <point x="401" y="681" type="curve" smooth="yes"/>
      <point x="195" y="681"/>
      <point x="45" y="530"/>
      <point x="45" y="327" type="curve" smooth="yes"/>
      <point x="45" y="139"/>
      <point x="195" y="-13"/>
    </contour>
    <contour>
      <point x="481" y="0" type="line"/>
      <point x="1001" y="0" type="line"/>
      <point x="1002" y="52"/>
      <point x="1010" y="118"/>
      <point x="1027" y="180" type="curve"/>
      <point x="1008" y="180" type="line"/>
      <point x="982" y="129" type="line" smooth="yes"/>
      <point x="958" y="82"/>
      <point x="890" y="25"/>
      <point x="808" y="25" type="curve" smooth="yes"/>
      <point x="716" y="25" type="line" smooth="yes"/>
      <point x="652" y="25"/>
      <point x="638" y="41"/>
      <point x="638" y="90" type="curve" smooth="yes"/>
      <point x="638" y="341" type="line"/>
      <point x="797" y="341" type="line" smooth="yes"/>
      <point x="866" y="341"/>
      <point x="881" y="319"/>
      <point x="892" y="263" type="curve" smooth="yes"/>
      <point x="901" y="216" type="line"/>
      <point x="919" y="216" type="line"/>
      <point x="919" y="494" type="line"/>
      <point x="901" y="494" type="line"/>
      <point x="892" y="447" type="line" smooth="yes"/>
      <point x="881" y="391"/>
      <point x="866" y="369"/>
      <point x="797" y="369" type="curve" smooth="yes"/>
      <point x="638" y="369" type="line"/>
      <point x="638" y="649" type="line"/>
      <point x="812" y="649" type="line" smooth="yes"/>
      <point x="914" y="649"/>
      <point x="951" y="583"/>
      <point x="981" y="496" type="curve"/>
      <point x="1001" y="496" type="line"/>
      <point x="997" y="524"/>
      <point x="985" y="568"/>
      <point x="985" y="617" type="curve" smooth="yes"/>
      <point x="985" y="635"/>
      <point x="987" y="654"/>
      <point x="991" y="673" type="curve"/>
      <point x="463" y="674" type="line"/>
      <point x="547" y="636" type="line"/>
      <point x="546" y="30" type="line"/>
    </contour>
  </outline>
</glyph>
<glyph name="oe" format="2">
  <advance width="791"/>
  <unicode hex="0153"/>
  <outline>
    <contour>
      <point x="254" y="-8" type="curve" smooth="yes"/>
      <point x="379" y="-8"/>
      <point x="459" y="85"/>
      <point x="459" y="217" type="curve" smooth="yes"/>
      <point x="459" y="340"/>
      <point x="379" y="434"/>
      <point x="254" y="434" type="curve" smooth="yes"/>
      <point x="129" y="434"/>
      <point x="45" y="341"/>
      <point x="45" y="209" type="curve" smooth="yes"/>
      <point x="45" y="86"/>
      <point x="129" y="-8"/>
    </contour>
    <contour>
      <point x="255" y="16" type="curve" smooth="yes"/>
      <point x="170" y="16"/>
      <point x="121" y="95"/>
      <point x="121" y="220" type="curve" smooth="yes"/>
      <point x="121" y="342"/>
      <point x="170" y="410"/>
      <point x="253" y="410" type="curve" smooth="yes"/>
      <point x="338" y="410"/>
      <point x="387" y="331"/>
      <point x="387" y="206" type="curve" smooth="yes"/>
      <point x="387" y="84"/>
      <point x="338" y="16"/>
    </contour>
    <contour>
      <point x="586" y="-8" type="curve" smooth="yes"/>
      <point x="638" y="-8"/>
      <point x="702" y="22"/>
      <point x="751" y="93" type="curve"/>
      <point x="739" y="103" type="line"/>
      <point x="697" y="68"/>
      <point x="655" y="50"/>
      <point x="612" y="50" type="curve" smooth="yes"/>
      <point x="528" y="50"/>
      <point x="458" y="112"/>
      <point x="458" y="229" type="curve" smooth="yes"/>
      <point x="458" y="336"/>
      <point x="508" y="408"/>
      <point x="581" y="408" type="curve" smooth="yes"/>
      <point x="640" y="408"/>
      <point x="666" y="358"/>
      <point x="666" y="295" type="curve" smooth="yes"/>
      <point x="666" y="284"/>
      <point x="661" y="277"/>
      <point x="647" y="277" type="curve" smooth="yes"/>
      <point x="442" y="271" type="line"/>
      <point x="442" y="248" type="line"/>
      <point x="731" y="248" type="line" smooth="yes"/>
      <point x="743" y="248"/>
      <point x="747" y="256"/>
      <point x="747" y="264" type="curve" smooth="yes"/>
      <point x="747" y="359"/>
      <point x="685" y="434"/>
      <point x="592" y="434" type="curve" smooth="yes"/>
      <point x="475" y="434"/>
      <point x="387" y="340"/>
      <point x="387" y="207" type="curve" smooth="yes"/>
      <point x="387" y="87"/>
      <point x="470" y="-8"/>
    </contour>
  </outline>
</glyph>
<glyph name="Tbar" format="2">
  <advance width="694"/>
  <unicode hex="0166"/>
  <outline>
    <contour>
      <point x="137" y="322" type="line"/>
      <point x="557" y="322" type="line"/>
      <point x="557" y="360" type="line"/>
      <point x="137" y="360" type="line"/>
    </contour>
    <component base="T"/>
  </outline>
</glyph>
<glyph name="tbar" format="2">
  <advance width="342"/>
  <unicode hex="0167"/>
  <guideline x="32" y="329" angle="90"/>
  <guideline x="302" y="334" angle="90"/>
  <outline>
    <contour>
      <point x="32" y="223" type="line"/>
      <point x="302" y="223" type="line"/>
      <point x="302" y="261" type="line"/>
      <point x="32" y="261" type="line"/>
    </contour>
    <component base="t" xOffset="7"/>
  </outline>
</glyph>
<glyph name="uni02C9" format="2">
  <advance width="530"/>
  <unicode hex="02C9"/>
  <outline>
    <contour>
      <point x="115" y="599" type="line"/>
      <point x="415" y="599" type="line"/>
      <point x="415" y="637" type="line"/>
      <point x="115" y="637" type="line"/>
    </contour>
  </outline>
</glyph>
<glyph name="gravecomb" format="2">
  <unicode hex="0300"/>
  <anchor x="282" y="470" name="_top"/>
  <outline>
    <contour>
      <point x="339" y="543" type="line"/>
      <point x="357" y="559" type="line"/>
      <point x="234" y="715" type="line" smooth="yes"/>
      <point x="228" y="723"/>
      <point x="217" y="728"/>
      <point x="208" y="728" type="curve" smooth="yes"/>
      <point x="189" y="728"/>
      <point x="174" y="713"/>
      <point x="174" y="694" type="curve" smooth="yes"/>
      <point x="174" y="676"/>
      <point x="185" y="669"/>
      <point x="192" y="663" type="curve" smooth="yes"/>
    </contour>
  </outline>
</glyph>
<glyph name="circumflexcomb" format="2">
  <unicode hex="0302"/>
  <anchor x="265" y="470" name="_top"/>
  <outline>
    <contour>
      <point x="270" y="707" type="line"/>
      <point x="260" y="707" type="line"/>
      <point x="128" y="568" type="line"/>
      <point x="141" y="555" type="line"/>
      <point x="266" y="631" type="line"/>
      <point x="389" y="554" type="line"/>
      <point x="402" y="567" type="line"/>
    </contour>
  </outline>
</glyph>
<glyph name="brevecomb" format="2">
  <unicode hex="0306"/>
  <anchor x="264" y="470" name="_top"/>
  <outline>
    <contour>
      <point x="265" y="542" type="curve" smooth="yes"/>
      <point x="347" y="542"/>
      <point x="403" y="601"/>
      <point x="403" y="692" type="curve"/>
      <point x="379" y="692" type="line"/>
      <point x="379" y="642"/>
      <point x="322" y="603"/>
      <point x="264" y="603" type="curve" smooth="yes"/>
      <point x="209" y="603"/>
      <point x="149" y="642"/>
      <point x="149" y="692" type="curve"/>
      <point x="127" y="692" type="line"/>
      <point x="127" y="603"/>
      <point x="183" y="542"/>
    </contour>
  </outline>
</glyph>
<glyph name="dotaccentcomb" format="2">
  <unicode hex="0307"/>
  <anchor x="264" y="470" name="_top"/>
  <outline>
    <contour>
      <point x="264" y="562" type="curve" smooth="yes"/>
      <point x="296" y="562"/>
      <point x="322" y="588"/>
      <point x="322" y="618" type="curve" smooth="yes"/>
      <point x="322" y="650"/>
      <point x="296" y="676"/>
      <point x="264" y="676" type="curve" smooth="yes"/>
      <point x="234" y="676"/>
      <point x="208" y="650"/>
      <point x="208" y="618" type="curve" smooth="yes"/>
      <point x="208" y="588"/>
      <point x="234" y="562"/>
    </contour>
  </outline>
</glyph>
<glyph name="dieresiscomb" format="2">
  <unicode hex="0308"/>
  <anchor x="265" y="470" name="_top"/>
  <outline>
    <contour>
      <point x="114" y="622" type="curve" smooth="yes"/>
      <point x="114" y="595"/>
      <point x="138" y="571"/>
      <point x="165" y="571" type="curve" smooth="yes"/>
      <point x="194" y="571"/>
      <point x="218" y="595"/>
      <point x="218" y="622" type="curve" smooth="yes"/>
      <point x="218" y="651"/>
      <point x="194" y="675"/>
      <point x="165" y="675" type="curve" smooth="yes"/>
      <point x="138" y="675"/>
      <point x="114" y="651"/>
    </contour>
    <contour>
      <point x="313" y="622" type="curve" smooth="yes"/>
      <point x="313" y="595"/>
      <point x="337" y="571"/>
      <point x="364" y="571" type="curve" smooth="yes"/>
      <point x="393" y="571"/>
      <point x="417" y="595"/>
      <point x="417" y="622" type="curve" smooth="yes"/>
      <point x="417" y="651"/>
      <point x="393" y="675"/>
      <point x="364" y="675" type="curve" smooth="yes"/>
      <point x="337" y="675"/>
      <point x="313" y="651"/>
    </contour>
  </outline>
</glyph>
<glyph name="ringcomb" format="2">
  <unicode hex="030A"/>
  <anchor x="265" y="470" name="_top"/>
  <outline>
    <contour>
      <point x="154" y="616" type="curve" smooth="yes"/>
      <point x="154" y="555"/>
      <point x="204" y="505"/>
      <point x="265" y="505" type="curve" smooth="yes"/>
      <point x="326" y="505"/>
      <point x="376" y="555"/>
      <point x="376" y="616" type="curve" smooth="yes"/>
      <point x="376" y="677"/>
      <point x="326" y="727"/>
      <point x="265" y="727" type="curve" smooth="yes"/>
      <point x="204" y="727"/>
      <point x="154" y="677"/>
    </contour>
    <contour>
      <point x="194" y="616" type="curve" smooth="yes"/>
      <point x="194" y="655"/>
      <point x="227" y="687"/>
      <point x="266" y="687" type="curve" smooth="yes"/>
      <point x="305" y="687"/>
      <point x="336" y="655"/>
      <point x="336" y="616" type="curve" smooth="yes"/>
      <point x="336" y="577"/>
      <point x="305" y="545"/>
      <point x="266" y="545" type="curve" smooth="yes"/>
      <point x="227" y="545"/>
      <point x="194" y="577"/>
    </contour>
  </outline>
</glyph>
<glyph name="caroncomb" format="2">
  <unicode hex="030C"/>
  <anchor x="264" y="470" name="_top"/>
  <outline>
    <contour>
      <point x="260" y="539" type="line"/>
      <point x="270" y="539" type="line"/>
      <point x="402" y="678" type="line"/>
      <point x="389" y="691" type="line"/>
      <point x="264" y="615" type="line"/>
      <point x="141" y="692" type="line"/>
      <point x="128" y="679" type="line"/>
    </contour>
  </outline>
</glyph>
<glyph name="commaturnedabovecomb" format="2">
  <unicode hex="0312"/>
  <anchor x="265" y="470" name="_top"/>
  <outline>
    <contour>
      <point x="341" y="726" type="line"/>
      <point x="241" y="723"/>
      <point x="182" y="663"/>
      <point x="182" y="602" type="curve" smooth="yes"/>
      <point x="182" y="558"/>
      <point x="229" y="512"/>
      <point x="293" y="512" type="curve"/>
      <point x="308" y="543"/>
      <point x="326" y="556"/>
      <point x="349" y="567" type="curve"/>
      <point x="349" y="588" type="line"/>
      <point x="342" y="587"/>
      <point x="336" y="587"/>
      <point x="330" y="587" type="curve" smooth="yes"/>
      <point x="274" y="587"/>
      <point x="247" y="613"/>
      <point x="247" y="643" type="curve" smooth="yes"/>
      <point x="247" y="675"/>
      <point x="278" y="707"/>
      <point x="341" y="709" type="curve"/>
    </contour>
  </outline>
</glyph>
<glyph name="cedillacomb" format="2">
  <unicode hex="0327"/>
  <anchor x="274" y="-53" name="_bottom"/>
  <outline>
    <contour>
      <point x="167" y="-247" type="line"/>
      <point x="269" y="-241"/>
      <point x="364" y="-210"/>
      <point x="364" y="-122" type="curve" smooth="yes"/>
      <point x="364" y="-72"/>
      <point x="312" y="-50"/>
      <point x="244" y="-42" type="curve"/>
      <point x="255" y="0" type="line"/>
      <point x="223" y="0" type="line"/>
      <point x="196" y="-94" type="line"/>
      <point x="267" y="-96"/>
      <point x="298" y="-118"/>
      <point x="298" y="-155" type="curve" smooth="yes"/>
      <point x="298" y="-202"/>
      <point x="235" y="-218"/>
      <point x="167" y="-221" type="curve"/>
    </contour>
  </outline>
</glyph>
<glyph name="ogonekcomb" format="2">
  <unicode hex="0328"/>
  <anchor x="274" y="-51" name="_ogonek"/>
  <outline>
    <contour>
      <point x="255" y="-225" type="curve" smooth="yes"/>
      <point x="293" y="-225"/>
      <point x="342" y="-198"/>
      <point x="381" y="-158" type="curve"/>
      <point x="369" y="-144" type="line"/>
      <point x="340" y="-163"/>
      <point x="311" y="-181"/>
      <point x="281" y="-181" type="curve" smooth="yes"/>
      <point x="245" y="-181"/>
      <point x="217" y="-160"/>
      <point x="217" y="-104" type="curve" smooth="yes"/>
      <point x="217" y="-49"/>
      <point x="283" y="-10"/>
      <point x="327" y="5" type="curve"/>
      <point x="287" y="12" type="line"/>
      <point x="232" y="-7"/>
      <point x="148" y="-51"/>
      <point x="148" y="-102" type="curve" smooth="yes"/>
      <point x="148" y="-166"/>
      <point x="197" y="-225"/>
    </contour>
  </outline>
</glyph>
<glyph name="Delta" format="2">
  <advance width="631"/>
  <unicode hex="0394"/>
  <outline>
    <contour>
      <point x="15" y="0" type="line"/>
      <point x="616" y="0" type="line"/>
      <point x="359" y="673" type="line"/>
      <point x="310" y="673" type="line"/>
      <point x="285" y="631" type="line"/>
      <point x="488" y="85" type="line"/>
      <point x="96" y="85" type="line"/>
      <point x="337" y="673" type="line"/>
      <point x="292" y="673" type="line"/>
    </contour>
  </outline>
</glyph>
<glyph name="quoteleft" format="2">
  <advance width="265"/>
  <unicode hex="2018"/>
  <outline>
    <contour>
      <point x="212" y="680" type="line"/>
      <point x="115" y="673"/>
      <point x="52" y="593"/>
      <point x="52" y="506" type="curve" smooth="yes"/>
      <point x="52" y="442"/>
      <point x="89" y="402"/>
      <point x="148" y="381" type="curve"/>
      <point x="163" y="414"/>
      <point x="178" y="431"/>
      <point x="204" y="448" type="curve"/>
      <point x="204" y="471" type="line"/>
      <point x="149" y="479"/>
      <point x="112" y="511"/>
      <point x="112" y="552" type="curve" smooth="yes"/>
      <point x="112" y="610"/>
      <point x="152" y="654"/>
      <point x="212" y="663" type="curve"/>
    </contour>
  </outline>
</glyph>
<glyph name="dagger" format="2">
  <advance width="555"/>
  <unicode hex="2020"/>
  <outline>
    <contour>
      <point x="267" y="-170" type="curve"/>
      <point x="285" y="-170" type="line"/>
      <point x="286" y="-38"/>
      <point x="298" y="213"/>
      <point x="336" y="253" type="curve"/>
      <point x="324" y="267"/>
      <point x="287" y="323"/>
      <point x="287" y="420" type="curve" smooth="yes"/>
      <point x="287" y="425" type="line"/>
      <point x="265" y="425" type="line"/>
      <point x="265" y="420" type="line" smooth="yes"/>
      <point x="265" y="323"/>
      <point x="228" y="267"/>
      <point x="216" y="253" type="curve"/>
      <point x="254" y="213"/>
      <point x="266" y="-38"/>
    </contour>
    <contour>
      <point x="86" y="374" type="curve" smooth="yes"/>
      <point x="110" y="374"/>
      <point x="134" y="383"/>
      <point x="161" y="393" type="curve" smooth="yes"/>
      <point x="192" y="404"/>
      <point x="226" y="417"/>
      <point x="266" y="417" type="curve" smooth="yes"/>
      <point x="289" y="417" type="line" smooth="yes"/>
      <point x="329" y="417"/>
      <point x="363" y="404"/>
      <point x="394" y="393" type="curve" smooth="yes"/>
      <point x="421" y="383"/>
      <point x="445" y="374"/>
      <point x="469" y="374" type="curve" smooth="yes"/>
      <point x="499" y="374"/>
      <point x="510" y="409"/>
      <point x="510" y="425" type="curve" smooth="yes"/>
      <point x="510" y="441"/>
      <point x="499" y="475"/>
      <point x="469" y="475" type="curve" smooth="yes"/>
      <point x="445" y="475"/>
      <point x="421" y="466"/>
      <point x="394" y="456" type="curve" smooth="yes"/>
      <point x="363" y="445"/>
      <point x="329" y="432"/>
      <point x="289" y="432" type="curve" smooth="yes"/>
      <point x="266" y="432" type="line" smooth="yes"/>
      <point x="226" y="432"/>
      <point x="192" y="445"/>
      <point x="161" y="456" type="curve" smooth="yes"/>
      <point x="134" y="466"/>
      <point x="110" y="475"/>
      <point x="86" y="475" type="curve" smooth="yes"/>
      <point x="56" y="475"/>
      <point x="45" y="441"/>
      <point x="45" y="425" type="curve" smooth="yes"/>
      <point x="45" y="409"/>
      <point x="56" y="374"/>
    </contour>
    <contour>
      <point x="266" y="425" type="line"/>
      <point x="287" y="425" type="line"/>
      <point x="287" y="451" type="line" smooth="yes"/>
      <point x="287" y="497"/>
      <point x="297" y="535"/>
      <point x="308" y="570" type="curve" smooth="yes"/>
      <point x="318" y="601"/>
      <point x="327" y="628"/>
      <point x="327" y="655" type="curve" smooth="yes"/>
      <point x="327" y="690"/>
      <point x="292" y="702"/>
      <point x="276" y="702" type="curve" smooth="yes"/>
      <point x="260" y="702"/>
      <point x="226" y="690"/>
      <point x="226" y="655" type="curve" smooth="yes"/>
      <point x="226" y="628"/>
      <point x="235" y="601"/>
      <point x="245" y="570" type="curve" smooth="yes"/>
      <point x="256" y="535"/>
      <point x="266" y="497"/>
      <point x="266" y="451" type="curve" smooth="yes"/>
    </contour>
  </outline>
</glyph>
<glyph name="guilsinglleft" format="2">
  <advance width="212"/>
  <unicode hex="2039"/>
  <outline>
    <contour>
      <point x="163" y="66" type="line"/>
      <point x="176" y="75" type="line"/>
      <point x="101" y="204" type="line"/>
      <point x="177" y="331" type="line"/>
      <point x="164" y="340" type="line"/>
      <point x="25" y="206" type="line"/>
      <point x="25" y="200" type="line"/>
    </contour>
  </outline>
</glyph>
<glyph name="guilsinglright" format="2">
  <advance width="212"/>
  <unicode hex="203A"/>
  <outline>
    <contour>
      <point x="49" y="66" type="line"/>
      <point x="187" y="200" type="line"/>
      <point x="187" y="206" type="line"/>
      <point x="48" y="340" type="line"/>
      <point x="35" y="331" type="line"/>
      <point x="111" y="204" type="line"/>
      <point x="36" y="75" type="line"/>
    </contour>
  </outline>
</glyph>
<glyph name="fraction" format="2">
  <advance width="391"/>
  <unicode hex="2044"/>
  <outline>
    <contour>
      <point x="385" y="683" type="line"/>
      <point x="-40" y="0" type="line"/>
      <point x="7" y="0" type="line"/>
      <point x="431" y="683" type="line"/>
    </contour>
  </outline>
</glyph>
<glyph name="foursuperior" format="2">
  <advance width="317"/>
  <unicode hex="2074"/>
  <outline>
    <contour>
      <point x="93" y="349" type="line"/>
      <point x="271" y="349" type="line"/>
      <point x="271" y="364" type="line"/>
      <point x="242" y="370" type="line" smooth="yes"/>
      <point x="217" y="375"/>
      <point x="213" y="382"/>
      <point x="213" y="402" type="curve" smooth="yes"/>
      <point x="213" y="691" type="line"/>
      <point x="199" y="691" type="line"/>
      <point x="4" y="451" type="line"/>
      <point x="4" y="430" type="line"/>
      <point x="255" y="430" type="line"/>
      <point x="274" y="509" type="line"/>
      <point x="263" y="509" type="line"/>
      <point x="254" y="489" type="line" smooth="yes"/>
      <point x="249" y="477"/>
      <point x="242" y="472"/>
      <point x="230" y="472" type="curve" smooth="yes"/>
      <point x="33" y="472" type="line"/>
      <point x="35" y="460" type="line"/>
      <point x="161" y="613" type="line"/>
      <point x="150" y="618" type="line"/>
      <point x="150" y="402" type="line" smooth="yes"/>
      <point x="150" y="381"/>
      <point x="146" y="375"/>
      <point x="121" y="370" type="curve" smooth="yes"/>
      <point x="93" y="364" type="line"/>
    </contour>
  </outline>
</glyph>
<glyph name="trademark" format="2">
  <advance width="740"/>
  <unicode hex="2122"/>
  <guideline x="704" y="343" angle="90"/>
  <outline>
    <contour>
      <point x="500" y="411" type="line"/>
      <point x="503" y="411" type="line"/>
      <point x="613" y="685" type="line"/>
      <point x="601" y="687" type="line"/>
      <point x="606" y="447" type="line" smooth="yes"/>
      <point x="606" y="438"/>
      <point x="604" y="435"/>
      <point x="593" y="433" type="curve" smooth="yes"/>
      <point x="563" y="427" type="line"/>
      <point x="563" y="414" type="line"/>
      <point x="705" y="414" type="line"/>
      <point x="705" y="427" type="line"/>
      <point x="680" y="432" type="line" smooth="yes"/>
      <point x="656" y="437"/>
      <point x="656" y="438"/>
      <point x="655" y="458" type="curve" smooth="yes"/>
      <point x="649" y="664" type="line" smooth="yes"/>
      <point x="648" y="684"/>
      <point x="652" y="689"/>
      <point x="673" y="692" type="curve" smooth="yes"/>
      <point x="700" y="698" type="line"/>
      <point x="700" y="710" type="line"/>
      <point x="603" y="710" type="line"/>
      <point x="505" y="466" type="line"/>
      <point x="521" y="485" type="line"/>
      <point x="426" y="710" type="line"/>
      <point x="337" y="710" type="line"/>
      <point x="337" y="698" type="line"/>
      <point x="354" y="694" type="line" smooth="yes"/>
      <point x="378" y="689"/>
      <point x="383" y="684"/>
      <point x="382" y="664" type="curve" smooth="yes"/>
      <point x="373" y="458" type="line" smooth="yes"/>
      <point x="372" y="440"/>
      <point x="369" y="437"/>
      <point x="346" y="433" type="curve" smooth="yes"/>
      <point x="319" y="427" type="line"/>
      <point x="319" y="414" type="line"/>
      <point x="440" y="414" type="line"/>
      <point x="440" y="427" type="line"/>
      <point x="415" y="433" type="line" smooth="yes"/>
      <point x="391" y="438"/>
      <point x="387" y="440"/>
      <point x="388" y="458" type="curve" smooth="yes"/>
      <point x="400" y="698" type="line"/>
      <point x="383" y="695" type="line"/>
    </contour>
    <contour>
      <point x="80" y="414" type="line"/>
      <point x="233" y="414" type="line"/>
      <point x="233" y="427" type="line"/>
      <point x="208" y="432" type="line" smooth="yes"/>
      <point x="185" y="436"/>
      <point x="184" y="438"/>
      <point x="184" y="458" type="curve" smooth="yes"/>
      <point x="184" y="695" type="line"/>
      <point x="213" y="695" type="line"/>
      <point x="253" y="695"/>
      <point x="275" y="665"/>
      <point x="285" y="628" type="curve"/>
      <point x="298" y="628" type="line"/>
      <point x="292" y="662"/>
      <point x="290" y="681"/>
      <point x="293" y="710" type="curve"/>
      <point x="19" y="710" type="line"/>
      <point x="23" y="681"/>
      <point x="21" y="662"/>
      <point x="15" y="628" type="curve"/>
      <point x="29" y="628" type="line"/>
      <point x="38" y="665"/>
      <point x="60" y="695"/>
      <point x="100" y="695" type="curve" smooth="yes"/>
      <point x="129" y="695" type="line"/>
      <point x="129" y="458" type="line" smooth="yes"/>
      <point x="129" y="438"/>
      <point x="129" y="436"/>
      <point x="105" y="432" type="curve" smooth="yes"/>
      <point x="80" y="427" type="line"/>
    </contour>
  </outline>
</glyph>
<glyph name="product" format="2">
  <advance width="820"/>
  <unicode hex="220F"/>
  <outline>
    <contour>
      <point x="440" y="-107" type="line"/>
      <point x="780" y="-107" type="line"/>
      <point x="780" y="-89" type="line"/>
      <point x="719" y="-78" type="line" smooth="yes"/>
      <point x="664" y="-68"/>
      <point x="655" y="-61"/>
      <point x="655" y="-19" type="curve" smooth="yes"/>
      <point x="655" y="623" type="line" smooth="yes"/>
      <point x="655" y="665"/>
      <point x="664" y="672"/>
      <point x="719" y="682" type="curve" smooth="yes"/>
      <point x="780" y="693" type="line"/>
      <point x="780" y="711" type="line"/>
      <point x="440" y="711" type="line"/>
      <point x="440" y="693" type="line"/>
      <point x="565" y="693" type="line"/>
      <point x="565" y="-19" type="line" smooth="yes"/>
      <point x="565" y="-61"/>
      <point x="556" y="-68"/>
      <point x="501" y="-78" type="curve" smooth="yes"/>
      <point x="440" y="-89" type="line"/>
    </contour>
    <contour>
      <point x="40" y="-107" type="line"/>
      <point x="380" y="-107" type="line"/>
      <point x="380" y="-89" type="line"/>
      <point x="319" y="-78" type="line" smooth="yes"/>
      <point x="264" y="-68"/>
      <point x="255" y="-61"/>
      <point x="255" y="-19" type="curve" smooth="yes"/>
      <point x="255" y="690" type="line"/>
      <point x="380" y="693" type="line"/>
      <point x="380" y="711" type="line"/>
      <point x="40" y="711" type="line"/>
      <point x="40" y="693" type="line"/>
      <point x="101" y="682" type="line" smooth="yes"/>
      <point x="156" y="672"/>
      <point x="165" y="665"/>
      <point x="165" y="623" type="curve" smooth="yes"/>
      <point x="165" y="-19" type="line" smooth="yes"/>
      <point x="165" y="-61"/>
      <point x="156" y="-68"/>
      <point x="101" y="-78" type="curve" smooth="yes"/>
      <point x="40" y="-89" type="line"/>
    </contour>
    <contour>
      <point x="237" y="683" type="line"/>
      <point x="589" y="683" type="line"/>
      <point x="589" y="711" type="line"/>
      <point x="237" y="711" type="line"/>
    </contour>
  </outline>
</glyph>
<glyph name="summation" format="2">
  <advance width="556"/>
  <unicode hex="2211"/>
  <guideline x="564" y="484" angle="90"/>
  <outline>
    <contour>
      <point x="10" y="-107" type="line"/>
      <point x="488" y="-107" type="line"/>
      <point x="516" y="68" type="line"/>
      <point x="498" y="68" type="line"/>
      <point x="487" y="34" type="line" smooth="yes"/>
      <point x="471" y="-14"/>
      <point x="464" y="-22"/>
      <point x="427" y="-22" type="curve" smooth="yes"/>
      <point x="92" y="-22" type="line"/>
      <point x="308" y="344" type="line"/>
      <point x="113" y="683" type="line"/>
      <point x="411" y="683" type="line" smooth="yes"/>
      <point x="448" y="683"/>
      <point x="455" y="675"/>
      <point x="471" y="627" type="curve" smooth="yes"/>
      <point x="482" y="593" type="line"/>
      <point x="500" y="593" type="line"/>
      <point x="478" y="711" type="line"/>
      <point x="10" y="711" type="line"/>
      <point x="10" y="690" type="line"/>
      <point x="236" y="298" type="line"/>
      <point x="10" y="-84" type="line"/>
    </contour>
  </outline>
</glyph>
<glyph name="minus" format="2">
  <advance width="530"/>
  <unicode hex="2212"/>
  <outline>
    <contour>
      <point x="73" y="316" type="line"/>
      <point x="457" y="316" type="line"/>
      <point x="457" y="354" type="line"/>
      <point x="73" y="354" type="line"/>
    </contour>
  </outline>
</glyph>
<glyph name="radical" format="2">
  <advance width="400"/>
  <unicode hex="221A"/>
  <outline>
    <contour>
      <point x="194" y="0" type="line"/>
      <point x="228" y="0" type="line"/>
      <point x="385" y="711" type="line"/>
      <point x="351" y="711" type="line"/>
    </contour>
    <contour>
      <point x="174" y="0" type="line"/>
      <point x="228" y="0" type="line"/>
      <point x="125" y="410" type="line"/>
      <point x="68" y="410" type="line"/>
    </contour>
    <contour>
      <point x="15" y="363" type="line"/>
      <point x="125" y="363" type="line"/>
      <point x="125" y="410" type="line"/>
      <point x="15" y="410" type="line"/>
    </contour>
  </outline>
</glyph>
<glyph name="notequal" format="2">
  <advance width="600"/>
  <unicode hex="2260"/>
  <guideline x="73" y="172" angle="90"/>
  <guideline x="457" y="178" angle="90"/>
  <outline>
    <contour>
      <point x="70" y="88" type="line"/>
      <point x="113" y="88" type="line"/>
      <point x="457" y="580" type="line"/>
      <point x="414" y="580" type="line"/>
    </contour>
    <component base="equal"/>
  </outline>
</glyph>
<glyph name="lessequal" format="2">
  <advance width="530"/>
  <unicode hex="2264"/>
  <outline>
    <contour>
      <point x="455" y="217" type="line"/>
      <point x="455" y="259" type="line"/>
      <point x="98" y="379" type="line"/>
      <point x="98" y="370" type="line"/>
      <point x="454" y="489" type="line"/>
      <point x="454" y="531" type="line"/>
      <point x="79" y="395" type="line"/>
      <point x="80" y="353" type="line"/>
    </contour>
    <contour>
      <point x="457" y="162" type="line"/>
      <point x="457" y="200" type="line"/>
      <point x="73" y="200" type="line"/>
      <point x="73" y="162" type="line"/>
    </contour>
  </outline>
</glyph>
<glyph name="lozenge" format="2">
  <advance width="416"/>
  <unicode hex="25CA"/>
  <outline>
    <contour>
      <point x="184" y="-61" type="line"/>
      <point x="232" y="-61" type="line"/>
      <point x="396" y="295" type="line"/>
      <point x="232" y="651" type="line"/>
      <point x="184" y="651" type="line"/>
      <point x="20" y="295" type="line"/>
    </contour>
    <contour>
      <point x="202" y="-14" type="line"/>
      <point x="214" y="-14" type="line"/>
      <point x="73" y="295" type="line"/>
      <point x="214" y="604" type="line"/>
      <point x="202" y="604" type="line"/>
      <point x="343" y="295" type="line"/>
    </contour>
  </outline>
</glyph>
<glyph name="fi" format="2">
  <advance width="526"/>
  <unicode hex="FB01"/>
  <anchor x="273" y="0" name="caret_1"/>
  <outline>
    <contour>
      <point x="35" y="0" type="line"/>
      <point x="244" y="0" type="line"/>
      <point x="244" y="15" type="line"/>
      <point x="196" y="26" type="line" smooth="yes"/>
      <point x="176" y="31"/>
      <point x="170" y="39"/>
      <point x="170" y="58" type="curve" smooth="yes"/>
      <point x="170" y="396" type="line"/>
      <point x="305" y="396" type="line"/>
      <point x="344" y="385" type="line" smooth="yes"/>
      <point x="362" y="380"/>
      <point x="368" y="371"/>
      <point x="368" y="345" type="curve" smooth="yes"/>
      <point x="368" y="58" type="line" smooth="yes"/>
      <point x="368" y="42"/>
      <point x="360" y="31"/>
      <point x="342" y="26" type="curve" smooth="yes"/>
      <point x="300" y="15" type="line"/>
      <point x="300" y="0" type="line"/>
      <point x="501" y="0" type="line"/>
      <point x="501" y="15" type="line"/>
      <point x="459" y="26" type="line" smooth="yes"/>
      <point x="443" y="30"/>
      <point x="435" y="41"/>
      <point x="435" y="58" type="curve" smooth="yes"/>
      <point x="435" y="328" type="line" smooth="yes"/>
      <point x="435" y="374"/>
      <point x="436" y="402"/>
      <point x="447" y="432" type="curve"/>
      <point x="438" y="438" type="line"/>
      <point x="413" y="426" type="line"/>
      <point x="170" y="426" type="line"/>
      <point x="170" y="465" type="line" smooth="yes"/>
      <point x="170" y="565"/>
      <point x="198" y="685"/>
      <point x="314" y="685" type="curve" smooth="yes"/>
      <point x="333" y="685"/>
      <point x="342" y="673"/>
      <point x="342" y="660" type="curve" smooth="yes"/>
      <point x="342" y="657"/>
      <point x="341" y="654"/>
      <point x="340" y="651" type="curve" smooth="yes"/>
      <point x="339" y="647"/>
      <point x="338" y="643"/>
      <point x="338" y="638" type="curve" smooth="yes"/>
      <point x="339" y="617"/>
      <point x="355" y="596"/>
      <point x="382" y="596" type="curve" smooth="yes"/>
      <point x="412" y="596"/>
      <point x="427" y="619"/>
      <point x="427" y="641" type="curve" smooth="yes"/>
      <point x="427" y="681"/>
      <point x="382" y="711"/>
      <point x="322" y="711" type="curve" smooth="yes"/>
      <point x="161" y="711"/>
      <point x="103" y="575"/>
      <point x="103" y="454" type="curve" smooth="yes"/>
      <point x="103" y="426" type="line"/>
      <point x="36" y="426" type="line"/>
      <point x="36" y="396" type="line"/>
      <point x="103" y="396" type="line"/>
      <point x="103" y="58" type="line" smooth="yes"/>
      <point x="103" y="39"/>
      <point x="97" y="31"/>
      <point x="77" y="26" type="curve" smooth="yes"/>
      <point x="35" y="15" type="line"/>
    </contour>
  </outline>
</glyph>
<glyph name="fl" format="2">
  <advance width="534"/>
  <unicode hex="FB02"/>
  <anchor x="269" y="0" name="caret_1"/>
  <outline>
    <contour>
      <point x="35" y="0" type="line"/>
      <point x="244" y="0" type="line"/>
      <point x="244" y="15" type="line"/>
      <point x="196" y="26" type="line" smooth="yes"/>
      <point x="176" y="31"/>
      <point x="170" y="39"/>
      <point x="170" y="58" type="curve" smooth="yes"/>
      <point x="170" y="396" type="line"/>
      <point x="294" y="396" type="line"/>
      <point x="304" y="426" type="line"/>
      <point x="170" y="426" type="line"/>
      <point x="170" y="477" type="line" smooth="yes"/>
      <point x="170" y="568"/>
      <point x="193" y="689"/>
      <point x="296" y="689" type="curve"/>
      <point x="351" y="689"/>
      <point x="368" y="661"/>
      <point x="368" y="609" type="curve" smooth="yes"/>
      <point x="366" y="58" type="line" smooth="yes"/>
      <point x="366" y="39"/>
      <point x="360" y="31"/>
      <point x="340" y="26" type="curve" smooth="yes"/>
      <point x="298" y="15" type="line"/>
      <point x="298" y="0" type="line"/>
      <point x="501" y="0" type="line"/>
      <point x="501" y="15" type="line"/>
      <point x="459" y="26" type="line" smooth="yes"/>
      <point x="439" y="31"/>
      <point x="433" y="39"/>
      <point x="433" y="58" type="curve" smooth="yes"/>
      <point x="435" y="582" type="line" smooth="yes"/>
      <point x="435" y="678"/>
      <point x="385" y="711"/>
      <point x="312" y="711" type="curve" smooth="yes"/>
      <point x="196" y="711"/>
      <point x="103" y="631"/>
      <point x="103" y="467" type="curve" smooth="yes"/>
      <point x="103" y="426" type="line"/>
      <point x="36" y="426" type="line"/>
      <point x="36" y="396" type="line"/>
      <point x="103" y="396" type="line"/>
      <point x="103" y="58" type="line" smooth="yes"/>
      <point x="103" y="39"/>
      <point x="97" y="31"/>
      <point x="77" y="26" type="curve" smooth="yes"/>
      <point x="35" y="15" type="line"/>
    </contour>
  </outline>
</glyph>
<glyph name="f_f_l" format="2">
  <advance width="802"/>
  <unicode hex="FB04"/>
  <anchor x="272" y="0" name="caret_1"/>
  <anchor x="539" y="0" name="caret_2"/>
  <outline>
    <contour>
      <point x="35" y="0" type="line"/>
      <point x="244" y="0" type="line"/>
      <point x="244" y="15" type="line"/>
      <point x="196" y="26" type="line" smooth="yes"/>
      <point x="176" y="31"/>
      <point x="170" y="39"/>
      <point x="170" y="58" type="curve" smooth="yes"/>
      <point x="170" y="396" type="line"/>
      <point x="395" y="396" type="line"/>
      <point x="395" y="426" type="line"/>
      <point x="170" y="426" type="line"/>
      <point x="170" y="440" type="line" smooth="yes"/>
      <point x="170" y="551"/>
      <point x="207" y="670"/>
      <point x="317" y="670" type="curve" smooth="yes"/>
      <point x="360" y="670"/>
      <point x="405" y="640"/>
      <point x="414" y="602" type="curve"/>
      <point x="456" y="651" type="line"/>
      <point x="428" y="675"/>
      <point x="376" y="691"/>
      <point x="333" y="691" type="curve" smooth="yes"/>
      <point x="166" y="691"/>
      <point x="103" y="562"/>
      <point x="103" y="446" type="curve" smooth="yes"/>
      <point x="103" y="426" type="line"/>
      <point x="36" y="426" type="line"/>
      <point x="36" y="396" type="line"/>
      <point x="103" y="396" type="line"/>
      <point x="103" y="58" type="line" smooth="yes"/>
      <point x="103" y="39"/>
      <point x="97" y="31"/>
      <point x="77" y="26" type="curve" smooth="yes"/>
      <point x="35" y="15" type="line"/>
    </contour>
    <component base="fl" xOffset="268"/>
  </outline>
</glyph>
<glyph name="s_t" format="2">
  <advance width="691"/>
  <unicode hex="FB06"/>
  <anchor x="381" y="0" name="caret_1"/>
  <outline>
    <contour>
      <point x="456" y="349" type="line"/>
      <point x="522" y="408" type="line"/>
      <point x="522" y="542" type="line"/>
      <point x="522" y="662"/>
      <point x="418" y="713"/>
      <point x="324" y="713" type="curve" smooth="yes"/>
      <point x="201" y="713"/>
      <point x="123" y="643"/>
      <point x="123" y="548" type="curve" smooth="yes"/>
      <point x="123" y="497"/>
      <point x="160" y="446"/>
      <point x="236" y="417" type="curve"/>
      <point x="276" y="413" type="line"/>
      <point x="232" y="438"/>
      <point x="190" y="469"/>
      <point x="190" y="542" type="curve" smooth="yes"/>
      <point x="190" y="650"/>
      <point x="243" y="695"/>
      <point x="321" y="695" type="curve" smooth="yes"/>
      <point x="409" y="695"/>
      <point x="456" y="632"/>
      <point x="456" y="525" type="curve" smooth="yes"/>
    </contour>
    <component base="s"/>
    <component base="t" xOffset="363"/>
  </outline>
</glyph>
<glyph name="b.sc" format="2">
  <advance width="608"/>
  <outline>
    <contour>
      <point x="52" y="0" type="line"/>
      <point x="311" y="0" type="line" smooth="yes"/>
      <point x="442" y="0"/>
      <point x="548" y="50"/>
      <point x="548" y="158" type="curve" smooth="yes"/>
      <point x="548" y="248"/>
      <point x="458" y="288"/>
      <point x="379" y="298" type="curve"/>
      <point x="379" y="300" type="line"/>
      <point x="458" y="314"/>
      <point x="517" y="346"/>
      <point x="517" y="414" type="curve" smooth="yes"/>
      <point x="517" y="489"/>
      <point x="443" y="538"/>
      <point x="328" y="538" type="curve" smooth="yes"/>
      <point x="52" y="538" type="line"/>
      <point x="52" y="524" type="line"/>
      <point x="103" y="515" type="line" smooth="yes"/>
      <point x="150" y="507"/>
      <point x="157" y="502"/>
      <point x="157" y="468" type="curve" smooth="yes"/>
      <point x="157" y="70" type="line" smooth="yes"/>
      <point x="157" y="37"/>
      <point x="150" y="31"/>
      <point x="103" y="23" type="curve" smooth="yes"/>
      <point x="52" y="14" type="line"/>
    </contour>
    <contour>
      <point x="294" y="19" type="line" smooth="yes"/>
      <point x="244" y="19"/>
      <point x="232" y="37"/>
      <point x="232" y="72" type="curve" smooth="yes"/>
      <point x="232" y="286" type="line"/>
      <point x="314" y="286" type="line" smooth="yes"/>
      <point x="406" y="286"/>
      <point x="461" y="226"/>
      <point x="461" y="152" type="curve" smooth="yes"/>
      <point x="461" y="68"/>
      <point x="391" y="19"/>
      <point x="314" y="19" type="curve" smooth="yes"/>
    </contour>
    <contour>
      <point x="232" y="306" type="line"/>
      <point x="232" y="519" type="line"/>
      <point x="312" y="519" type="line" smooth="yes"/>
      <point x="394" y="519"/>
      <point x="438" y="481"/>
      <point x="438" y="411" type="curve" smooth="yes"/>
      <point x="438" y="354"/>
      <point x="393" y="306"/>
      <point x="319" y="306" type="curve" smooth="yes"/>
    </contour>
  </outline>
</glyph>
<glyph name="brevecomb.case" format="2">
  <anchor x="265" y="690" name="_topcase"/>
  <outline>
    <contour>
      <point x="265" y="727" type="curve" smooth="yes"/>
      <point x="347" y="727"/>
      <point x="403" y="786"/>
      <point x="403" y="875" type="curve"/>
      <point x="379" y="875" type="line"/>
      <point x="379" y="825"/>
      <point x="322" y="786"/>
      <point x="264" y="786" type="curve" smooth="yes"/>
      <point x="209" y="786"/>
      <point x="149" y="825"/>
      <point x="149" y="875" type="curve"/>
      <point x="127" y="875" type="line"/>
      <point x="127" y="788"/>
      <point x="183" y="727"/>
    </contour>
  </outline>
</glyph>
<glyph name="c_t" format="2">
  <advance width="774"/>
  <anchor x="469" y="0" name="caret_1"/>
  <outline>
    <contour>
      <point x="409" y="322" type="line"/>
      <point x="409" y="425"/>
      <point x="273" y="417"/>
      <point x="273" y="542" type="curve" smooth="yes"/>
      <point x="273" y="650"/>
      <point x="326" y="695"/>
      <point x="404" y="695" type="curve" smooth="yes"/>
      <point x="492" y="695"/>
      <point x="539" y="632"/>
      <point x="539" y="525" type="curve" smooth="yes"/>
      <point x="539" y="349" type="line"/>
      <point x="605" y="408" type="line"/>
      <point x="605" y="542" type="line"/>
      <point x="605" y="662"/>
      <point x="501" y="713"/>
      <point x="407" y="713" type="curve" smooth="yes"/>
      <point x="284" y="713"/>
      <point x="206" y="643"/>
      <point x="206" y="548" type="curve" smooth="yes"/>
      <point x="206" y="497"/>
      <point x="243" y="446"/>
      <point x="319" y="417" type="curve"/>
    </contour>
    <component base="c"/>
    <component base="t" xOffset="446"/>
  </outline>
</glyph>
<glyph name="caroncomb.alt" format="2">
  <outline>
    <contour>
      <point x="233" y="473" type="line"/>
      <point x="315" y="643" type="line" smooth="yes"/>
      <point x="318" y="649"/>
      <point x="322" y="656"/>
      <point x="322" y="665" type="curve" smooth="yes"/>
      <point x="322" y="682"/>
      <point x="310" y="699"/>
      <point x="287" y="699" type="curve" smooth="yes"/>
      <point x="272" y="699"/>
      <point x="258" y="688"/>
      <point x="255" y="673" type="curve" smooth="yes"/>
      <point x="209" y="479" type="line"/>
    </contour>
  </outline>
</glyph>
<glyph name="caroncomb.case" format="2">
  <anchor x="265" y="690" name="_topcase"/>
  <outline>
    <contour>
      <point x="260" y="724" type="line"/>
      <point x="270" y="724" type="line"/>
      <point x="401" y="846" type="line"/>
      <point x="392" y="860" type="line"/>
      <point x="264" y="800" type="line"/>
      <point x="138" y="860" type="line"/>
      <point x="129" y="846" type="line"/>
    </contour>
  </outline>
</glyph>
<glyph name="d.sc" format="2">
  <advance width="713"/>
  <anchor x="354" y="552" name="top"/>
  <outline>
    <contour>
      <point x="52" y="0" type="line"/>
      <point x="317" y="0" type="line" smooth="yes"/>
      <point x="511" y="0"/>
      <point x="657" y="98"/>
      <point x="657" y="268" type="curve" smooth="yes"/>
      <point x="657" y="410"/>
      <point x="532" y="538"/>
      <point x="322" y="538" type="curve" smooth="yes"/>
      <point x="52" y="538" type="line"/>
      <point x="52" y="524" type="line"/>
      <point x="103" y="515" type="line" smooth="yes"/>
      <point x="150" y="507"/>
      <point x="157" y="502"/>
      <point x="157" y="468" type="curve" smooth="yes"/>
      <point x="157" y="70" type="line" smooth="yes"/>
      <point x="157" y="37"/>
      <point x="150" y="31"/>
      <point x="103" y="23" type="curve" smooth="yes"/>
      <point x="52" y="14" type="line"/>
    </contour>
    <contour>
      <point x="317" y="19" type="curve" smooth="yes"/>
      <point x="249" y="19"/>
      <point x="233" y="34"/>
      <point x="233" y="62" type="curve" smooth="yes"/>
      <point x="233" y="519" type="line"/>
      <point x="301" y="519" type="line" smooth="yes"/>
      <point x="473" y="519"/>
      <point x="574" y="432"/>
      <point x="574" y="268" type="curve" smooth="yes"/>
      <point x="574" y="106"/>
      <point x="460" y="19"/>
    </contour>
  </outline>
</glyph>
<glyph name="eight.onum" format="2">
  <advance width="538"/>
  <outline>
    <contour>
      <point x="264" y="-8" type="curve" smooth="yes"/>
      <point x="389" y="-8"/>
      <point x="483" y="60"/>
      <point x="483" y="174" type="curve" smooth="yes"/>
      <point x="483" y="287"/>
      <point x="390" y="327"/>
      <point x="308" y="379" type="curve" smooth="yes"/>
      <point x="230" y="428"/>
      <point x="155" y="464"/>
      <point x="155" y="552" type="curve" smooth="yes"/>
      <point x="155" y="618"/>
      <point x="213" y="652"/>
      <point x="269" y="652" type="curve" smooth="yes"/>
      <point x="338" y="652"/>
      <point x="389" y="616"/>
      <point x="389" y="542" type="curve" smooth="yes"/>
      <point x="389" y="486"/>
      <point x="360" y="421"/>
      <point x="296" y="382" type="curve"/>
      <point x="315" y="367" type="line"/>
      <point x="392" y="391"/>
      <point x="462" y="452"/>
      <point x="462" y="533" type="curve" smooth="yes"/>
      <point x="462" y="625"/>
      <point x="376" y="682"/>
      <point x="284" y="682" type="curve" smooth="yes"/>
      <point x="149" y="682"/>
      <point x="83" y="613"/>
      <point x="83" y="526" type="curve" smooth="yes"/>
      <point x="83" y="429"/>
      <point x="177" y="380"/>
      <point x="256" y="333" type="curve" smooth="yes"/>
      <point x="334" y="286"/>
      <point x="407" y="236"/>
      <point x="407" y="156" type="curve" smooth="yes"/>
      <point x="407" y="83"/>
      <point x="368" y="25"/>
      <point x="278" y="25" type="curve" smooth="yes"/>
      <point x="191" y="25"/>
      <point x="130" y="79"/>
      <point x="130" y="182" type="curve" smooth="yes"/>
      <point x="130" y="243"/>
      <point x="161" y="303"/>
      <point x="246" y="339" type="curve"/>
      <point x="227" y="357" type="line"/>
      <point x="138" y="331"/>
      <point x="55" y="258"/>
      <point x="55" y="162" type="curve" smooth="yes"/>
      <point x="55" y="57"/>
      <point x="154" y="-8"/>
    </contour>
  </outline>
</glyph>
<glyph name="eth.sc" format="2">
  <advance width="713"/>
  <outline>
    <contour>
      <point x="52" y="257" type="line"/>
      <point x="340" y="257" type="line"/>
      <point x="340" y="285" type="line"/>
      <point x="52" y="285" type="line"/>
    </contour>
    <component base="d.sc"/>
  </outline>
</glyph>
<glyph name="f_t" format="2">
  <advance width="602"/>
  <anchor x="315" y="0" name="caret_1"/>
  <anchor x="151" y="710" name="top_1"/>
  <anchor x="452" y="710" name="top_2"/>
  <outline>
    <contour>
      <point x="451" y="-8" type="curve" smooth="yes"/>
      <point x="482" y="-8"/>
      <point x="527" y="13"/>
      <point x="572" y="50" type="curve"/>
      <point x="560" y="66" type="line"/>
      <point x="531" y="50"/>
      <point x="504" y="40"/>
      <point x="482" y="40" type="curve" smooth="yes"/>
      <point x="453" y="40"/>
      <point x="434" y="59"/>
      <point x="434" y="111" type="curve" smooth="yes"/>
      <point x="434" y="396" type="line"/>
      <point x="559" y="396" type="line"/>
      <point x="569" y="426" type="line"/>
      <point x="434" y="426" type="line"/>
      <point x="435" y="582" type="line" smooth="yes"/>
      <point x="435" y="678"/>
      <point x="385" y="711"/>
      <point x="312" y="711" type="curve" smooth="yes"/>
      <point x="196" y="711"/>
      <point x="103" y="631"/>
      <point x="103" y="467" type="curve" smooth="yes"/>
      <point x="103" y="426" type="line"/>
      <point x="36" y="426" type="line"/>
      <point x="36" y="396" type="line"/>
      <point x="103" y="396" type="line"/>
      <point x="103" y="58" type="line" smooth="yes"/>
      <point x="103" y="39"/>
      <point x="97" y="31"/>
      <point x="77" y="26" type="curve" smooth="yes"/>
      <point x="35" y="15" type="line"/>
      <point x="35" y="0" type="line"/>
      <point x="244" y="0" type="line"/>
      <point x="244" y="15" type="line"/>
      <point x="196" y="26" type="line" smooth="yes"/>
      <point x="176" y="31"/>
      <point x="170" y="39"/>
      <point x="170" y="58" type="curve" smooth="yes"/>
      <point x="170" y="396" type="line"/>
      <point x="367" y="396" type="line"/>
      <point x="367" y="102" type="line" smooth="yes"/>
      <point x="367" y="27"/>
      <point x="393" y="-8"/>
    </contour>
    <contour>
      <point x="170" y="426" type="line"/>
      <point x="170" y="477" type="line" smooth="yes"/>
      <point x="170" y="568"/>
      <point x="193" y="689"/>
      <point x="296" y="689" type="curve" smooth="yes"/>
      <point x="371" y="689"/>
      <point x="368" y="635"/>
      <point x="368" y="598" type="curve" smooth="yes"/>
      <point x="367" y="426" type="line"/>
    </contour>
  </outline>
</glyph>
<glyph name="five.onum" format="2">
  <advance width="454"/>
  <outline>
    <contour>
      <point x="179" y="-259" type="curve" smooth="yes"/>
      <point x="321" y="-259"/>
      <point x="398" y="-152"/>
      <point x="398" y="-46" type="curve" smooth="yes"/>
      <point x="398" y="56"/>
      <point x="332" y="143"/>
      <point x="148" y="182" type="curve"/>
      <point x="182" y="336" type="line"/>
      <point x="390" y="355" type="line"/>
      <point x="409" y="461" type="line"/>
      <point x="393" y="461" type="line"/>
      <point x="383" y="428"/>
      <point x="374" y="419"/>
      <point x="347" y="416" type="curve" smooth="yes"/>
      <point x="166" y="398" type="line"/>
      <point x="101" y="130" type="line"/>
      <point x="105" y="127" type="line"/>
      <point x="266" y="86"/>
      <point x="321" y="26"/>
      <point x="321" y="-66" type="curve" smooth="yes"/>
      <point x="321" y="-167"/>
      <point x="265" y="-228"/>
      <point x="167" y="-228" type="curve" smooth="yes"/>
      <point x="124" y="-228"/>
      <point x="80" y="-214"/>
      <point x="80" y="-182" type="curve" smooth="yes"/>
      <point x="80" y="-174"/>
      <point x="85" y="-170"/>
      <point x="90" y="-164" type="curve" smooth="yes"/>
      <point x="96" y="-157"/>
      <point x="104" y="-148"/>
      <point x="104" y="-128" type="curve" smooth="yes"/>
      <point x="104" y="-108"/>
      <point x="86" y="-82"/>
      <point x="56" y="-82" type="curve" smooth="yes"/>
      <point x="33" y="-82"/>
      <point x="10" y="-98"/>
      <point x="10" y="-134" type="curve" smooth="yes"/>
      <point x="10" y="-213"/>
      <point x="88" y="-259"/>
    </contour>
  </outline>
</glyph>
<glyph name="four.onum" format="2">
  <advance width="502"/>
  <outline>
    <contour>
      <point x="306" y="-249" type="line"/>
      <point x="375" y="-239" type="line"/>
      <point x="375" y="438" type="line"/>
      <point x="368" y="438" type="line"/>
      <point x="20" y="-50" type="line"/>
      <point x="20" y="-71" type="line"/>
      <point x="443" y="-71" type="line"/>
      <point x="467" y="66" type="line"/>
      <point x="449" y="66" type="line"/>
      <point x="435" y="23" type="line" smooth="yes"/>
      <point x="427" y="-2"/>
      <point x="420" y="-8"/>
      <point x="392" y="-8" type="curve" smooth="yes"/>
      <point x="65" y="-8" type="line"/>
      <point x="78" y="-19" type="line"/>
      <point x="316" y="319" type="line"/>
      <point x="308" y="319" type="line"/>
    </contour>
  </outline>
</glyph>
<glyph name="h.sc" format="2">
  <advance width="738"/>
  <outline>
    <contour>
      <point x="401" y="0" type="line"/>
      <point x="687" y="0" type="line"/>
      <point x="687" y="14" type="line"/>
      <point x="635" y="23" type="line" smooth="yes"/>
      <point x="589" y="31"/>
      <point x="582" y="37"/>
      <point x="582" y="70" type="curve" smooth="yes"/>
      <point x="582" y="468" type="line" smooth="yes"/>
      <point x="582" y="502"/>
      <point x="589" y="507"/>
      <point x="635" y="515" type="curve" smooth="yes"/>
      <point x="687" y="524" type="line"/>
      <point x="687" y="538" type="line"/>
      <point x="401" y="538" type="line"/>
      <point x="401" y="524" type="line"/>
      <point x="452" y="515" type="line" smooth="yes"/>
      <point x="499" y="507"/>
      <point x="506" y="502"/>
      <point x="506" y="468" type="curve" smooth="yes"/>
      <point x="506" y="70" type="line" smooth="yes"/>
      <point x="506" y="37"/>
      <point x="499" y="31"/>
      <point x="452" y="23" type="curve" smooth="yes"/>
      <point x="401" y="14" type="line"/>
    </contour>
    <contour>
      <point x="52" y="0" type="line"/>
      <point x="338" y="0" type="line"/>
      <point x="337" y="14" type="line"/>
      <point x="286" y="23" type="line" smooth="yes"/>
      <point x="240" y="31"/>
      <point x="233" y="37"/>
      <point x="233" y="70" type="curve" smooth="yes"/>
      <point x="233" y="468" type="line" smooth="yes"/>
      <point x="233" y="502"/>
      <point x="240" y="507"/>
      <point x="286" y="515" type="curve" smooth="yes"/>
      <point x="337" y="524" type="line"/>
      <point x="338" y="538" type="line"/>
      <point x="52" y="538" type="line"/>
      <point x="52" y="524" type="line"/>
      <point x="103" y="515" type="line" smooth="yes"/>
      <point x="150" y="507"/>
      <point x="157" y="502"/>
      <point x="157" y="468" type="curve" smooth="yes"/>
      <point x="157" y="70" type="line" smooth="yes"/>
      <point x="157" y="37"/>
      <point x="150" y="31"/>
      <point x="103" y="23" type="curve" smooth="yes"/>
      <point x="52" y="14" type="line"/>
    </contour>
    <contour>
      <point x="212" y="273" type="line"/>
      <point x="534" y="273" type="line"/>
      <point x="532" y="295" type="line"/>
      <point x="208" y="295" type="line"/>
    </contour>
  </outline>
</glyph>
<glyph name="hbar.sc" format="2">
  <advance width="738"/>
  <outline>
    <contour>
      <point x="82" y="392" type="line"/>
      <point x="657" y="392" type="line"/>
      <point x="657" y="422" type="line"/>
      <point x="82" y="422" type="line"/>
    </contour>
    <component base="h.sc"/>
  </outline>
</glyph>
<glyph name="hungarumlautcomb.case" format="2">
  <anchor x="215" y="690" name="_topcase"/>
  <outline>
    <contour>
      <point x="280" y="720" type="line"/>
      <point x="451" y="801" type="line" smooth="yes"/>
      <point x="460" y="805"/>
      <point x="472" y="810"/>
      <point x="476" y="827" type="curve" smooth="yes"/>
      <point x="481" y="845"/>
      <point x="470" y="864"/>
      <point x="452" y="868" type="curve" smooth="yes"/>
      <point x="443" y="870"/>
      <point x="431" y="868"/>
      <point x="423" y="862" type="curve" smooth="yes"/>
      <point x="266" y="740" type="line"/>
    </contour>
    <contour>
      <point x="66" y="720" type="line"/>
      <point x="237" y="801" type="line" smooth="yes"/>
      <point x="246" y="805"/>
      <point x="258" y="810"/>
      <point x="262" y="827" type="curve" smooth="yes"/>
      <point x="267" y="845"/>
      <point x="256" y="864"/>
      <point x="238" y="868" type="curve" smooth="yes"/>
      <point x="229" y="870"/>
      <point x="217" y="868"/>
      <point x="209" y="862" type="curve" smooth="yes"/>
      <point x="52" y="740" type="line"/>
    </contour>
  </outline>
</glyph>
<glyph name="j.sc" format="2">
  <advance width="382"/>
  <guideline x="-34" y="538" angle="0"/>
  <anchor x="208" y="552" name="top"/>
  <outline>
    <contour>
      <point x="80" y="-158" type="curve" smooth="yes"/>
      <point x="152" y="-158"/>
      <point x="183" y="-118"/>
      <point x="202" y="-85" type="curve" smooth="yes"/>
      <point x="216" y="-62"/>
      <point x="225" y="-44"/>
      <point x="239" y="-44" type="curve" smooth="yes"/>
      <point x="242" y="-44" type="line"/>
      <point x="242" y="468" type="line" smooth="yes"/>
      <point x="242" y="502"/>
      <point x="249" y="507"/>
      <point x="295" y="515" type="curve" smooth="yes"/>
      <point x="347" y="524" type="line"/>
      <point x="347" y="538" type="line"/>
      <point x="61" y="538" type="line"/>
      <point x="61" y="524" type="line"/>
      <point x="112" y="515" type="line" smooth="yes"/>
      <point x="159" y="507"/>
      <point x="166" y="502"/>
      <point x="166" y="468" type="curve" smooth="yes"/>
      <point x="166" y="-33" type="line" smooth="yes"/>
      <point x="166" y="-112"/>
      <point x="130" y="-139"/>
      <point x="84" y="-139" type="curve" smooth="yes"/>
      <point x="59" y="-139"/>
      <point x="39" y="-128"/>
      <point x="39" y="-119" type="curve" smooth="yes"/>
      <point x="39" y="-118"/>
      <point x="40" y="-118"/>
      <point x="44" y="-118" type="curve" smooth="yes"/>
      <point x="66" y="-118"/>
      <point x="82" y="-97"/>
      <point x="82" y="-76" type="curve" smooth="yes"/>
      <point x="82" y="-54"/>
      <point x="67" y="-31"/>
      <point x="37" y="-31" type="curve" smooth="yes"/>
      <point x="14" y="-31"/>
      <point x="-10" y="-46"/>
      <point x="-10" y="-78" type="curve" smooth="yes"/>
      <point x="-10" y="-114"/>
      <point x="28" y="-158"/>
    </contour>
  </outline>
</glyph>
<glyph name="l.sc" format="2">
  <advance width="627"/>
  <anchor x="200" y="552" name="top"/>
  <outline>
    <contour>
      <point x="52" y="0" type="line"/>
      <point x="580" y="0" type="line"/>
      <point x="580" y="42"/>
      <point x="587" y="94"/>
      <point x="601" y="144" type="curve"/>
      <point x="585" y="144" type="line"/>
      <point x="563" y="103" type="line" smooth="yes"/>
      <point x="543" y="65"/>
      <point x="486" y="20"/>
      <point x="417" y="20" type="curve" smooth="yes"/>
      <point x="299" y="20" type="line" smooth="yes"/>
      <point x="245" y="20"/>
      <point x="233" y="33"/>
      <point x="233" y="72" type="curve" smooth="yes"/>
      <point x="233" y="468" type="line" smooth="yes"/>
      <point x="233" y="502"/>
      <point x="240" y="507"/>
      <point x="286" y="515" type="curve" smooth="yes"/>
      <point x="337" y="524" type="line"/>
      <point x="338" y="538" type="line"/>
      <point x="52" y="538" type="line"/>
      <point x="52" y="524" type="line"/>
      <point x="103" y="515" type="line" smooth="yes"/>
      <point x="150" y="507"/>
      <point x="157" y="502"/>
      <point x="157" y="468" type="curve" smooth="yes"/>
      <point x="157" y="70" type="line" smooth="yes"/>
      <point x="157" y="37"/>
      <point x="150" y="31"/>
      <point x="103" y="23" type="curve" smooth="yes"/>
      <point x="52" y="14" type="line"/>
    </contour>
  </outline>
</glyph>
<glyph name="lslash.sc" format="2">
  <advance width="627"/>
  <guideline x="52" y="316" angle="90"/>
  <outline>
    <contour>
      <point x="52" y="173" type="line"/>
      <point x="450" y="292" type="line"/>
      <point x="450" y="327" type="line"/>
      <point x="52" y="209" type="line"/>
    </contour>
    <component base="l.sc"/>
  </outline>
</glyph>
<glyph name="m.sc" format="2">
  <advance width="843"/>
  <outline>
    <contour>
      <point x="401" y="-7" type="line"/>
      <point x="407" y="-7" type="line"/>
      <point x="605" y="449" type="line"/>
      <point x="613" y="52" type="line" smooth="yes"/>
      <point x="613" y="35"/>
      <point x="608" y="29"/>
      <point x="586" y="25" type="curve" smooth="yes"/>
      <point x="527" y="14" type="line"/>
      <point x="527" y="0" type="line"/>
      <point x="796" y="0" type="line"/>
      <point x="796" y="14" type="line"/>
      <point x="745" y="23" type="line" smooth="yes"/>
      <point x="699" y="31"/>
      <point x="692" y="36"/>
      <point x="691" y="70" type="curve" smooth="yes"/>
      <point x="680" y="463" type="line" smooth="yes"/>
      <point x="679" y="498"/>
      <point x="689" y="509"/>
      <point x="734" y="516" type="curve" smooth="yes"/>
      <point x="784" y="524" type="line"/>
      <point x="784" y="538" type="line"/>
      <point x="613" y="538" type="line"/>
      <point x="430" y="122" type="line"/>
      <point x="242" y="538" type="line"/>
      <point x="81" y="538" type="line"/>
      <point x="81" y="524" type="line"/>
      <point x="116" y="517" type="line" smooth="yes"/>
      <point x="161" y="508"/>
      <point x="171" y="497"/>
      <point x="170" y="463" type="curve" smooth="yes"/>
      <point x="152" y="71" type="line" smooth="yes"/>
      <point x="151" y="38"/>
      <point x="145" y="33"/>
      <point x="99" y="24" type="curve" smooth="yes"/>
      <point x="47" y="14" type="line"/>
      <point x="47" y="0" type="line"/>
      <point x="282" y="0" type="line"/>
      <point x="282" y="14" type="line"/>
      <point x="230" y="24" type="line" smooth="yes"/>
      <point x="184" y="33"/>
      <point x="174" y="38"/>
      <point x="176" y="71" type="curve" smooth="yes"/>
      <point x="195" y="464" type="line"/>
    </contour>
  </outline>
</glyph>
<glyph name="n.sc" format="2">
  <advance width="755"/>
  <anchor x="391" y="552" name="top"/>
  <outline>
    <contour>
      <point x="603" y="-13" type="line"/>
      <point x="611" y="-13" type="line"/>
      <point x="611" y="465" type="line" smooth="yes"/>
      <point x="611" y="498"/>
      <point x="619" y="507"/>
      <point x="665" y="515" type="curve" smooth="yes"/>
      <point x="716" y="524" type="line"/>
      <point x="716" y="538" type="line"/>
      <point x="482" y="538" type="line"/>
      <point x="482" y="524" type="line"/>
      <point x="533" y="515" type="line" smooth="yes"/>
      <point x="580" y="507"/>
      <point x="587" y="496"/>
      <point x="587" y="462" type="curve" smooth="yes"/>
      <point x="588" y="122" type="line"/>
      <point x="196" y="538" type="line"/>
      <point x="52" y="538" type="line"/>
      <point x="52" y="525" type="line"/>
      <point x="91" y="518" type="line" smooth="yes"/>
      <point x="154" y="507"/>
      <point x="158" y="499"/>
      <point x="158" y="462" type="curve" smooth="yes"/>
      <point x="158" y="74" type="line" smooth="yes"/>
      <point x="158" y="40"/>
      <point x="151" y="31"/>
      <point x="104" y="23" type="curve" smooth="yes"/>
      <point x="52" y="14" type="line"/>
      <point x="53" y="0" type="line"/>
      <point x="287" y="0" type="line"/>
      <point x="287" y="14" type="line"/>
      <point x="236" y="23" type="line" smooth="yes"/>
      <point x="190" y="31"/>
      <point x="182" y="42"/>
      <point x="182" y="76" type="curve" smooth="yes"/>
      <point x="182" y="445" type="line"/>
    </contour>
  </outline>
</glyph>
<glyph name="o.sc" format="2">
  <advance width="712"/>
  <anchor x="355" y="552" name="top"/>
  <outline>
    <contour>
      <point x="355" y="-10" type="curve" smooth="yes"/>
      <point x="530" y="-10"/>
      <point x="656" y="110"/>
      <point x="656" y="272" type="curve" smooth="yes"/>
      <point x="656" y="422"/>
      <point x="530" y="545"/>
      <point x="355" y="545" type="curve" smooth="yes"/>
      <point x="182" y="545"/>
      <point x="56" y="424"/>
      <point x="56" y="262" type="curve" smooth="yes"/>
      <point x="56" y="111"/>
      <point x="182" y="-10"/>
    </contour>
    <contour>
      <point x="355" y="11" type="curve" smooth="yes"/>
      <point x="231" y="11"/>
      <point x="140" y="124"/>
      <point x="140" y="262" type="curve" smooth="yes"/>
      <point x="140" y="412"/>
      <point x="231" y="523"/>
      <point x="355" y="523" type="curve" smooth="yes"/>
      <point x="482" y="523"/>
      <point x="572" y="410"/>
      <point x="572" y="271" type="curve" smooth="yes"/>
      <point x="572" y="123"/>
      <point x="482" y="11"/>
    </contour>
  </outline>
</glyph>
<glyph name="one.onum" format="2">
  <advance width="317"/>
  <outline>
    <contour>
      <point x="35" y="0" type="line"/>
      <point x="282" y="0" type="line"/>
      <point x="282" y="15" type="line"/>
      <point x="246" y="21" type="line" smooth="yes"/>
      <point x="199" y="29"/>
      <point x="192" y="38"/>
      <point x="192" y="74" type="curve" smooth="yes"/>
      <point x="192" y="352" type="line" smooth="yes"/>
      <point x="192" y="388"/>
      <point x="199" y="397"/>
      <point x="246" y="405" type="curve" smooth="yes"/>
      <point x="282" y="411" type="line"/>
      <point x="282" y="426" type="line"/>
      <point x="35" y="426" type="line"/>
      <point x="35" y="411" type="line"/>
      <point x="71" y="405" type="line" smooth="yes"/>
      <point x="118" y="397"/>
      <point x="125" y="388"/>
      <point x="125" y="352" type="curve" smooth="yes"/>
      <point x="125" y="74" type="line" smooth="yes"/>
      <point x="125" y="38"/>
      <point x="118" y="29"/>
      <point x="71" y="21" type="curve" smooth="yes"/>
      <point x="35" y="15" type="line"/>
    </contour>
  </outline>
</glyph>
<glyph name="q.sc" format="2">
  <advance width="720"/>
  <outline>
    <contour>
      <point x="444" y="7" type="curve"/>
      <point x="332" y="-6" type="line"/>
      <point x="447" y="-96"/>
      <point x="547" y="-120"/>
      <point x="646" y="-120" type="curve" smooth="yes"/>
      <point x="691" y="-120"/>
      <point x="727" y="-117"/>
      <point x="765" y="-110" type="curve"/>
      <point x="760" y="-97" type="line"/>
      <point x="646" y="-97"/>
      <point x="465" y="-29"/>
    </contour>
    <component base="o.sc"/>
  </outline>
</glyph>
<glyph name="ringcomb.case" format="2">
  <anchor x="265" y="690" name="_topcase"/>
  <outline>
    <contour>
      <point x="356" y="776" type="curve" smooth="yes"/>
      <point x="356" y="826"/>
      <point x="315" y="867"/>
      <point x="265" y="867" type="curve" smooth="yes"/>
      <point x="215" y="867"/>
      <point x="174" y="826"/>
      <point x="174" y="776" type="curve" smooth="yes"/>
      <point x="174" y="726"/>
      <point x="215" y="685"/>
      <point x="265" y="685" type="curve" smooth="yes"/>
      <point x="315" y="685"/>
      <point x="356" y="726"/>
    </contour>
    <contour>
      <point x="319" y="776" type="curve" smooth="yes"/>
      <point x="319" y="746"/>
      <point x="296" y="722"/>
      <point x="266" y="722" type="curve" smooth="yes"/>
      <point x="236" y="722"/>
      <point x="211" y="746"/>
      <point x="211" y="776" type="curve" smooth="yes"/>
      <point x="211" y="806"/>
      <point x="236" y="830"/>
      <point x="266" y="830" type="curve" smooth="yes"/>
      <point x="296" y="830"/>
      <point x="319" y="806"/>
    </contour>
  </outline>
</glyph>
<glyph name="s.sc" format="2">
  <advance width="512"/>
  <anchor x="258" y="552" name="top"/>
  <outline>
    <contour>
      <point x="260" y="-6" type="curve" smooth="yes"/>
      <point x="374" y="-6"/>
      <point x="452" y="62"/>
      <point x="452" y="150" type="curve" smooth="yes"/>
      <point x="452" y="230"/>
      <point x="411" y="269"/>
      <point x="287" y="310" type="curve" smooth="yes"/>
      <point x="168" y="349"/>
      <point x="144" y="370"/>
      <point x="144" y="431" type="curve" smooth="yes"/>
      <point x="144" y="493"/>
      <point x="195" y="528"/>
      <point x="251" y="528" type="curve" smooth="yes"/>
      <point x="338" y="528"/>
      <point x="372" y="461"/>
      <point x="406" y="378" type="curve"/>
      <point x="425" y="378" type="line"/>
      <point x="416" y="409"/>
      <point x="410" y="442"/>
      <point x="410" y="475" type="curve" smooth="yes"/>
      <point x="410" y="488"/>
      <point x="411" y="501"/>
      <point x="413" y="514" type="curve"/>
      <point x="409" y="517" type="line"/>
      <point x="388" y="513" type="line"/>
      <point x="372" y="513"/>
      <point x="357" y="520"/>
      <point x="341" y="528" type="curve" smooth="yes"/>
      <point x="320" y="538"/>
      <point x="296" y="548"/>
      <point x="262" y="548" type="curve" smooth="yes"/>
      <point x="141" y="548"/>
      <point x="81" y="476"/>
      <point x="81" y="395" type="curve" smooth="yes"/>
      <point x="81" y="313"/>
      <point x="138" y="275"/>
      <point x="237" y="242" type="curve" smooth="yes"/>
      <point x="359" y="201"/>
      <point x="390" y="178"/>
      <point x="390" y="116" type="curve" smooth="yes"/>
      <point x="390" y="55"/>
      <point x="337" y="13"/>
      <point x="265" y="13" type="curve" smooth="yes"/>
      <point x="157" y="13"/>
      <point x="98" y="89"/>
      <point x="84" y="188" type="curve"/>
      <point x="60" y="188" type="line"/>
      <point x="73" y="138"/>
      <point x="73" y="89"/>
      <point x="64" y="42" type="curve"/>
      <point x="102" y="23"/>
      <point x="168" y="-6"/>
    </contour>
  </outline>
</glyph>
<glyph name="seven.onum" format="2">
  <advance width="449"/>
  <outline>
    <contour>
      <point x="419" y="411" type="line"/>
      <point x="419" y="426" type="line"/>
      <point x="47" y="426" type="line"/>
      <point x="27" y="295" type="line"/>
      <point x="43" y="295" type="line"/>
      <point x="60" y="337" type="line" smooth="yes"/>
      <point x="67" y="354"/>
      <point x="80" y="362"/>
      <point x="93" y="362" type="curve" smooth="yes"/>
      <point x="365" y="362" type="line"/>
      <point x="172" y="-75" type="line" smooth="yes"/>
      <point x="152" y="-120"/>
      <point x="139" y="-153"/>
      <point x="139" y="-179" type="curve" smooth="yes"/>
      <point x="139" y="-213"/>
      <point x="151" y="-249"/>
      <point x="191" y="-249" type="curve" smooth="yes"/>
      <point x="221" y="-249"/>
      <point x="238" y="-221"/>
      <point x="238" y="-200" type="curve" smooth="yes"/>
      <point x="238" y="-178"/>
      <point x="224" y="-167"/>
      <point x="211" y="-158" type="curve"/>
      <point x="198" y="-150"/>
      <point x="187" y="-143"/>
      <point x="187" y="-129" type="curve" smooth="yes"/>
      <point x="187" y="-123"/>
      <point x="189" y="-115"/>
      <point x="195" y="-100" type="curve" smooth="yes"/>
    </contour>
  </outline>
</glyph>
<glyph name="t.sc" format="2">
  <advance width="620"/>
  <anchor x="310" y="552" name="top"/>
  <outline>
    <contour>
      <point x="167" y="0" type="line"/>
      <point x="453" y="0" type="line"/>
      <point x="452" y="14" type="line"/>
      <point x="401" y="23" type="line" smooth="yes"/>
      <point x="355" y="31"/>
      <point x="348" y="37"/>
      <point x="348" y="70" type="curve" smooth="yes"/>
      <point x="348" y="519" type="line"/>
      <point x="427" y="519" type="line"/>
      <point x="510" y="519"/>
      <point x="550" y="465"/>
      <point x="571" y="397" type="curve"/>
      <point x="589" y="397" type="line"/>
      <point x="577" y="458"/>
      <point x="573" y="494"/>
      <point x="580" y="538" type="curve"/>
      <point x="39" y="538" type="line"/>
      <point x="46" y="494"/>
      <point x="43" y="458"/>
      <point x="31" y="397" type="curve"/>
      <point x="49" y="397" type="line"/>
      <point x="70" y="465"/>
      <point x="110" y="519"/>
      <point x="192" y="519" type="curve" smooth="yes"/>
      <point x="272" y="519" type="line"/>
      <point x="272" y="70" type="line" smooth="yes"/>
      <point x="272" y="37"/>
      <point x="265" y="31"/>
      <point x="218" y="23" type="curve" smooth="yes"/>
      <point x="167" y="14" type="line"/>
    </contour>
  </outline>
</glyph>
<glyph name="tbar.sc" format="2">
  <advance width="620"/>
  <outline>
    <contour>
      <point x="134" y="258" type="line"/>
      <point x="487" y="258" type="line"/>
      <point x="487" y="288" type="line"/>
      <point x="134" y="288" type="line"/>
    </contour>
    <component base="t.sc"/>
  </outline>
</glyph>
<glyph name="tilde.sc" format="2">
  <advance width="530"/>
  <anchor x="265" y="552" name="_top"/>
  <outline>
    <contour>
      <point x="-2" y="624" type="line"/>
      <point x="107" y="624" type="line"/>
      <point x="109" y="678"/>
      <point x="170" y="725"/>
      <point x="265" y="725" type="curve" smooth="yes"/>
      <point x="360" y="725"/>
      <point x="421" y="678"/>
      <point x="423" y="624" type="curve"/>
      <point x="532" y="624" type="line"/>
      <point x="532" y="639" type="line"/>
      <point x="524" y="639" type="line" smooth="yes"/>
      <point x="461" y="639"/>
      <point x="455" y="646"/>
      <point x="439" y="673" type="curve" smooth="yes"/>
      <point x="405" y="727"/>
      <point x="356" y="771"/>
      <point x="265" y="771" type="curve" smooth="yes"/>
      <point x="172" y="771"/>
      <point x="125" y="727"/>
      <point x="91" y="672" type="curve" smooth="yes"/>
      <point x="75" y="646"/>
      <point x="69" y="639"/>
      <point x="6" y="639" type="curve" smooth="yes"/>
      <point x="-2" y="639" type="line"/>
    </contour>
  </outline>
</glyph>
<glyph name="tildecomb.case" format="2">
  <anchor x="265" y="690" name="_topcase"/>
  <outline>
    <contour>
      <point x="-30" y="718" type="line"/>
      <point x="91" y="718" type="line"/>
      <point x="93" y="783"/>
      <point x="160" y="835"/>
      <point x="266" y="835" type="curve" smooth="yes"/>
      <point x="371" y="835"/>
      <point x="438" y="783"/>
      <point x="440" y="718" type="curve"/>
      <point x="561" y="718" type="line"/>
      <point x="561" y="732" type="line"/>
      <point x="551" y="732" type="line" smooth="yes"/>
      <point x="482" y="732"/>
      <point x="476" y="743"/>
      <point x="458" y="772" type="curve" smooth="yes"/>
      <point x="421" y="832"/>
      <point x="367" y="881"/>
      <point x="266" y="881" type="curve" smooth="yes"/>
      <point x="162" y="881"/>
      <point x="110" y="832"/>
      <point x="73" y="771" type="curve" smooth="yes"/>
      <point x="55" y="743"/>
      <point x="48" y="732"/>
      <point x="-20" y="732" type="curve" smooth="yes"/>
      <point x="-30" y="732" type="line"/>
    </contour>
  </outline>
</glyph>
<glyph name="u.sc" format="2">
  <advance width="701"/>
  <anchor x="375" y="552" name="top"/>
  <outline>
    <contour>
      <point x="351" y="-10" type="curve" smooth="yes"/>
      <point x="433" y="-10"/>
      <point x="471" y="22"/>
      <point x="499" y="50" type="curve" smooth="yes"/>
      <point x="520" y="70"/>
      <point x="535" y="88"/>
      <point x="557" y="88" type="curve"/>
      <point x="557" y="465" type="line" smooth="yes"/>
      <point x="557" y="498"/>
      <point x="565" y="507"/>
      <point x="611" y="515" type="curve" smooth="yes"/>
      <point x="662" y="524" type="line"/>
      <point x="662" y="538" type="line"/>
      <point x="428" y="538" type="line"/>
      <point x="428" y="524" type="line"/>
      <point x="479" y="515" type="line" smooth="yes"/>
      <point x="525" y="507"/>
      <point x="533" y="496"/>
      <point x="533" y="462" type="curve" smooth="yes"/>
      <point x="533" y="189" type="line" smooth="yes"/>
      <point x="533" y="90"/>
      <point x="477" y="30"/>
      <point x="375" y="30" type="curve" smooth="yes"/>
      <point x="281" y="30"/>
      <point x="220" y="86"/>
      <point x="220" y="186" type="curve" smooth="yes"/>
      <point x="220" y="468" type="line" smooth="yes"/>
      <point x="220" y="502"/>
      <point x="227" y="507"/>
      <point x="273" y="515" type="curve" smooth="yes"/>
      <point x="325" y="524" type="line"/>
      <point x="325" y="538" type="line"/>
      <point x="39" y="538" type="line"/>
      <point x="39" y="524" type="line"/>
      <point x="90" y="515" type="line" smooth="yes"/>
      <point x="136" y="507"/>
      <point x="144" y="502"/>
      <point x="144" y="468" type="curve" smooth="yes"/>
      <point x="144" y="185" type="line" smooth="yes"/>
      <point x="144" y="63"/>
      <point x="233" y="-10"/>
    </contour>
  </outline>
</glyph>
<glyph name="z.sc" format="2">
  <advance width="598"/>
  <anchor x="307" y="552" name="top"/>
  <outline>
    <contour>
      <point x="43" y="0" type="line"/>
      <point x="538" y="0" type="line"/>
      <point x="538" y="50"/>
      <point x="545" y="98"/>
      <point x="559" y="150" type="curve"/>
      <point x="542" y="150" type="line"/>
      <point x="514" y="78"/>
      <point x="442" y="20"/>
      <point x="354" y="20" type="curve" smooth="yes"/>
      <point x="148" y="20" type="line"/>
      <point x="539" y="530" type="line"/>
      <point x="539" y="538" type="line"/>
      <point x="81" y="538" type="line"/>
      <point x="82" y="524"/>
      <point x="85" y="510"/>
      <point x="85" y="497" type="curve" smooth="yes"/>
      <point x="85" y="462"/>
      <point x="80" y="424"/>
      <point x="72" y="391" type="curve"/>
      <point x="88" y="391" type="line"/>
      <point x="123" y="477"/>
      <point x="161" y="519"/>
      <point x="249" y="519" type="curve" smooth="yes"/>
      <point x="437" y="519" type="line"/>
      <point x="43" y="9" type="line"/>
    </contour>
  </outline>
</glyph>
